G04 #@! TF.GenerationSoftware,KiCad,Pcbnew,(5.0.1-3-g963ef8bb5)*
G04 #@! TF.CreationDate,2019-01-23T22:51:25-05:00*
G04 #@! TF.ProjectId,WaterSpill,57617465725370696C6C2E6B69636164,rev?*
G04 #@! TF.SameCoordinates,Original*
G04 #@! TF.FileFunction,Legend,Bot*
G04 #@! TF.FilePolarity,Positive*
%FSLAX46Y46*%
G04 Gerber Fmt 4.6, Leading zero omitted, Abs format (unit mm)*
G04 Created by KiCad (PCBNEW (5.0.1-3-g963ef8bb5)) date Wednesday, January 23, 2019 at 10:51:25 pm*
%MOMM*%
%LPD*%
G01*
G04 APERTURE LIST*
%ADD10C,0.200000*%
%ADD11C,0.120000*%
%ADD12C,0.150000*%
G04 APERTURE END LIST*
D10*
X57154571Y-50196428D02*
X56854571Y-50196428D01*
X56726000Y-50772619D02*
X57154571Y-50772619D01*
X57154571Y-49672619D01*
X56726000Y-49672619D01*
X56383142Y-50720238D02*
X56254571Y-50772619D01*
X56040285Y-50772619D01*
X55954571Y-50720238D01*
X55911714Y-50667857D01*
X55868857Y-50563095D01*
X55868857Y-50458333D01*
X55911714Y-50353571D01*
X55954571Y-50301190D01*
X56040285Y-50248809D01*
X56211714Y-50196428D01*
X56297428Y-50144047D01*
X56340285Y-50091666D01*
X56383142Y-49986904D01*
X56383142Y-49882142D01*
X56340285Y-49777380D01*
X56297428Y-49725000D01*
X56211714Y-49672619D01*
X55997428Y-49672619D01*
X55868857Y-49725000D01*
X55483142Y-50772619D02*
X55483142Y-49672619D01*
X55140285Y-49672619D01*
X55054571Y-49725000D01*
X55011714Y-49777380D01*
X54968857Y-49882142D01*
X54968857Y-50039285D01*
X55011714Y-50144047D01*
X55054571Y-50196428D01*
X55140285Y-50248809D01*
X55483142Y-50248809D01*
X54454571Y-50144047D02*
X54540285Y-50091666D01*
X54583142Y-50039285D01*
X54626000Y-49934523D01*
X54626000Y-49882142D01*
X54583142Y-49777380D01*
X54540285Y-49725000D01*
X54454571Y-49672619D01*
X54283142Y-49672619D01*
X54197428Y-49725000D01*
X54154571Y-49777380D01*
X54111714Y-49882142D01*
X54111714Y-49934523D01*
X54154571Y-50039285D01*
X54197428Y-50091666D01*
X54283142Y-50144047D01*
X54454571Y-50144047D01*
X54540285Y-50196428D01*
X54583142Y-50248809D01*
X54626000Y-50353571D01*
X54626000Y-50563095D01*
X54583142Y-50667857D01*
X54540285Y-50720238D01*
X54454571Y-50772619D01*
X54283142Y-50772619D01*
X54197428Y-50720238D01*
X54154571Y-50667857D01*
X54111714Y-50563095D01*
X54111714Y-50353571D01*
X54154571Y-50248809D01*
X54197428Y-50196428D01*
X54283142Y-50144047D01*
X53768857Y-49777380D02*
X53726000Y-49725000D01*
X53640285Y-49672619D01*
X53426000Y-49672619D01*
X53340285Y-49725000D01*
X53297428Y-49777380D01*
X53254571Y-49882142D01*
X53254571Y-49986904D01*
X53297428Y-50144047D01*
X53811714Y-50772619D01*
X53254571Y-50772619D01*
X52483142Y-49672619D02*
X52654571Y-49672619D01*
X52740285Y-49725000D01*
X52783142Y-49777380D01*
X52868857Y-49934523D01*
X52911714Y-50144047D01*
X52911714Y-50563095D01*
X52868857Y-50667857D01*
X52826000Y-50720238D01*
X52740285Y-50772619D01*
X52568857Y-50772619D01*
X52483142Y-50720238D01*
X52440285Y-50667857D01*
X52397428Y-50563095D01*
X52397428Y-50301190D01*
X52440285Y-50196428D01*
X52483142Y-50144047D01*
X52568857Y-50091666D01*
X52740285Y-50091666D01*
X52826000Y-50144047D01*
X52868857Y-50196428D01*
X52911714Y-50301190D01*
X51626000Y-49672619D02*
X51797428Y-49672619D01*
X51883142Y-49725000D01*
X51926000Y-49777380D01*
X52011714Y-49934523D01*
X52054571Y-50144047D01*
X52054571Y-50563095D01*
X52011714Y-50667857D01*
X51968857Y-50720238D01*
X51883142Y-50772619D01*
X51711714Y-50772619D01*
X51626000Y-50720238D01*
X51583142Y-50667857D01*
X51540285Y-50563095D01*
X51540285Y-50301190D01*
X51583142Y-50196428D01*
X51626000Y-50144047D01*
X51711714Y-50091666D01*
X51883142Y-50091666D01*
X51968857Y-50144047D01*
X52011714Y-50196428D01*
X52054571Y-50301190D01*
X50554571Y-49672619D02*
X50340285Y-50772619D01*
X50168857Y-49986904D01*
X49997428Y-50772619D01*
X49783142Y-49672619D01*
X49054571Y-50772619D02*
X49054571Y-50196428D01*
X49097428Y-50091666D01*
X49183142Y-50039285D01*
X49354571Y-50039285D01*
X49440285Y-50091666D01*
X49054571Y-50720238D02*
X49140285Y-50772619D01*
X49354571Y-50772619D01*
X49440285Y-50720238D01*
X49483142Y-50615476D01*
X49483142Y-50510714D01*
X49440285Y-50405952D01*
X49354571Y-50353571D01*
X49140285Y-50353571D01*
X49054571Y-50301190D01*
X48754571Y-50039285D02*
X48411714Y-50039285D01*
X48626000Y-49672619D02*
X48626000Y-50615476D01*
X48583142Y-50720238D01*
X48497428Y-50772619D01*
X48411714Y-50772619D01*
X47768857Y-50720238D02*
X47854571Y-50772619D01*
X48026000Y-50772619D01*
X48111714Y-50720238D01*
X48154571Y-50615476D01*
X48154571Y-50196428D01*
X48111714Y-50091666D01*
X48026000Y-50039285D01*
X47854571Y-50039285D01*
X47768857Y-50091666D01*
X47726000Y-50196428D01*
X47726000Y-50301190D01*
X48154571Y-50405952D01*
X47340285Y-50772619D02*
X47340285Y-50039285D01*
X47340285Y-50248809D02*
X47297428Y-50144047D01*
X47254571Y-50091666D01*
X47168857Y-50039285D01*
X47083142Y-50039285D01*
X46826000Y-50720238D02*
X46697428Y-50772619D01*
X46483142Y-50772619D01*
X46397428Y-50720238D01*
X46354571Y-50667857D01*
X46311714Y-50563095D01*
X46311714Y-50458333D01*
X46354571Y-50353571D01*
X46397428Y-50301190D01*
X46483142Y-50248809D01*
X46654571Y-50196428D01*
X46740285Y-50144047D01*
X46783142Y-50091666D01*
X46826000Y-49986904D01*
X46826000Y-49882142D01*
X46783142Y-49777380D01*
X46740285Y-49725000D01*
X46654571Y-49672619D01*
X46440285Y-49672619D01*
X46311714Y-49725000D01*
X45926000Y-50039285D02*
X45926000Y-51139285D01*
X45926000Y-50091666D02*
X45840285Y-50039285D01*
X45668857Y-50039285D01*
X45583142Y-50091666D01*
X45540285Y-50144047D01*
X45497428Y-50248809D01*
X45497428Y-50563095D01*
X45540285Y-50667857D01*
X45583142Y-50720238D01*
X45668857Y-50772619D01*
X45840285Y-50772619D01*
X45926000Y-50720238D01*
X45111714Y-50772619D02*
X45111714Y-50039285D01*
X45111714Y-49672619D02*
X45154571Y-49725000D01*
X45111714Y-49777380D01*
X45068857Y-49725000D01*
X45111714Y-49672619D01*
X45111714Y-49777380D01*
X44554571Y-50772619D02*
X44640285Y-50720238D01*
X44683142Y-50615476D01*
X44683142Y-49672619D01*
X44083142Y-50772619D02*
X44168857Y-50720238D01*
X44211714Y-50615476D01*
X44211714Y-49672619D01*
X43097428Y-49620238D02*
X43868857Y-51034523D01*
X42840285Y-50720238D02*
X42711714Y-50772619D01*
X42497428Y-50772619D01*
X42411714Y-50720238D01*
X42368857Y-50667857D01*
X42326000Y-50563095D01*
X42326000Y-50458333D01*
X42368857Y-50353571D01*
X42411714Y-50301190D01*
X42497428Y-50248809D01*
X42668857Y-50196428D01*
X42754571Y-50144047D01*
X42797428Y-50091666D01*
X42840285Y-49986904D01*
X42840285Y-49882142D01*
X42797428Y-49777380D01*
X42754571Y-49725000D01*
X42668857Y-49672619D01*
X42454571Y-49672619D01*
X42326000Y-49725000D01*
X41940285Y-50772619D02*
X41940285Y-50039285D01*
X41940285Y-50144047D02*
X41897428Y-50091666D01*
X41811714Y-50039285D01*
X41683142Y-50039285D01*
X41597428Y-50091666D01*
X41554571Y-50196428D01*
X41554571Y-50772619D01*
X41554571Y-50196428D02*
X41511714Y-50091666D01*
X41426000Y-50039285D01*
X41297428Y-50039285D01*
X41211714Y-50091666D01*
X41168857Y-50196428D01*
X41168857Y-50772619D01*
X40611714Y-50772619D02*
X40697428Y-50720238D01*
X40740285Y-50667857D01*
X40783142Y-50563095D01*
X40783142Y-50248809D01*
X40740285Y-50144047D01*
X40697428Y-50091666D01*
X40611714Y-50039285D01*
X40483142Y-50039285D01*
X40397428Y-50091666D01*
X40354571Y-50144047D01*
X40311714Y-50248809D01*
X40311714Y-50563095D01*
X40354571Y-50667857D01*
X40397428Y-50720238D01*
X40483142Y-50772619D01*
X40611714Y-50772619D01*
X39926000Y-50772619D02*
X39926000Y-49672619D01*
X39840285Y-50353571D02*
X39583142Y-50772619D01*
X39583142Y-50039285D02*
X39926000Y-50458333D01*
X38854571Y-50720238D02*
X38940285Y-50772619D01*
X39111714Y-50772619D01*
X39197428Y-50720238D01*
X39240285Y-50615476D01*
X39240285Y-50196428D01*
X39197428Y-50091666D01*
X39111714Y-50039285D01*
X38940285Y-50039285D01*
X38854571Y-50091666D01*
X38811714Y-50196428D01*
X38811714Y-50301190D01*
X39240285Y-50405952D01*
X38426000Y-50772619D02*
X38426000Y-49672619D01*
X38211714Y-49672619D01*
X38083142Y-49725000D01*
X37997428Y-49829761D01*
X37954571Y-49934523D01*
X37911714Y-50144047D01*
X37911714Y-50301190D01*
X37954571Y-50510714D01*
X37997428Y-50615476D01*
X38083142Y-50720238D01*
X38211714Y-50772619D01*
X38426000Y-50772619D01*
X37183142Y-50720238D02*
X37268857Y-50772619D01*
X37440285Y-50772619D01*
X37526000Y-50720238D01*
X37568857Y-50615476D01*
X37568857Y-50196428D01*
X37526000Y-50091666D01*
X37440285Y-50039285D01*
X37268857Y-50039285D01*
X37183142Y-50091666D01*
X37140285Y-50196428D01*
X37140285Y-50301190D01*
X37568857Y-50405952D01*
X36368857Y-50720238D02*
X36454571Y-50772619D01*
X36626000Y-50772619D01*
X36711714Y-50720238D01*
X36754571Y-50667857D01*
X36797428Y-50563095D01*
X36797428Y-50248809D01*
X36754571Y-50144047D01*
X36711714Y-50091666D01*
X36626000Y-50039285D01*
X36454571Y-50039285D01*
X36368857Y-50091666D01*
X36111714Y-50039285D02*
X35768857Y-50039285D01*
X35983142Y-49672619D02*
X35983142Y-50615476D01*
X35940285Y-50720238D01*
X35854571Y-50772619D01*
X35768857Y-50772619D01*
X35340285Y-50772619D02*
X35426000Y-50720238D01*
X35468857Y-50667857D01*
X35511714Y-50563095D01*
X35511714Y-50248809D01*
X35468857Y-50144047D01*
X35426000Y-50091666D01*
X35340285Y-50039285D01*
X35211714Y-50039285D01*
X35126000Y-50091666D01*
X35083142Y-50144047D01*
X35040285Y-50248809D01*
X35040285Y-50563095D01*
X35083142Y-50667857D01*
X35126000Y-50720238D01*
X35211714Y-50772619D01*
X35340285Y-50772619D01*
X34654571Y-50772619D02*
X34654571Y-50039285D01*
X34654571Y-50248809D02*
X34611714Y-50144047D01*
X34568857Y-50091666D01*
X34483142Y-50039285D01*
X34397428Y-50039285D01*
X33454571Y-50720238D02*
X33326000Y-50772619D01*
X33111714Y-50772619D01*
X33026000Y-50720238D01*
X32983142Y-50667857D01*
X32940285Y-50563095D01*
X32940285Y-50458333D01*
X32983142Y-50353571D01*
X33026000Y-50301190D01*
X33111714Y-50248809D01*
X33283142Y-50196428D01*
X33368857Y-50144047D01*
X33411714Y-50091666D01*
X33454571Y-49986904D01*
X33454571Y-49882142D01*
X33411714Y-49777380D01*
X33368857Y-49725000D01*
X33283142Y-49672619D01*
X33068857Y-49672619D01*
X32940285Y-49725000D01*
X32211714Y-50720238D02*
X32297428Y-50772619D01*
X32468857Y-50772619D01*
X32554571Y-50720238D01*
X32597428Y-50615476D01*
X32597428Y-50196428D01*
X32554571Y-50091666D01*
X32468857Y-50039285D01*
X32297428Y-50039285D01*
X32211714Y-50091666D01*
X32168857Y-50196428D01*
X32168857Y-50301190D01*
X32597428Y-50405952D01*
X31783142Y-50039285D02*
X31783142Y-50772619D01*
X31783142Y-50144047D02*
X31740285Y-50091666D01*
X31654571Y-50039285D01*
X31526000Y-50039285D01*
X31440285Y-50091666D01*
X31397428Y-50196428D01*
X31397428Y-50772619D01*
X31011714Y-50720238D02*
X30926000Y-50772619D01*
X30754571Y-50772619D01*
X30668857Y-50720238D01*
X30626000Y-50615476D01*
X30626000Y-50563095D01*
X30668857Y-50458333D01*
X30754571Y-50405952D01*
X30883142Y-50405952D01*
X30968857Y-50353571D01*
X31011714Y-50248809D01*
X31011714Y-50196428D01*
X30968857Y-50091666D01*
X30883142Y-50039285D01*
X30754571Y-50039285D01*
X30668857Y-50091666D01*
X30111714Y-50772619D02*
X30197428Y-50720238D01*
X30240285Y-50667857D01*
X30283142Y-50563095D01*
X30283142Y-50248809D01*
X30240285Y-50144047D01*
X30197428Y-50091666D01*
X30111714Y-50039285D01*
X29983142Y-50039285D01*
X29897428Y-50091666D01*
X29854571Y-50144047D01*
X29811714Y-50248809D01*
X29811714Y-50563095D01*
X29854571Y-50667857D01*
X29897428Y-50720238D01*
X29983142Y-50772619D01*
X30111714Y-50772619D01*
X29426000Y-50772619D02*
X29426000Y-50039285D01*
X29426000Y-50248809D02*
X29383142Y-50144047D01*
X29340285Y-50091666D01*
X29254571Y-50039285D01*
X29168857Y-50039285D01*
X54304571Y-53041666D02*
X54347428Y-52989285D01*
X54433142Y-52832142D01*
X54476000Y-52727380D01*
X54518857Y-52570238D01*
X54561714Y-52308333D01*
X54561714Y-52098809D01*
X54518857Y-51836904D01*
X54476000Y-51679761D01*
X54433142Y-51575000D01*
X54347428Y-51417857D01*
X54304571Y-51365476D01*
X53576000Y-52570238D02*
X53661714Y-52622619D01*
X53833142Y-52622619D01*
X53918857Y-52570238D01*
X53961714Y-52517857D01*
X54004571Y-52413095D01*
X54004571Y-52098809D01*
X53961714Y-51994047D01*
X53918857Y-51941666D01*
X53833142Y-51889285D01*
X53661714Y-51889285D01*
X53576000Y-51941666D01*
X53276000Y-53041666D02*
X53233142Y-52989285D01*
X53147428Y-52832142D01*
X53104571Y-52727380D01*
X53061714Y-52570238D01*
X53018857Y-52308333D01*
X53018857Y-52098809D01*
X53061714Y-51836904D01*
X53104571Y-51679761D01*
X53147428Y-51575000D01*
X53233142Y-51417857D01*
X53276000Y-51365476D01*
X51947428Y-51627380D02*
X51904571Y-51575000D01*
X51818857Y-51522619D01*
X51604571Y-51522619D01*
X51518857Y-51575000D01*
X51476000Y-51627380D01*
X51433142Y-51732142D01*
X51433142Y-51836904D01*
X51476000Y-51994047D01*
X51990285Y-52622619D01*
X51433142Y-52622619D01*
X50876000Y-51522619D02*
X50790285Y-51522619D01*
X50704571Y-51575000D01*
X50661714Y-51627380D01*
X50618857Y-51732142D01*
X50576000Y-51941666D01*
X50576000Y-52203571D01*
X50618857Y-52413095D01*
X50661714Y-52517857D01*
X50704571Y-52570238D01*
X50790285Y-52622619D01*
X50876000Y-52622619D01*
X50961714Y-52570238D01*
X51004571Y-52517857D01*
X51047428Y-52413095D01*
X51090285Y-52203571D01*
X51090285Y-51941666D01*
X51047428Y-51732142D01*
X51004571Y-51627380D01*
X50961714Y-51575000D01*
X50876000Y-51522619D01*
X49718857Y-52622619D02*
X50233142Y-52622619D01*
X49976000Y-52622619D02*
X49976000Y-51522619D01*
X50061714Y-51679761D01*
X50147428Y-51784523D01*
X50233142Y-51836904D01*
X49290285Y-52622619D02*
X49118857Y-52622619D01*
X49033142Y-52570238D01*
X48990285Y-52517857D01*
X48904571Y-52360714D01*
X48861714Y-52151190D01*
X48861714Y-51732142D01*
X48904571Y-51627380D01*
X48947428Y-51575000D01*
X49033142Y-51522619D01*
X49204571Y-51522619D01*
X49290285Y-51575000D01*
X49333142Y-51627380D01*
X49376000Y-51732142D01*
X49376000Y-51994047D01*
X49333142Y-52098809D01*
X49290285Y-52151190D01*
X49204571Y-52203571D01*
X49033142Y-52203571D01*
X48947428Y-52151190D01*
X48904571Y-52098809D01*
X48861714Y-51994047D01*
X47833142Y-51470238D02*
X48604571Y-52884523D01*
X47361714Y-51522619D02*
X47276000Y-51522619D01*
X47190285Y-51575000D01*
X47147428Y-51627380D01*
X47104571Y-51732142D01*
X47061714Y-51941666D01*
X47061714Y-52203571D01*
X47104571Y-52413095D01*
X47147428Y-52517857D01*
X47190285Y-52570238D01*
X47276000Y-52622619D01*
X47361714Y-52622619D01*
X47447428Y-52570238D01*
X47490285Y-52517857D01*
X47533142Y-52413095D01*
X47576000Y-52203571D01*
X47576000Y-51941666D01*
X47533142Y-51732142D01*
X47490285Y-51627380D01*
X47447428Y-51575000D01*
X47361714Y-51522619D01*
X46204571Y-52622619D02*
X46718857Y-52622619D01*
X46461714Y-52622619D02*
X46461714Y-51522619D01*
X46547428Y-51679761D01*
X46633142Y-51784523D01*
X46718857Y-51836904D01*
X45176000Y-51470238D02*
X45947428Y-52884523D01*
X44918857Y-51627380D02*
X44876000Y-51575000D01*
X44790285Y-51522619D01*
X44576000Y-51522619D01*
X44490285Y-51575000D01*
X44447428Y-51627380D01*
X44404571Y-51732142D01*
X44404571Y-51836904D01*
X44447428Y-51994047D01*
X44961714Y-52622619D01*
X44404571Y-52622619D01*
X44104571Y-51522619D02*
X43547428Y-51522619D01*
X43847428Y-51941666D01*
X43718857Y-51941666D01*
X43633142Y-51994047D01*
X43590285Y-52046428D01*
X43547428Y-52151190D01*
X43547428Y-52413095D01*
X43590285Y-52517857D01*
X43633142Y-52570238D01*
X43718857Y-52622619D01*
X43976000Y-52622619D01*
X44061714Y-52570238D01*
X44104571Y-52517857D01*
X42476000Y-52203571D02*
X41790285Y-52203571D01*
X39518857Y-51575000D02*
X39604571Y-51522619D01*
X39733142Y-51522619D01*
X39861714Y-51575000D01*
X39947428Y-51679761D01*
X39990285Y-51784523D01*
X40033142Y-51994047D01*
X40033142Y-52151190D01*
X39990285Y-52360714D01*
X39947428Y-52465476D01*
X39861714Y-52570238D01*
X39733142Y-52622619D01*
X39647428Y-52622619D01*
X39518857Y-52570238D01*
X39476000Y-52517857D01*
X39476000Y-52151190D01*
X39647428Y-52151190D01*
X38704571Y-51889285D02*
X38704571Y-52622619D01*
X39090285Y-51889285D02*
X39090285Y-52465476D01*
X39047428Y-52570238D01*
X38961714Y-52622619D01*
X38833142Y-52622619D01*
X38747428Y-52570238D01*
X38704571Y-52517857D01*
X38361714Y-51889285D02*
X38147428Y-52622619D01*
X37933142Y-51889285D02*
X38147428Y-52622619D01*
X38233142Y-52884523D01*
X38276000Y-52936904D01*
X38361714Y-52989285D01*
X37033142Y-51522619D02*
X36518857Y-51522619D01*
X36776000Y-52622619D02*
X36776000Y-51522619D01*
X35833142Y-51889285D02*
X35833142Y-52622619D01*
X36218857Y-51889285D02*
X36218857Y-52465476D01*
X36176000Y-52570238D01*
X36090285Y-52622619D01*
X35961714Y-52622619D01*
X35876000Y-52570238D01*
X35833142Y-52517857D01*
X35404571Y-52622619D02*
X35404571Y-51889285D01*
X35404571Y-52098809D02*
X35361714Y-51994047D01*
X35318857Y-51941666D01*
X35233142Y-51889285D01*
X35147428Y-51889285D01*
X34461714Y-52570238D02*
X34547428Y-52622619D01*
X34718857Y-52622619D01*
X34804571Y-52570238D01*
X34847428Y-52517857D01*
X34890285Y-52413095D01*
X34890285Y-52098809D01*
X34847428Y-51994047D01*
X34804571Y-51941666D01*
X34718857Y-51889285D01*
X34547428Y-51889285D01*
X34461714Y-51941666D01*
X33947428Y-52622619D02*
X34033142Y-52570238D01*
X34076000Y-52517857D01*
X34118857Y-52413095D01*
X34118857Y-52098809D01*
X34076000Y-51994047D01*
X34033142Y-51941666D01*
X33947428Y-51889285D01*
X33818857Y-51889285D01*
X33733142Y-51941666D01*
X33690285Y-51994047D01*
X33647428Y-52098809D01*
X33647428Y-52413095D01*
X33690285Y-52517857D01*
X33733142Y-52570238D01*
X33818857Y-52622619D01*
X33947428Y-52622619D01*
X33390285Y-51889285D02*
X33047428Y-51889285D01*
X33261714Y-51522619D02*
X33261714Y-52465476D01*
X33218857Y-52570238D01*
X33133142Y-52622619D01*
X33047428Y-52622619D01*
X32876000Y-51889285D02*
X32533142Y-51889285D01*
X32747428Y-51522619D02*
X32747428Y-52465476D01*
X32704571Y-52570238D01*
X32618857Y-52622619D01*
X32533142Y-52622619D01*
X31890285Y-52570238D02*
X31976000Y-52622619D01*
X32147428Y-52622619D01*
X32233142Y-52570238D01*
X32276000Y-52465476D01*
X32276000Y-52046428D01*
X32233142Y-51941666D01*
X32147428Y-51889285D01*
X31976000Y-51889285D01*
X31890285Y-51941666D01*
X31847428Y-52046428D01*
X31847428Y-52151190D01*
X32276000Y-52255952D01*
D11*
G04 #@! TO.C,C2*
X51523000Y-29853000D02*
X51523000Y-30853000D01*
X49823000Y-30853000D02*
X49823000Y-29853000D01*
G04 #@! TO.C,C3*
X41490000Y-27460000D02*
X41490000Y-28460000D01*
X39790000Y-28460000D02*
X39790000Y-27460000D01*
G04 #@! TO.C,C4*
X48760000Y-47840000D02*
X47760000Y-47840000D01*
X47760000Y-46140000D02*
X48760000Y-46140000D01*
G04 #@! TO.C,C5*
X37680000Y-26190000D02*
X37680000Y-27190000D01*
X35980000Y-27190000D02*
X35980000Y-26190000D01*
G04 #@! TO.C,C7*
X46140000Y-37330000D02*
X46140000Y-36330000D01*
X47840000Y-36330000D02*
X47840000Y-37330000D01*
G04 #@! TO.C,R7*
X52950000Y-38700000D02*
X52950000Y-37500000D01*
X51190000Y-37500000D02*
X51190000Y-38700000D01*
G04 #@! TO.C,R8*
X52587000Y-29245000D02*
X52587000Y-30445000D01*
X54347000Y-30445000D02*
X54347000Y-29245000D01*
G04 #@! TO.C,R9*
X54220000Y-46240000D02*
X54220000Y-45040000D01*
X52460000Y-45040000D02*
X52460000Y-46240000D01*
G04 #@! TO.C,R10*
X33410000Y-20910000D02*
X33410000Y-22110000D01*
X35170000Y-22110000D02*
X35170000Y-20910000D01*
G04 #@! TO.C,R11*
X35170000Y-27190000D02*
X35170000Y-25990000D01*
X33410000Y-25990000D02*
X33410000Y-27190000D01*
D12*
G04 #@! TO.C,U2*
X47795000Y-24785000D02*
X49170000Y-24785000D01*
X47795000Y-33660000D02*
X43645000Y-33660000D01*
X47795000Y-24760000D02*
X43645000Y-24760000D01*
X47795000Y-33660000D02*
X47795000Y-33545000D01*
X43645000Y-33660000D02*
X43645000Y-33545000D01*
X43645000Y-24760000D02*
X43645000Y-24875000D01*
X47795000Y-24760000D02*
X47795000Y-24785000D01*
D11*
G04 #@! TO.C,Q1*
X53068000Y-24267000D02*
X53068000Y-25197000D01*
X53068000Y-27427000D02*
X53068000Y-26497000D01*
X53068000Y-27427000D02*
X50908000Y-27427000D01*
X53068000Y-24267000D02*
X51608000Y-24267000D01*
G04 #@! TO.C,C2*
D12*
X50839666Y-33758142D02*
X50887285Y-33805761D01*
X51030142Y-33853380D01*
X51125380Y-33853380D01*
X51268238Y-33805761D01*
X51363476Y-33710523D01*
X51411095Y-33615285D01*
X51458714Y-33424809D01*
X51458714Y-33281952D01*
X51411095Y-33091476D01*
X51363476Y-32996238D01*
X51268238Y-32901000D01*
X51125380Y-32853380D01*
X51030142Y-32853380D01*
X50887285Y-32901000D01*
X50839666Y-32948619D01*
X50458714Y-32948619D02*
X50411095Y-32901000D01*
X50315857Y-32853380D01*
X50077761Y-32853380D01*
X49982523Y-32901000D01*
X49934904Y-32948619D01*
X49887285Y-33043857D01*
X49887285Y-33139095D01*
X49934904Y-33281952D01*
X50506333Y-33853380D01*
X49887285Y-33853380D01*
G04 #@! TO.C,C3*
X40806666Y-31472142D02*
X40854285Y-31519761D01*
X40997142Y-31567380D01*
X41092380Y-31567380D01*
X41235238Y-31519761D01*
X41330476Y-31424523D01*
X41378095Y-31329285D01*
X41425714Y-31138809D01*
X41425714Y-30995952D01*
X41378095Y-30805476D01*
X41330476Y-30710238D01*
X41235238Y-30615000D01*
X41092380Y-30567380D01*
X40997142Y-30567380D01*
X40854285Y-30615000D01*
X40806666Y-30662619D01*
X40473333Y-30567380D02*
X39854285Y-30567380D01*
X40187619Y-30948333D01*
X40044761Y-30948333D01*
X39949523Y-30995952D01*
X39901904Y-31043571D01*
X39854285Y-31138809D01*
X39854285Y-31376904D01*
X39901904Y-31472142D01*
X39949523Y-31519761D01*
X40044761Y-31567380D01*
X40330476Y-31567380D01*
X40425714Y-31519761D01*
X40473333Y-31472142D01*
G04 #@! TO.C,C4*
X48426666Y-49097142D02*
X48474285Y-49144761D01*
X48617142Y-49192380D01*
X48712380Y-49192380D01*
X48855238Y-49144761D01*
X48950476Y-49049523D01*
X48998095Y-48954285D01*
X49045714Y-48763809D01*
X49045714Y-48620952D01*
X48998095Y-48430476D01*
X48950476Y-48335238D01*
X48855238Y-48240000D01*
X48712380Y-48192380D01*
X48617142Y-48192380D01*
X48474285Y-48240000D01*
X48426666Y-48287619D01*
X47569523Y-48525714D02*
X47569523Y-49192380D01*
X47807619Y-48144761D02*
X48045714Y-48859047D01*
X47426666Y-48859047D01*
G04 #@! TO.C,C5*
X36996666Y-30329142D02*
X37044285Y-30376761D01*
X37187142Y-30424380D01*
X37282380Y-30424380D01*
X37425238Y-30376761D01*
X37520476Y-30281523D01*
X37568095Y-30186285D01*
X37615714Y-29995809D01*
X37615714Y-29852952D01*
X37568095Y-29662476D01*
X37520476Y-29567238D01*
X37425238Y-29472000D01*
X37282380Y-29424380D01*
X37187142Y-29424380D01*
X37044285Y-29472000D01*
X36996666Y-29519619D01*
X36091904Y-29424380D02*
X36568095Y-29424380D01*
X36615714Y-29900571D01*
X36568095Y-29852952D01*
X36472857Y-29805333D01*
X36234761Y-29805333D01*
X36139523Y-29852952D01*
X36091904Y-29900571D01*
X36044285Y-29995809D01*
X36044285Y-30233904D01*
X36091904Y-30329142D01*
X36139523Y-30376761D01*
X36234761Y-30424380D01*
X36472857Y-30424380D01*
X36568095Y-30376761D01*
X36615714Y-30329142D01*
G04 #@! TO.C,C7*
X47156666Y-40362142D02*
X47204285Y-40409761D01*
X47347142Y-40457380D01*
X47442380Y-40457380D01*
X47585238Y-40409761D01*
X47680476Y-40314523D01*
X47728095Y-40219285D01*
X47775714Y-40028809D01*
X47775714Y-39885952D01*
X47728095Y-39695476D01*
X47680476Y-39600238D01*
X47585238Y-39505000D01*
X47442380Y-39457380D01*
X47347142Y-39457380D01*
X47204285Y-39505000D01*
X47156666Y-39552619D01*
X46823333Y-39457380D02*
X46156666Y-39457380D01*
X46585238Y-40457380D01*
G04 #@! TO.C,R7*
X52236666Y-41854380D02*
X52570000Y-41378190D01*
X52808095Y-41854380D02*
X52808095Y-40854380D01*
X52427142Y-40854380D01*
X52331904Y-40902000D01*
X52284285Y-40949619D01*
X52236666Y-41044857D01*
X52236666Y-41187714D01*
X52284285Y-41282952D01*
X52331904Y-41330571D01*
X52427142Y-41378190D01*
X52808095Y-41378190D01*
X51903333Y-40854380D02*
X51236666Y-40854380D01*
X51665238Y-41854380D01*
G04 #@! TO.C,R8*
X53633666Y-33472380D02*
X53967000Y-32996190D01*
X54205095Y-33472380D02*
X54205095Y-32472380D01*
X53824142Y-32472380D01*
X53728904Y-32520000D01*
X53681285Y-32567619D01*
X53633666Y-32662857D01*
X53633666Y-32805714D01*
X53681285Y-32900952D01*
X53728904Y-32948571D01*
X53824142Y-32996190D01*
X54205095Y-32996190D01*
X53062238Y-32900952D02*
X53157476Y-32853333D01*
X53205095Y-32805714D01*
X53252714Y-32710476D01*
X53252714Y-32662857D01*
X53205095Y-32567619D01*
X53157476Y-32520000D01*
X53062238Y-32472380D01*
X52871761Y-32472380D01*
X52776523Y-32520000D01*
X52728904Y-32567619D01*
X52681285Y-32662857D01*
X52681285Y-32710476D01*
X52728904Y-32805714D01*
X52776523Y-32853333D01*
X52871761Y-32900952D01*
X53062238Y-32900952D01*
X53157476Y-32948571D01*
X53205095Y-32996190D01*
X53252714Y-33091428D01*
X53252714Y-33281904D01*
X53205095Y-33377142D01*
X53157476Y-33424761D01*
X53062238Y-33472380D01*
X52871761Y-33472380D01*
X52776523Y-33424761D01*
X52728904Y-33377142D01*
X52681285Y-33281904D01*
X52681285Y-33091428D01*
X52728904Y-32996190D01*
X52776523Y-32948571D01*
X52871761Y-32900952D01*
G04 #@! TO.C,R9*
X53506666Y-49347380D02*
X53840000Y-48871190D01*
X54078095Y-49347380D02*
X54078095Y-48347380D01*
X53697142Y-48347380D01*
X53601904Y-48395000D01*
X53554285Y-48442619D01*
X53506666Y-48537857D01*
X53506666Y-48680714D01*
X53554285Y-48775952D01*
X53601904Y-48823571D01*
X53697142Y-48871190D01*
X54078095Y-48871190D01*
X53030476Y-49347380D02*
X52840000Y-49347380D01*
X52744761Y-49299761D01*
X52697142Y-49252142D01*
X52601904Y-49109285D01*
X52554285Y-48918809D01*
X52554285Y-48537857D01*
X52601904Y-48442619D01*
X52649523Y-48395000D01*
X52744761Y-48347380D01*
X52935238Y-48347380D01*
X53030476Y-48395000D01*
X53078095Y-48442619D01*
X53125714Y-48537857D01*
X53125714Y-48775952D01*
X53078095Y-48871190D01*
X53030476Y-48918809D01*
X52935238Y-48966428D01*
X52744761Y-48966428D01*
X52649523Y-48918809D01*
X52601904Y-48871190D01*
X52554285Y-48775952D01*
G04 #@! TO.C,R10*
X33042380Y-20867142D02*
X32566190Y-20533809D01*
X33042380Y-20295714D02*
X32042380Y-20295714D01*
X32042380Y-20676666D01*
X32090000Y-20771904D01*
X32137619Y-20819523D01*
X32232857Y-20867142D01*
X32375714Y-20867142D01*
X32470952Y-20819523D01*
X32518571Y-20771904D01*
X32566190Y-20676666D01*
X32566190Y-20295714D01*
X33042380Y-21819523D02*
X33042380Y-21248095D01*
X33042380Y-21533809D02*
X32042380Y-21533809D01*
X32185238Y-21438571D01*
X32280476Y-21343333D01*
X32328095Y-21248095D01*
X32042380Y-22438571D02*
X32042380Y-22533809D01*
X32090000Y-22629047D01*
X32137619Y-22676666D01*
X32232857Y-22724285D01*
X32423333Y-22771904D01*
X32661428Y-22771904D01*
X32851904Y-22724285D01*
X32947142Y-22676666D01*
X32994761Y-22629047D01*
X33042380Y-22533809D01*
X33042380Y-22438571D01*
X32994761Y-22343333D01*
X32947142Y-22295714D01*
X32851904Y-22248095D01*
X32661428Y-22200476D01*
X32423333Y-22200476D01*
X32232857Y-22248095D01*
X32137619Y-22295714D01*
X32090000Y-22343333D01*
X32042380Y-22438571D01*
G04 #@! TO.C,R11*
X33042380Y-25947142D02*
X32566190Y-25613809D01*
X33042380Y-25375714D02*
X32042380Y-25375714D01*
X32042380Y-25756666D01*
X32090000Y-25851904D01*
X32137619Y-25899523D01*
X32232857Y-25947142D01*
X32375714Y-25947142D01*
X32470952Y-25899523D01*
X32518571Y-25851904D01*
X32566190Y-25756666D01*
X32566190Y-25375714D01*
X33042380Y-26899523D02*
X33042380Y-26328095D01*
X33042380Y-26613809D02*
X32042380Y-26613809D01*
X32185238Y-26518571D01*
X32280476Y-26423333D01*
X32328095Y-26328095D01*
X33042380Y-27851904D02*
X33042380Y-27280476D01*
X33042380Y-27566190D02*
X32042380Y-27566190D01*
X32185238Y-27470952D01*
X32280476Y-27375714D01*
X32328095Y-27280476D01*
G04 #@! TO.C,U2*
X46481904Y-23287380D02*
X46481904Y-24096904D01*
X46434285Y-24192142D01*
X46386666Y-24239761D01*
X46291428Y-24287380D01*
X46100952Y-24287380D01*
X46005714Y-24239761D01*
X45958095Y-24192142D01*
X45910476Y-24096904D01*
X45910476Y-23287380D01*
X45481904Y-23382619D02*
X45434285Y-23335000D01*
X45339047Y-23287380D01*
X45100952Y-23287380D01*
X45005714Y-23335000D01*
X44958095Y-23382619D01*
X44910476Y-23477857D01*
X44910476Y-23573095D01*
X44958095Y-23715952D01*
X45529523Y-24287380D01*
X44910476Y-24287380D01*
G04 #@! TO.C,Q1*
X53927238Y-24616619D02*
X54022476Y-24569000D01*
X54117714Y-24473761D01*
X54260571Y-24330904D01*
X54355809Y-24283285D01*
X54451047Y-24283285D01*
X54403428Y-24521380D02*
X54498666Y-24473761D01*
X54593904Y-24378523D01*
X54641523Y-24188047D01*
X54641523Y-23854714D01*
X54593904Y-23664238D01*
X54498666Y-23569000D01*
X54403428Y-23521380D01*
X54212952Y-23521380D01*
X54117714Y-23569000D01*
X54022476Y-23664238D01*
X53974857Y-23854714D01*
X53974857Y-24188047D01*
X54022476Y-24378523D01*
X54117714Y-24473761D01*
X54212952Y-24521380D01*
X54403428Y-24521380D01*
X53022476Y-24521380D02*
X53593904Y-24521380D01*
X53308190Y-24521380D02*
X53308190Y-23521380D01*
X53403428Y-23664238D01*
X53498666Y-23759476D01*
X53593904Y-23807095D01*
G04 #@! TD*
M02*
