G04 #@! TF.GenerationSoftware,KiCad,Pcbnew,(5.0.1-3-g963ef8bb5)*
G04 #@! TF.CreationDate,2019-01-23T22:51:25-05:00*
G04 #@! TF.ProjectId,WaterSpill,57617465725370696C6C2E6B69636164,rev?*
G04 #@! TF.SameCoordinates,Original*
G04 #@! TF.FileFunction,Copper,L2,Bot,Signal*
G04 #@! TF.FilePolarity,Positive*
%FSLAX46Y46*%
G04 Gerber Fmt 4.6, Leading zero omitted, Abs format (unit mm)*
G04 Created by KiCad (PCBNEW (5.0.1-3-g963ef8bb5)) date Wednesday, January 23, 2019 at 10:51:25 pm*
%MOMM*%
%LPD*%
G01*
G04 APERTURE LIST*
G04 #@! TA.AperFunction,ComponentPad*
%ADD10O,1.700000X1.700000*%
G04 #@! TD*
G04 #@! TA.AperFunction,ComponentPad*
%ADD11R,1.700000X1.700000*%
G04 #@! TD*
G04 #@! TA.AperFunction,SMDPad,CuDef*
%ADD12R,1.250000X1.500000*%
G04 #@! TD*
G04 #@! TA.AperFunction,SMDPad,CuDef*
%ADD13R,1.500000X1.250000*%
G04 #@! TD*
G04 #@! TA.AperFunction,SMDPad,CuDef*
%ADD14R,1.300000X1.500000*%
G04 #@! TD*
G04 #@! TA.AperFunction,SMDPad,CuDef*
%ADD15R,1.500000X0.600000*%
G04 #@! TD*
G04 #@! TA.AperFunction,SMDPad,CuDef*
%ADD16R,0.900000X0.800000*%
G04 #@! TD*
G04 #@! TA.AperFunction,ViaPad*
%ADD17C,0.800000*%
G04 #@! TD*
G04 #@! TA.AperFunction,Conductor*
%ADD18C,0.350000*%
G04 #@! TD*
G04 #@! TA.AperFunction,Conductor*
%ADD19C,0.250000*%
G04 #@! TD*
G04 #@! TA.AperFunction,Conductor*
%ADD20C,0.254000*%
G04 #@! TD*
G04 APERTURE END LIST*
D10*
G04 #@! TO.P,BT1,2*
G04 #@! TO.N,GND*
X30480000Y-45720000D03*
D11*
G04 #@! TO.P,BT1,1*
G04 #@! TO.N,VCC*
X30480000Y-43180000D03*
G04 #@! TD*
D12*
G04 #@! TO.P,C2,1*
G04 #@! TO.N,Net-(C2-Pad1)*
X50673000Y-31603000D03*
G04 #@! TO.P,C2,2*
G04 #@! TO.N,GPIO_14*
X50673000Y-29103000D03*
G04 #@! TD*
G04 #@! TO.P,C3,2*
G04 #@! TO.N,GND*
X40640000Y-29210000D03*
G04 #@! TO.P,C3,1*
G04 #@! TO.N,VCC*
X40640000Y-26710000D03*
G04 #@! TD*
D13*
G04 #@! TO.P,C4,1*
G04 #@! TO.N,VCC*
X47010000Y-46990000D03*
G04 #@! TO.P,C4,2*
G04 #@! TO.N,GND*
X49510000Y-46990000D03*
G04 #@! TD*
D12*
G04 #@! TO.P,C5,2*
G04 #@! TO.N,GND*
X36830000Y-27940000D03*
G04 #@! TO.P,C5,1*
G04 #@! TO.N,ADC*
X36830000Y-25440000D03*
G04 #@! TD*
G04 #@! TO.P,C7,1*
G04 #@! TO.N,GND*
X46990000Y-35580000D03*
G04 #@! TO.P,C7,2*
G04 #@! TO.N,VCC*
X46990000Y-38080000D03*
G04 #@! TD*
D10*
G04 #@! TO.P,J1,3*
G04 #@! TO.N,TXD*
X57150000Y-30480000D03*
G04 #@! TO.P,J1,2*
G04 #@! TO.N,Net-(D1-Pad1)*
X57150000Y-27940000D03*
D11*
G04 #@! TO.P,J1,1*
G04 #@! TO.N,GND*
X57150000Y-25400000D03*
G04 #@! TD*
D10*
G04 #@! TO.P,J2,2*
G04 #@! TO.N,GND*
X57150000Y-45720000D03*
D11*
G04 #@! TO.P,J2,1*
G04 #@! TO.N,Net-(J2-Pad1)*
X57150000Y-43180000D03*
G04 #@! TD*
D10*
G04 #@! TO.P,J3,3*
G04 #@! TO.N,Net-(J3-Pad3)*
X30480000Y-25400000D03*
G04 #@! TO.P,J3,2*
G04 #@! TO.N,ADC*
X30480000Y-22860000D03*
D11*
G04 #@! TO.P,J3,1*
G04 #@! TO.N,GND*
X30480000Y-20320000D03*
G04 #@! TD*
G04 #@! TO.P,J4,1*
G04 #@! TO.N,RESET*
X30480000Y-31750000D03*
D10*
G04 #@! TO.P,J4,2*
G04 #@! TO.N,GPIO_16*
X30480000Y-34290000D03*
G04 #@! TO.P,J4,3*
G04 #@! TO.N,Net-(J4-Pad3)*
X30480000Y-36830000D03*
G04 #@! TD*
D11*
G04 #@! TO.P,J5,1*
G04 #@! TO.N,Net-(J5-Pad1)*
X57150000Y-35560000D03*
D10*
G04 #@! TO.P,J5,2*
G04 #@! TO.N,Net-(J2-Pad1)*
X57150000Y-38100000D03*
G04 #@! TD*
D14*
G04 #@! TO.P,R7,2*
G04 #@! TO.N,Net-(J5-Pad1)*
X52070000Y-36750000D03*
G04 #@! TO.P,R7,1*
G04 #@! TO.N,VCC*
X52070000Y-39450000D03*
G04 #@! TD*
G04 #@! TO.P,R8,1*
G04 #@! TO.N,Net-(J2-Pad1)*
X53467000Y-31195000D03*
G04 #@! TO.P,R8,2*
G04 #@! TO.N,Net-(Q1-Pad1)*
X53467000Y-28495000D03*
G04 #@! TD*
G04 #@! TO.P,R9,1*
G04 #@! TO.N,Net-(C2-Pad1)*
X53340000Y-44290000D03*
G04 #@! TO.P,R9,2*
G04 #@! TO.N,GND*
X53340000Y-46990000D03*
G04 #@! TD*
G04 #@! TO.P,R10,2*
G04 #@! TO.N,ADC*
X34290000Y-22860000D03*
G04 #@! TO.P,R10,1*
G04 #@! TO.N,Net-(J3-Pad3)*
X34290000Y-20160000D03*
G04 #@! TD*
G04 #@! TO.P,R11,1*
G04 #@! TO.N,ADC*
X34290000Y-25240000D03*
G04 #@! TO.P,R11,2*
G04 #@! TO.N,GND*
X34290000Y-27940000D03*
G04 #@! TD*
D15*
G04 #@! TO.P,U2,14*
G04 #@! TO.N,VCC*
X43020000Y-25400000D03*
G04 #@! TO.P,U2,13*
G04 #@! TO.N,Net-(U2-Pad13)*
X43020000Y-26670000D03*
G04 #@! TO.P,U2,12*
G04 #@! TO.N,Net-(J4-Pad3)*
X43020000Y-27940000D03*
G04 #@! TO.P,U2,11*
G04 #@! TO.N,Net-(U2-Pad10)*
X43020000Y-29210000D03*
G04 #@! TO.P,U2,10*
X43020000Y-30480000D03*
G04 #@! TO.P,U2,9*
X43020000Y-31750000D03*
G04 #@! TO.P,U2,8*
G04 #@! TO.N,RESET*
X43020000Y-33020000D03*
G04 #@! TO.P,U2,7*
G04 #@! TO.N,GND*
X48420000Y-33020000D03*
G04 #@! TO.P,U2,6*
G04 #@! TO.N,Net-(U2-Pad13)*
X48420000Y-31750000D03*
G04 #@! TO.P,U2,5*
G04 #@! TO.N,Net-(C2-Pad1)*
X48420000Y-30480000D03*
G04 #@! TO.P,U2,4*
X48420000Y-29210000D03*
G04 #@! TO.P,U2,3*
G04 #@! TO.N,GPIO_14*
X48420000Y-27940000D03*
G04 #@! TO.P,U2,2*
G04 #@! TO.N,Net-(J5-Pad1)*
X48420000Y-26670000D03*
G04 #@! TO.P,U2,1*
X48420000Y-25400000D03*
G04 #@! TD*
D16*
G04 #@! TO.P,Q1,1*
G04 #@! TO.N,Net-(Q1-Pad1)*
X51308000Y-26797000D03*
G04 #@! TO.P,Q1,2*
G04 #@! TO.N,GND*
X51308000Y-24897000D03*
G04 #@! TO.P,Q1,3*
G04 #@! TO.N,Net-(J5-Pad1)*
X53308000Y-25847000D03*
G04 #@! TD*
D17*
G04 #@! TO.N,GND*
X40132000Y-50800000D03*
X35941000Y-18161000D03*
X31750000Y-29210000D03*
X55245000Y-31369000D03*
X55245000Y-39370000D03*
G04 #@! TO.N,VCC*
X45085000Y-38100000D03*
X46990000Y-44958000D03*
X52070000Y-42291000D03*
X45720000Y-24384000D03*
G04 #@! TO.N,Net-(C1-Pad1)*
X33655000Y-32766000D03*
X33528000Y-41910000D03*
G04 #@! TO.N,GPIO_14*
X46609000Y-27940000D03*
G04 #@! TO.N,ADC*
X39370000Y-25146000D03*
G04 #@! TO.N,RESET*
X44958000Y-31623000D03*
G04 #@! TO.N,GPIO_16*
X43053000Y-38608000D03*
X40005000Y-31369000D03*
G04 #@! TO.N,Net-(U2-Pad13)*
X44323000Y-26670000D03*
X46826000Y-31496000D03*
G04 #@! TD*
D18*
G04 #@! TO.N,GND*
X40640000Y-30210000D02*
X41164000Y-30734000D01*
X40640000Y-29210000D02*
X40640000Y-30210000D01*
G04 #@! TO.N,VCC*
X45105000Y-38080000D02*
X45085000Y-38100000D01*
X46990000Y-38080000D02*
X45105000Y-38080000D01*
X47010000Y-44978000D02*
X46990000Y-44958000D01*
X47010000Y-46990000D02*
X47010000Y-44978000D01*
X52070000Y-39450000D02*
X52070000Y-42291000D01*
X49657000Y-42291000D02*
X52070000Y-42291000D01*
X46990000Y-44958000D02*
X49657000Y-42291000D01*
X46990000Y-39080000D02*
X49657000Y-41747000D01*
X46990000Y-38080000D02*
X46990000Y-39080000D01*
X49657000Y-41747000D02*
X49657000Y-42291000D01*
X40640000Y-26710000D02*
X40640000Y-26416000D01*
X41656000Y-25400000D02*
X43020000Y-25400000D01*
X40640000Y-26416000D02*
X41656000Y-25400000D01*
X44020000Y-25400000D02*
X45036000Y-24384000D01*
X43020000Y-25400000D02*
X44020000Y-25400000D01*
X45036000Y-24384000D02*
X45720000Y-24384000D01*
D19*
G04 #@! TO.N,Net-(C1-Pad1)*
X33655000Y-41783000D02*
X33528000Y-41910000D01*
X33655000Y-32766000D02*
X33655000Y-41783000D01*
G04 #@! TO.N,Net-(C2-Pad1)*
X48420000Y-29210000D02*
X48420000Y-30480000D01*
X50673000Y-31478000D02*
X50673000Y-31603000D01*
X49675000Y-30480000D02*
X50673000Y-31478000D01*
X48420000Y-30480000D02*
X49675000Y-30480000D01*
X53340000Y-43290000D02*
X53848000Y-42782000D01*
X53340000Y-44290000D02*
X53340000Y-43290000D01*
X53848000Y-42782000D02*
X53848000Y-38862000D01*
X53848000Y-38862000D02*
X53086000Y-38100000D01*
X53086000Y-38100000D02*
X51435000Y-38100000D01*
X51435000Y-38100000D02*
X50673000Y-37338000D01*
X50673000Y-37338000D02*
X50673000Y-31603000D01*
G04 #@! TO.N,GPIO_14*
X48420000Y-27940000D02*
X46609000Y-27940000D01*
X50673000Y-28978000D02*
X50673000Y-29103000D01*
X49635000Y-27940000D02*
X50673000Y-28978000D01*
X48420000Y-27940000D02*
X49635000Y-27940000D01*
G04 #@! TO.N,ADC*
X30480000Y-22860000D02*
X34290000Y-22860000D01*
X34290000Y-22860000D02*
X34290000Y-25240000D01*
X36630000Y-25240000D02*
X36830000Y-25440000D01*
X34290000Y-25240000D02*
X36630000Y-25240000D01*
X37124000Y-25146000D02*
X36830000Y-25440000D01*
X39370000Y-25146000D02*
X37124000Y-25146000D01*
G04 #@! TO.N,Net-(J2-Pad1)*
X53467000Y-32258000D02*
X53467000Y-31195000D01*
X58293000Y-33020000D02*
X54229000Y-33020000D01*
X54229000Y-33020000D02*
X53467000Y-32258000D01*
X58801000Y-33528000D02*
X58293000Y-33020000D01*
X58801000Y-36449000D02*
X58801000Y-33528000D01*
X57150000Y-38100000D02*
X58801000Y-36449000D01*
G04 #@! TO.N,Net-(J3-Pad3)*
X34290000Y-19160000D02*
X34290000Y-20160000D01*
X30480000Y-25400000D02*
X29277919Y-25400000D01*
X29574000Y-18525000D02*
X33655000Y-18525000D01*
X33655000Y-18525000D02*
X34290000Y-19160000D01*
X28922000Y-19177000D02*
X29574000Y-18525000D01*
X28922000Y-25044081D02*
X28922000Y-19177000D01*
X29277919Y-25400000D02*
X28922000Y-25044081D01*
G04 #@! TO.N,RESET*
X44867000Y-31623000D02*
X44958000Y-31623000D01*
X43470000Y-33020000D02*
X44867000Y-31623000D01*
X43020000Y-33020000D02*
X43470000Y-33020000D01*
G04 #@! TO.N,GPIO_16*
X42653001Y-38208001D02*
X40785999Y-38208001D01*
X43053000Y-38608000D02*
X42653001Y-38208001D01*
X40785999Y-38208001D02*
X40042998Y-37465000D01*
X40042998Y-31406998D02*
X40005000Y-31369000D01*
X40042998Y-37465000D02*
X40042998Y-31406998D01*
G04 #@! TO.N,Net-(J4-Pad3)*
X32258000Y-31750000D02*
X32258000Y-35052000D01*
X32258000Y-35052000D02*
X30480000Y-36830000D01*
X37719000Y-30353000D02*
X33655000Y-30353000D01*
X38735000Y-28575000D02*
X38735000Y-29337000D01*
X33655000Y-30353000D02*
X32258000Y-31750000D01*
X39370000Y-27940000D02*
X38735000Y-28575000D01*
X38735000Y-29337000D02*
X37719000Y-30353000D01*
X43020000Y-27940000D02*
X39370000Y-27940000D01*
G04 #@! TO.N,Net-(J5-Pad1)*
X48420000Y-25400000D02*
X48420000Y-26670000D01*
X52070000Y-36650000D02*
X52070000Y-36750000D01*
X53160000Y-35560000D02*
X52070000Y-36650000D01*
X57150000Y-35560000D02*
X53160000Y-35560000D01*
X53160000Y-34364000D02*
X53160000Y-35560000D01*
X52197000Y-33401000D02*
X53160000Y-34364000D01*
X52197000Y-33401000D02*
X52197000Y-28321000D01*
X52197000Y-28321000D02*
X51689000Y-27813000D01*
X49420000Y-26670000D02*
X48420000Y-26670000D01*
X50563000Y-27813000D02*
X49420000Y-26670000D01*
X51689000Y-27813000D02*
X50563000Y-27813000D01*
X50033000Y-25400000D02*
X48420000Y-25400000D01*
X50480000Y-25847000D02*
X50033000Y-25400000D01*
X53308000Y-25847000D02*
X50480000Y-25847000D01*
G04 #@! TO.N,Net-(U2-Pad13)*
X43020000Y-26670000D02*
X44323000Y-26670000D01*
X44323000Y-26670000D02*
X44323000Y-26670000D01*
X48420000Y-31750000D02*
X46990000Y-31750000D01*
X46826000Y-31586000D02*
X46826000Y-31496000D01*
X46990000Y-31750000D02*
X46826000Y-31586000D01*
G04 #@! TO.N,Net-(U2-Pad10)*
X43020000Y-29210000D02*
X43020000Y-30480000D01*
X43020000Y-31750000D02*
X43020000Y-30480000D01*
G04 #@! TO.N,Net-(Q1-Pad1)*
X53467000Y-28395000D02*
X53467000Y-28495000D01*
X51869000Y-26797000D02*
X53467000Y-28395000D01*
X51308000Y-26797000D02*
X51869000Y-26797000D01*
G04 #@! TD*
D20*
G04 #@! TO.N,GND*
G36*
X33041843Y-23857765D02*
X33170291Y-24050000D01*
X33041843Y-24242235D01*
X32992560Y-24490000D01*
X32992560Y-25990000D01*
X33041843Y-26237765D01*
X33182191Y-26447809D01*
X33392235Y-26588157D01*
X33420209Y-26593721D01*
X33280301Y-26651673D01*
X33101673Y-26830302D01*
X33005000Y-27063691D01*
X33005000Y-27654250D01*
X33163750Y-27813000D01*
X34163000Y-27813000D01*
X34163000Y-27793000D01*
X34417000Y-27793000D01*
X34417000Y-27813000D01*
X35416250Y-27813000D01*
X35572500Y-27656750D01*
X35728750Y-27813000D01*
X36703000Y-27813000D01*
X36703000Y-27793000D01*
X36957000Y-27793000D01*
X36957000Y-27813000D01*
X37931250Y-27813000D01*
X38090000Y-27654250D01*
X38090000Y-27063691D01*
X37993327Y-26830302D01*
X37851680Y-26688654D01*
X37912809Y-26647809D01*
X38053157Y-26437765D01*
X38102440Y-26190000D01*
X38102440Y-25906000D01*
X38666289Y-25906000D01*
X38783720Y-26023431D01*
X39164126Y-26181000D01*
X39367560Y-26181000D01*
X39367560Y-27165597D01*
X39295152Y-27180000D01*
X39295148Y-27180000D01*
X39073463Y-27224096D01*
X38822071Y-27392071D01*
X38779671Y-27455527D01*
X38250530Y-27984669D01*
X38187071Y-28027071D01*
X38068610Y-28204360D01*
X37931250Y-28067000D01*
X36957000Y-28067000D01*
X36957000Y-29166250D01*
X37115750Y-29325000D01*
X37581310Y-29325000D01*
X37736466Y-29260732D01*
X37404199Y-29593000D01*
X33729846Y-29593000D01*
X33654999Y-29578112D01*
X33580152Y-29593000D01*
X33580148Y-29593000D01*
X33358463Y-29637096D01*
X33295902Y-29678898D01*
X33170526Y-29762671D01*
X33170524Y-29762673D01*
X33107071Y-29805071D01*
X33064673Y-29868524D01*
X31977440Y-30955759D01*
X31977440Y-30900000D01*
X31928157Y-30652235D01*
X31787809Y-30442191D01*
X31577765Y-30301843D01*
X31330000Y-30252560D01*
X29630000Y-30252560D01*
X29382235Y-30301843D01*
X29172191Y-30442191D01*
X29031843Y-30652235D01*
X28982560Y-30900000D01*
X28982560Y-32600000D01*
X29031843Y-32847765D01*
X29172191Y-33057809D01*
X29382235Y-33198157D01*
X29427619Y-33207184D01*
X29409375Y-33219375D01*
X29081161Y-33710582D01*
X28965908Y-34290000D01*
X29081161Y-34869418D01*
X29409375Y-35360625D01*
X29707761Y-35560000D01*
X29409375Y-35759375D01*
X29081161Y-36250582D01*
X28965908Y-36830000D01*
X29081161Y-37409418D01*
X29409375Y-37900625D01*
X29900582Y-38228839D01*
X30333744Y-38315000D01*
X30626256Y-38315000D01*
X31059418Y-38228839D01*
X31550625Y-37900625D01*
X31878839Y-37409418D01*
X31994092Y-36830000D01*
X31921209Y-36463592D01*
X32742473Y-35642329D01*
X32805929Y-35599929D01*
X32895000Y-35466625D01*
X32895001Y-41079288D01*
X32650569Y-41323720D01*
X32493000Y-41704126D01*
X32493000Y-42115874D01*
X32650569Y-42496280D01*
X32941720Y-42787431D01*
X33322126Y-42945000D01*
X33733874Y-42945000D01*
X34114280Y-42787431D01*
X34405431Y-42496280D01*
X34563000Y-42115874D01*
X34563000Y-41704126D01*
X34415000Y-41346822D01*
X34415000Y-33469711D01*
X34532431Y-33352280D01*
X34690000Y-32971874D01*
X34690000Y-32560126D01*
X34532431Y-32179720D01*
X34241280Y-31888569D01*
X33860874Y-31731000D01*
X33449126Y-31731000D01*
X33282983Y-31799818D01*
X33969803Y-31113000D01*
X37644153Y-31113000D01*
X37719000Y-31127888D01*
X37793847Y-31113000D01*
X37793852Y-31113000D01*
X38015537Y-31068904D01*
X38266929Y-30900929D01*
X38309331Y-30837470D01*
X39219473Y-29927329D01*
X39282929Y-29884929D01*
X39380000Y-29739652D01*
X39380000Y-30086309D01*
X39476673Y-30319698D01*
X39581230Y-30424255D01*
X39418720Y-30491569D01*
X39127569Y-30782720D01*
X38970000Y-31163126D01*
X38970000Y-31574874D01*
X39127569Y-31955280D01*
X39282999Y-32110710D01*
X39282998Y-37390153D01*
X39268110Y-37465000D01*
X39282998Y-37539847D01*
X39282998Y-37539851D01*
X39327094Y-37761536D01*
X39495069Y-38012929D01*
X39558528Y-38055331D01*
X40195669Y-38692473D01*
X40238070Y-38755930D01*
X40489462Y-38923905D01*
X40711147Y-38968001D01*
X40711151Y-38968001D01*
X40785998Y-38982889D01*
X40860845Y-38968001D01*
X42081841Y-38968001D01*
X42175569Y-39194280D01*
X42466720Y-39485431D01*
X42847126Y-39643000D01*
X43258874Y-39643000D01*
X43639280Y-39485431D01*
X43930431Y-39194280D01*
X44088000Y-38813874D01*
X44088000Y-38402126D01*
X43930431Y-38021720D01*
X43639280Y-37730569D01*
X43258874Y-37573000D01*
X43070618Y-37573000D01*
X42949538Y-37492097D01*
X42727853Y-37448001D01*
X42727848Y-37448001D01*
X42653001Y-37433113D01*
X42578154Y-37448001D01*
X41100801Y-37448001D01*
X40802998Y-37150199D01*
X40802998Y-34703691D01*
X45730000Y-34703691D01*
X45730000Y-35294250D01*
X45888750Y-35453000D01*
X46863000Y-35453000D01*
X46863000Y-34353750D01*
X47117000Y-34353750D01*
X47117000Y-35453000D01*
X48091250Y-35453000D01*
X48250000Y-35294250D01*
X48250000Y-34703691D01*
X48153327Y-34470302D01*
X47974699Y-34291673D01*
X47741310Y-34195000D01*
X47275750Y-34195000D01*
X47117000Y-34353750D01*
X46863000Y-34353750D01*
X46704250Y-34195000D01*
X46238690Y-34195000D01*
X46005301Y-34291673D01*
X45826673Y-34470302D01*
X45730000Y-34703691D01*
X40802998Y-34703691D01*
X40802998Y-32034713D01*
X40882431Y-31955280D01*
X41040000Y-31574874D01*
X41040000Y-31163126D01*
X40882431Y-30782720D01*
X40694711Y-30595000D01*
X40767002Y-30595000D01*
X40767002Y-30436252D01*
X40925750Y-30595000D01*
X41391310Y-30595000D01*
X41622560Y-30499213D01*
X41622560Y-30780000D01*
X41671843Y-31027765D01*
X41730132Y-31115000D01*
X41671843Y-31202235D01*
X41622560Y-31450000D01*
X41622560Y-32050000D01*
X41671843Y-32297765D01*
X41730132Y-32385000D01*
X41671843Y-32472235D01*
X41622560Y-32720000D01*
X41622560Y-33320000D01*
X41671843Y-33567765D01*
X41812191Y-33777809D01*
X42022235Y-33918157D01*
X42270000Y-33967440D01*
X43770000Y-33967440D01*
X44017765Y-33918157D01*
X44227809Y-33777809D01*
X44368157Y-33567765D01*
X44417440Y-33320000D01*
X44417440Y-33305750D01*
X47035000Y-33305750D01*
X47035000Y-33446310D01*
X47131673Y-33679699D01*
X47310302Y-33858327D01*
X47543691Y-33955000D01*
X48134250Y-33955000D01*
X48293000Y-33796250D01*
X48293000Y-33147000D01*
X48547000Y-33147000D01*
X48547000Y-33796250D01*
X48705750Y-33955000D01*
X49296309Y-33955000D01*
X49529698Y-33858327D01*
X49708327Y-33679699D01*
X49805000Y-33446310D01*
X49805000Y-33305750D01*
X49646250Y-33147000D01*
X48547000Y-33147000D01*
X48293000Y-33147000D01*
X47193750Y-33147000D01*
X47035000Y-33305750D01*
X44417440Y-33305750D01*
X44417440Y-33147362D01*
X44906802Y-32658000D01*
X45163874Y-32658000D01*
X45544280Y-32500431D01*
X45835431Y-32209280D01*
X45918303Y-32009210D01*
X45948569Y-32082280D01*
X46239720Y-32373431D01*
X46620126Y-32531000D01*
X47031874Y-32531000D01*
X47066992Y-32516453D01*
X47035000Y-32593690D01*
X47035000Y-32734250D01*
X47193750Y-32893000D01*
X48293000Y-32893000D01*
X48293000Y-32873000D01*
X48547000Y-32873000D01*
X48547000Y-32893000D01*
X49646250Y-32893000D01*
X49673066Y-32866184D01*
X49800235Y-32951157D01*
X49913001Y-32973587D01*
X49913000Y-37263153D01*
X49898112Y-37338000D01*
X49913000Y-37412847D01*
X49913000Y-37412851D01*
X49957096Y-37634536D01*
X50125071Y-37885929D01*
X50188530Y-37928331D01*
X50803691Y-38543493D01*
X50772560Y-38700000D01*
X50772560Y-40200000D01*
X50821843Y-40447765D01*
X50962191Y-40657809D01*
X51172235Y-40798157D01*
X51260000Y-40815614D01*
X51260001Y-41481000D01*
X50429958Y-41481000D01*
X50420003Y-41430953D01*
X50286165Y-41230652D01*
X50240977Y-41163023D01*
X50173347Y-41117834D01*
X48181162Y-39125649D01*
X48213157Y-39077765D01*
X48262440Y-38830000D01*
X48262440Y-37330000D01*
X48213157Y-37082235D01*
X48072809Y-36872191D01*
X48011680Y-36831346D01*
X48153327Y-36689698D01*
X48250000Y-36456309D01*
X48250000Y-35865750D01*
X48091250Y-35707000D01*
X47117000Y-35707000D01*
X47117000Y-35727000D01*
X46863000Y-35727000D01*
X46863000Y-35707000D01*
X45888750Y-35707000D01*
X45730000Y-35865750D01*
X45730000Y-36456309D01*
X45826673Y-36689698D01*
X45968320Y-36831346D01*
X45907191Y-36872191D01*
X45766843Y-37082235D01*
X45729495Y-37270000D01*
X45718711Y-37270000D01*
X45671280Y-37222569D01*
X45290874Y-37065000D01*
X44879126Y-37065000D01*
X44498720Y-37222569D01*
X44207569Y-37513720D01*
X44050000Y-37894126D01*
X44050000Y-38305874D01*
X44207569Y-38686280D01*
X44498720Y-38977431D01*
X44879126Y-39135000D01*
X45290874Y-39135000D01*
X45671280Y-38977431D01*
X45734342Y-38914369D01*
X45766843Y-39077765D01*
X45907191Y-39287809D01*
X46117235Y-39428157D01*
X46268567Y-39458259D01*
X46406024Y-39663977D01*
X46473654Y-39709166D01*
X48783487Y-42019000D01*
X46879488Y-43923000D01*
X46784126Y-43923000D01*
X46403720Y-44080569D01*
X46112569Y-44371720D01*
X45955000Y-44752126D01*
X45955000Y-45163874D01*
X46112569Y-45544280D01*
X46200001Y-45631712D01*
X46200001Y-45729494D01*
X46012235Y-45766843D01*
X45802191Y-45907191D01*
X45661843Y-46117235D01*
X45612560Y-46365000D01*
X45612560Y-47615000D01*
X45661843Y-47862765D01*
X45802191Y-48072809D01*
X46012235Y-48213157D01*
X46260000Y-48262440D01*
X47760000Y-48262440D01*
X48007765Y-48213157D01*
X48217809Y-48072809D01*
X48258654Y-48011680D01*
X48400302Y-48153327D01*
X48633691Y-48250000D01*
X49224250Y-48250000D01*
X49383000Y-48091250D01*
X49383000Y-47117000D01*
X49637000Y-47117000D01*
X49637000Y-48091250D01*
X49795750Y-48250000D01*
X50386309Y-48250000D01*
X50619698Y-48153327D01*
X50798327Y-47974699D01*
X50895000Y-47741310D01*
X50895000Y-47275750D01*
X52055000Y-47275750D01*
X52055000Y-47866309D01*
X52151673Y-48099698D01*
X52330301Y-48278327D01*
X52563690Y-48375000D01*
X53054250Y-48375000D01*
X53213000Y-48216250D01*
X53213000Y-47117000D01*
X53467000Y-47117000D01*
X53467000Y-48216250D01*
X53625750Y-48375000D01*
X54116310Y-48375000D01*
X54349699Y-48278327D01*
X54528327Y-48099698D01*
X54625000Y-47866309D01*
X54625000Y-47275750D01*
X54466250Y-47117000D01*
X53467000Y-47117000D01*
X53213000Y-47117000D01*
X52213750Y-47117000D01*
X52055000Y-47275750D01*
X50895000Y-47275750D01*
X50736250Y-47117000D01*
X49637000Y-47117000D01*
X49383000Y-47117000D01*
X49363000Y-47117000D01*
X49363000Y-46863000D01*
X49383000Y-46863000D01*
X49383000Y-45888750D01*
X49637000Y-45888750D01*
X49637000Y-46863000D01*
X50736250Y-46863000D01*
X50895000Y-46704250D01*
X50895000Y-46238690D01*
X50798327Y-46005301D01*
X50619698Y-45826673D01*
X50386309Y-45730000D01*
X49795750Y-45730000D01*
X49637000Y-45888750D01*
X49383000Y-45888750D01*
X49224250Y-45730000D01*
X48633691Y-45730000D01*
X48400302Y-45826673D01*
X48258654Y-45968320D01*
X48217809Y-45907191D01*
X48007765Y-45766843D01*
X47820000Y-45729495D01*
X47820000Y-45591711D01*
X47867431Y-45544280D01*
X48025000Y-45163874D01*
X48025000Y-45068512D01*
X49992513Y-43101000D01*
X51416289Y-43101000D01*
X51483720Y-43168431D01*
X51864126Y-43326000D01*
X52085127Y-43326000D01*
X52042560Y-43540000D01*
X52042560Y-45040000D01*
X52091843Y-45287765D01*
X52232191Y-45497809D01*
X52442235Y-45638157D01*
X52470209Y-45643721D01*
X52330301Y-45701673D01*
X52151673Y-45880302D01*
X52055000Y-46113691D01*
X52055000Y-46704250D01*
X52213750Y-46863000D01*
X53213000Y-46863000D01*
X53213000Y-46843000D01*
X53467000Y-46843000D01*
X53467000Y-46863000D01*
X54466250Y-46863000D01*
X54625000Y-46704250D01*
X54625000Y-46113691D01*
X54609757Y-46076890D01*
X55708524Y-46076890D01*
X55878355Y-46486924D01*
X56268642Y-46915183D01*
X56793108Y-47161486D01*
X57023000Y-47040819D01*
X57023000Y-45847000D01*
X57277000Y-45847000D01*
X57277000Y-47040819D01*
X57506892Y-47161486D01*
X58031358Y-46915183D01*
X58421645Y-46486924D01*
X58591476Y-46076890D01*
X58470155Y-45847000D01*
X57277000Y-45847000D01*
X57023000Y-45847000D01*
X55829845Y-45847000D01*
X55708524Y-46076890D01*
X54609757Y-46076890D01*
X54528327Y-45880302D01*
X54349699Y-45701673D01*
X54209791Y-45643721D01*
X54237765Y-45638157D01*
X54447809Y-45497809D01*
X54588157Y-45287765D01*
X54637440Y-45040000D01*
X54637440Y-43540000D01*
X54588157Y-43292235D01*
X54504636Y-43167238D01*
X54538292Y-43116868D01*
X54563904Y-43078537D01*
X54608000Y-42856852D01*
X54608000Y-42856848D01*
X54622888Y-42782001D01*
X54608000Y-42707154D01*
X54608000Y-42330000D01*
X55652560Y-42330000D01*
X55652560Y-44030000D01*
X55701843Y-44277765D01*
X55842191Y-44487809D01*
X56052235Y-44628157D01*
X56155708Y-44648739D01*
X55878355Y-44953076D01*
X55708524Y-45363110D01*
X55829845Y-45593000D01*
X57023000Y-45593000D01*
X57023000Y-45573000D01*
X57277000Y-45573000D01*
X57277000Y-45593000D01*
X58470155Y-45593000D01*
X58591476Y-45363110D01*
X58421645Y-44953076D01*
X58144292Y-44648739D01*
X58247765Y-44628157D01*
X58457809Y-44487809D01*
X58598157Y-44277765D01*
X58647440Y-44030000D01*
X58647440Y-42330000D01*
X58598157Y-42082235D01*
X58457809Y-41872191D01*
X58247765Y-41731843D01*
X58000000Y-41682560D01*
X56300000Y-41682560D01*
X56052235Y-41731843D01*
X55842191Y-41872191D01*
X55701843Y-42082235D01*
X55652560Y-42330000D01*
X54608000Y-42330000D01*
X54608000Y-38936848D01*
X54622888Y-38862000D01*
X54608000Y-38787152D01*
X54608000Y-38787148D01*
X54563904Y-38565463D01*
X54563904Y-38565462D01*
X54438329Y-38377527D01*
X54395929Y-38314071D01*
X54332473Y-38271671D01*
X53676331Y-37615530D01*
X53633929Y-37552071D01*
X53382537Y-37384096D01*
X53367440Y-37381093D01*
X53367440Y-36427362D01*
X53474802Y-36320000D01*
X55652560Y-36320000D01*
X55652560Y-36410000D01*
X55701843Y-36657765D01*
X55842191Y-36867809D01*
X56052235Y-37008157D01*
X56097619Y-37017184D01*
X56079375Y-37029375D01*
X55751161Y-37520582D01*
X55635908Y-38100000D01*
X55751161Y-38679418D01*
X56079375Y-39170625D01*
X56570582Y-39498839D01*
X57003744Y-39585000D01*
X57296256Y-39585000D01*
X57729418Y-39498839D01*
X58220625Y-39170625D01*
X58548839Y-38679418D01*
X58664092Y-38100000D01*
X58591209Y-37733592D01*
X58955001Y-37369801D01*
X58955001Y-52142388D01*
X58955681Y-52145804D01*
X58935935Y-52257787D01*
X58840596Y-52422919D01*
X58694524Y-52545488D01*
X58517366Y-52609968D01*
X58492388Y-52605000D01*
X29137612Y-52605000D01*
X29134193Y-52605680D01*
X29022213Y-52585935D01*
X28857081Y-52490596D01*
X28734512Y-52344524D01*
X28670032Y-52167366D01*
X28675000Y-52142388D01*
X28675000Y-46076890D01*
X29038524Y-46076890D01*
X29208355Y-46486924D01*
X29598642Y-46915183D01*
X30123108Y-47161486D01*
X30353000Y-47040819D01*
X30353000Y-45847000D01*
X30607000Y-45847000D01*
X30607000Y-47040819D01*
X30836892Y-47161486D01*
X31361358Y-46915183D01*
X31751645Y-46486924D01*
X31921476Y-46076890D01*
X31800155Y-45847000D01*
X30607000Y-45847000D01*
X30353000Y-45847000D01*
X29159845Y-45847000D01*
X29038524Y-46076890D01*
X28675000Y-46076890D01*
X28675000Y-42330000D01*
X28982560Y-42330000D01*
X28982560Y-44030000D01*
X29031843Y-44277765D01*
X29172191Y-44487809D01*
X29382235Y-44628157D01*
X29485708Y-44648739D01*
X29208355Y-44953076D01*
X29038524Y-45363110D01*
X29159845Y-45593000D01*
X30353000Y-45593000D01*
X30353000Y-45573000D01*
X30607000Y-45573000D01*
X30607000Y-45593000D01*
X31800155Y-45593000D01*
X31921476Y-45363110D01*
X31751645Y-44953076D01*
X31474292Y-44648739D01*
X31577765Y-44628157D01*
X31787809Y-44487809D01*
X31928157Y-44277765D01*
X31977440Y-44030000D01*
X31977440Y-42330000D01*
X31928157Y-42082235D01*
X31787809Y-41872191D01*
X31577765Y-41731843D01*
X31330000Y-41682560D01*
X29630000Y-41682560D01*
X29382235Y-41731843D01*
X29172191Y-41872191D01*
X29031843Y-42082235D01*
X28982560Y-42330000D01*
X28675000Y-42330000D01*
X28675000Y-28225750D01*
X33005000Y-28225750D01*
X33005000Y-28816309D01*
X33101673Y-29049698D01*
X33280301Y-29228327D01*
X33513690Y-29325000D01*
X34004250Y-29325000D01*
X34163000Y-29166250D01*
X34163000Y-28067000D01*
X34417000Y-28067000D01*
X34417000Y-29166250D01*
X34575750Y-29325000D01*
X35066310Y-29325000D01*
X35299699Y-29228327D01*
X35478327Y-29049698D01*
X35572500Y-28822345D01*
X35666673Y-29049698D01*
X35845301Y-29228327D01*
X36078690Y-29325000D01*
X36544250Y-29325000D01*
X36703000Y-29166250D01*
X36703000Y-28067000D01*
X35728750Y-28067000D01*
X35572500Y-28223250D01*
X35416250Y-28067000D01*
X34417000Y-28067000D01*
X34163000Y-28067000D01*
X33163750Y-28067000D01*
X33005000Y-28225750D01*
X28675000Y-28225750D01*
X28675000Y-25871883D01*
X28687590Y-25884472D01*
X28729990Y-25947929D01*
X28981382Y-26115904D01*
X29201631Y-26159714D01*
X29409375Y-26470625D01*
X29900582Y-26798839D01*
X30333744Y-26885000D01*
X30626256Y-26885000D01*
X31059418Y-26798839D01*
X31550625Y-26470625D01*
X31878839Y-25979418D01*
X31994092Y-25400000D01*
X31878839Y-24820582D01*
X31550625Y-24329375D01*
X31252239Y-24130000D01*
X31550625Y-23930625D01*
X31758178Y-23620000D01*
X32994549Y-23620000D01*
X33041843Y-23857765D01*
X33041843Y-23857765D01*
G37*
X33041843Y-23857765D02*
X33170291Y-24050000D01*
X33041843Y-24242235D01*
X32992560Y-24490000D01*
X32992560Y-25990000D01*
X33041843Y-26237765D01*
X33182191Y-26447809D01*
X33392235Y-26588157D01*
X33420209Y-26593721D01*
X33280301Y-26651673D01*
X33101673Y-26830302D01*
X33005000Y-27063691D01*
X33005000Y-27654250D01*
X33163750Y-27813000D01*
X34163000Y-27813000D01*
X34163000Y-27793000D01*
X34417000Y-27793000D01*
X34417000Y-27813000D01*
X35416250Y-27813000D01*
X35572500Y-27656750D01*
X35728750Y-27813000D01*
X36703000Y-27813000D01*
X36703000Y-27793000D01*
X36957000Y-27793000D01*
X36957000Y-27813000D01*
X37931250Y-27813000D01*
X38090000Y-27654250D01*
X38090000Y-27063691D01*
X37993327Y-26830302D01*
X37851680Y-26688654D01*
X37912809Y-26647809D01*
X38053157Y-26437765D01*
X38102440Y-26190000D01*
X38102440Y-25906000D01*
X38666289Y-25906000D01*
X38783720Y-26023431D01*
X39164126Y-26181000D01*
X39367560Y-26181000D01*
X39367560Y-27165597D01*
X39295152Y-27180000D01*
X39295148Y-27180000D01*
X39073463Y-27224096D01*
X38822071Y-27392071D01*
X38779671Y-27455527D01*
X38250530Y-27984669D01*
X38187071Y-28027071D01*
X38068610Y-28204360D01*
X37931250Y-28067000D01*
X36957000Y-28067000D01*
X36957000Y-29166250D01*
X37115750Y-29325000D01*
X37581310Y-29325000D01*
X37736466Y-29260732D01*
X37404199Y-29593000D01*
X33729846Y-29593000D01*
X33654999Y-29578112D01*
X33580152Y-29593000D01*
X33580148Y-29593000D01*
X33358463Y-29637096D01*
X33295902Y-29678898D01*
X33170526Y-29762671D01*
X33170524Y-29762673D01*
X33107071Y-29805071D01*
X33064673Y-29868524D01*
X31977440Y-30955759D01*
X31977440Y-30900000D01*
X31928157Y-30652235D01*
X31787809Y-30442191D01*
X31577765Y-30301843D01*
X31330000Y-30252560D01*
X29630000Y-30252560D01*
X29382235Y-30301843D01*
X29172191Y-30442191D01*
X29031843Y-30652235D01*
X28982560Y-30900000D01*
X28982560Y-32600000D01*
X29031843Y-32847765D01*
X29172191Y-33057809D01*
X29382235Y-33198157D01*
X29427619Y-33207184D01*
X29409375Y-33219375D01*
X29081161Y-33710582D01*
X28965908Y-34290000D01*
X29081161Y-34869418D01*
X29409375Y-35360625D01*
X29707761Y-35560000D01*
X29409375Y-35759375D01*
X29081161Y-36250582D01*
X28965908Y-36830000D01*
X29081161Y-37409418D01*
X29409375Y-37900625D01*
X29900582Y-38228839D01*
X30333744Y-38315000D01*
X30626256Y-38315000D01*
X31059418Y-38228839D01*
X31550625Y-37900625D01*
X31878839Y-37409418D01*
X31994092Y-36830000D01*
X31921209Y-36463592D01*
X32742473Y-35642329D01*
X32805929Y-35599929D01*
X32895000Y-35466625D01*
X32895001Y-41079288D01*
X32650569Y-41323720D01*
X32493000Y-41704126D01*
X32493000Y-42115874D01*
X32650569Y-42496280D01*
X32941720Y-42787431D01*
X33322126Y-42945000D01*
X33733874Y-42945000D01*
X34114280Y-42787431D01*
X34405431Y-42496280D01*
X34563000Y-42115874D01*
X34563000Y-41704126D01*
X34415000Y-41346822D01*
X34415000Y-33469711D01*
X34532431Y-33352280D01*
X34690000Y-32971874D01*
X34690000Y-32560126D01*
X34532431Y-32179720D01*
X34241280Y-31888569D01*
X33860874Y-31731000D01*
X33449126Y-31731000D01*
X33282983Y-31799818D01*
X33969803Y-31113000D01*
X37644153Y-31113000D01*
X37719000Y-31127888D01*
X37793847Y-31113000D01*
X37793852Y-31113000D01*
X38015537Y-31068904D01*
X38266929Y-30900929D01*
X38309331Y-30837470D01*
X39219473Y-29927329D01*
X39282929Y-29884929D01*
X39380000Y-29739652D01*
X39380000Y-30086309D01*
X39476673Y-30319698D01*
X39581230Y-30424255D01*
X39418720Y-30491569D01*
X39127569Y-30782720D01*
X38970000Y-31163126D01*
X38970000Y-31574874D01*
X39127569Y-31955280D01*
X39282999Y-32110710D01*
X39282998Y-37390153D01*
X39268110Y-37465000D01*
X39282998Y-37539847D01*
X39282998Y-37539851D01*
X39327094Y-37761536D01*
X39495069Y-38012929D01*
X39558528Y-38055331D01*
X40195669Y-38692473D01*
X40238070Y-38755930D01*
X40489462Y-38923905D01*
X40711147Y-38968001D01*
X40711151Y-38968001D01*
X40785998Y-38982889D01*
X40860845Y-38968001D01*
X42081841Y-38968001D01*
X42175569Y-39194280D01*
X42466720Y-39485431D01*
X42847126Y-39643000D01*
X43258874Y-39643000D01*
X43639280Y-39485431D01*
X43930431Y-39194280D01*
X44088000Y-38813874D01*
X44088000Y-38402126D01*
X43930431Y-38021720D01*
X43639280Y-37730569D01*
X43258874Y-37573000D01*
X43070618Y-37573000D01*
X42949538Y-37492097D01*
X42727853Y-37448001D01*
X42727848Y-37448001D01*
X42653001Y-37433113D01*
X42578154Y-37448001D01*
X41100801Y-37448001D01*
X40802998Y-37150199D01*
X40802998Y-34703691D01*
X45730000Y-34703691D01*
X45730000Y-35294250D01*
X45888750Y-35453000D01*
X46863000Y-35453000D01*
X46863000Y-34353750D01*
X47117000Y-34353750D01*
X47117000Y-35453000D01*
X48091250Y-35453000D01*
X48250000Y-35294250D01*
X48250000Y-34703691D01*
X48153327Y-34470302D01*
X47974699Y-34291673D01*
X47741310Y-34195000D01*
X47275750Y-34195000D01*
X47117000Y-34353750D01*
X46863000Y-34353750D01*
X46704250Y-34195000D01*
X46238690Y-34195000D01*
X46005301Y-34291673D01*
X45826673Y-34470302D01*
X45730000Y-34703691D01*
X40802998Y-34703691D01*
X40802998Y-32034713D01*
X40882431Y-31955280D01*
X41040000Y-31574874D01*
X41040000Y-31163126D01*
X40882431Y-30782720D01*
X40694711Y-30595000D01*
X40767002Y-30595000D01*
X40767002Y-30436252D01*
X40925750Y-30595000D01*
X41391310Y-30595000D01*
X41622560Y-30499213D01*
X41622560Y-30780000D01*
X41671843Y-31027765D01*
X41730132Y-31115000D01*
X41671843Y-31202235D01*
X41622560Y-31450000D01*
X41622560Y-32050000D01*
X41671843Y-32297765D01*
X41730132Y-32385000D01*
X41671843Y-32472235D01*
X41622560Y-32720000D01*
X41622560Y-33320000D01*
X41671843Y-33567765D01*
X41812191Y-33777809D01*
X42022235Y-33918157D01*
X42270000Y-33967440D01*
X43770000Y-33967440D01*
X44017765Y-33918157D01*
X44227809Y-33777809D01*
X44368157Y-33567765D01*
X44417440Y-33320000D01*
X44417440Y-33305750D01*
X47035000Y-33305750D01*
X47035000Y-33446310D01*
X47131673Y-33679699D01*
X47310302Y-33858327D01*
X47543691Y-33955000D01*
X48134250Y-33955000D01*
X48293000Y-33796250D01*
X48293000Y-33147000D01*
X48547000Y-33147000D01*
X48547000Y-33796250D01*
X48705750Y-33955000D01*
X49296309Y-33955000D01*
X49529698Y-33858327D01*
X49708327Y-33679699D01*
X49805000Y-33446310D01*
X49805000Y-33305750D01*
X49646250Y-33147000D01*
X48547000Y-33147000D01*
X48293000Y-33147000D01*
X47193750Y-33147000D01*
X47035000Y-33305750D01*
X44417440Y-33305750D01*
X44417440Y-33147362D01*
X44906802Y-32658000D01*
X45163874Y-32658000D01*
X45544280Y-32500431D01*
X45835431Y-32209280D01*
X45918303Y-32009210D01*
X45948569Y-32082280D01*
X46239720Y-32373431D01*
X46620126Y-32531000D01*
X47031874Y-32531000D01*
X47066992Y-32516453D01*
X47035000Y-32593690D01*
X47035000Y-32734250D01*
X47193750Y-32893000D01*
X48293000Y-32893000D01*
X48293000Y-32873000D01*
X48547000Y-32873000D01*
X48547000Y-32893000D01*
X49646250Y-32893000D01*
X49673066Y-32866184D01*
X49800235Y-32951157D01*
X49913001Y-32973587D01*
X49913000Y-37263153D01*
X49898112Y-37338000D01*
X49913000Y-37412847D01*
X49913000Y-37412851D01*
X49957096Y-37634536D01*
X50125071Y-37885929D01*
X50188530Y-37928331D01*
X50803691Y-38543493D01*
X50772560Y-38700000D01*
X50772560Y-40200000D01*
X50821843Y-40447765D01*
X50962191Y-40657809D01*
X51172235Y-40798157D01*
X51260000Y-40815614D01*
X51260001Y-41481000D01*
X50429958Y-41481000D01*
X50420003Y-41430953D01*
X50286165Y-41230652D01*
X50240977Y-41163023D01*
X50173347Y-41117834D01*
X48181162Y-39125649D01*
X48213157Y-39077765D01*
X48262440Y-38830000D01*
X48262440Y-37330000D01*
X48213157Y-37082235D01*
X48072809Y-36872191D01*
X48011680Y-36831346D01*
X48153327Y-36689698D01*
X48250000Y-36456309D01*
X48250000Y-35865750D01*
X48091250Y-35707000D01*
X47117000Y-35707000D01*
X47117000Y-35727000D01*
X46863000Y-35727000D01*
X46863000Y-35707000D01*
X45888750Y-35707000D01*
X45730000Y-35865750D01*
X45730000Y-36456309D01*
X45826673Y-36689698D01*
X45968320Y-36831346D01*
X45907191Y-36872191D01*
X45766843Y-37082235D01*
X45729495Y-37270000D01*
X45718711Y-37270000D01*
X45671280Y-37222569D01*
X45290874Y-37065000D01*
X44879126Y-37065000D01*
X44498720Y-37222569D01*
X44207569Y-37513720D01*
X44050000Y-37894126D01*
X44050000Y-38305874D01*
X44207569Y-38686280D01*
X44498720Y-38977431D01*
X44879126Y-39135000D01*
X45290874Y-39135000D01*
X45671280Y-38977431D01*
X45734342Y-38914369D01*
X45766843Y-39077765D01*
X45907191Y-39287809D01*
X46117235Y-39428157D01*
X46268567Y-39458259D01*
X46406024Y-39663977D01*
X46473654Y-39709166D01*
X48783487Y-42019000D01*
X46879488Y-43923000D01*
X46784126Y-43923000D01*
X46403720Y-44080569D01*
X46112569Y-44371720D01*
X45955000Y-44752126D01*
X45955000Y-45163874D01*
X46112569Y-45544280D01*
X46200001Y-45631712D01*
X46200001Y-45729494D01*
X46012235Y-45766843D01*
X45802191Y-45907191D01*
X45661843Y-46117235D01*
X45612560Y-46365000D01*
X45612560Y-47615000D01*
X45661843Y-47862765D01*
X45802191Y-48072809D01*
X46012235Y-48213157D01*
X46260000Y-48262440D01*
X47760000Y-48262440D01*
X48007765Y-48213157D01*
X48217809Y-48072809D01*
X48258654Y-48011680D01*
X48400302Y-48153327D01*
X48633691Y-48250000D01*
X49224250Y-48250000D01*
X49383000Y-48091250D01*
X49383000Y-47117000D01*
X49637000Y-47117000D01*
X49637000Y-48091250D01*
X49795750Y-48250000D01*
X50386309Y-48250000D01*
X50619698Y-48153327D01*
X50798327Y-47974699D01*
X50895000Y-47741310D01*
X50895000Y-47275750D01*
X52055000Y-47275750D01*
X52055000Y-47866309D01*
X52151673Y-48099698D01*
X52330301Y-48278327D01*
X52563690Y-48375000D01*
X53054250Y-48375000D01*
X53213000Y-48216250D01*
X53213000Y-47117000D01*
X53467000Y-47117000D01*
X53467000Y-48216250D01*
X53625750Y-48375000D01*
X54116310Y-48375000D01*
X54349699Y-48278327D01*
X54528327Y-48099698D01*
X54625000Y-47866309D01*
X54625000Y-47275750D01*
X54466250Y-47117000D01*
X53467000Y-47117000D01*
X53213000Y-47117000D01*
X52213750Y-47117000D01*
X52055000Y-47275750D01*
X50895000Y-47275750D01*
X50736250Y-47117000D01*
X49637000Y-47117000D01*
X49383000Y-47117000D01*
X49363000Y-47117000D01*
X49363000Y-46863000D01*
X49383000Y-46863000D01*
X49383000Y-45888750D01*
X49637000Y-45888750D01*
X49637000Y-46863000D01*
X50736250Y-46863000D01*
X50895000Y-46704250D01*
X50895000Y-46238690D01*
X50798327Y-46005301D01*
X50619698Y-45826673D01*
X50386309Y-45730000D01*
X49795750Y-45730000D01*
X49637000Y-45888750D01*
X49383000Y-45888750D01*
X49224250Y-45730000D01*
X48633691Y-45730000D01*
X48400302Y-45826673D01*
X48258654Y-45968320D01*
X48217809Y-45907191D01*
X48007765Y-45766843D01*
X47820000Y-45729495D01*
X47820000Y-45591711D01*
X47867431Y-45544280D01*
X48025000Y-45163874D01*
X48025000Y-45068512D01*
X49992513Y-43101000D01*
X51416289Y-43101000D01*
X51483720Y-43168431D01*
X51864126Y-43326000D01*
X52085127Y-43326000D01*
X52042560Y-43540000D01*
X52042560Y-45040000D01*
X52091843Y-45287765D01*
X52232191Y-45497809D01*
X52442235Y-45638157D01*
X52470209Y-45643721D01*
X52330301Y-45701673D01*
X52151673Y-45880302D01*
X52055000Y-46113691D01*
X52055000Y-46704250D01*
X52213750Y-46863000D01*
X53213000Y-46863000D01*
X53213000Y-46843000D01*
X53467000Y-46843000D01*
X53467000Y-46863000D01*
X54466250Y-46863000D01*
X54625000Y-46704250D01*
X54625000Y-46113691D01*
X54609757Y-46076890D01*
X55708524Y-46076890D01*
X55878355Y-46486924D01*
X56268642Y-46915183D01*
X56793108Y-47161486D01*
X57023000Y-47040819D01*
X57023000Y-45847000D01*
X57277000Y-45847000D01*
X57277000Y-47040819D01*
X57506892Y-47161486D01*
X58031358Y-46915183D01*
X58421645Y-46486924D01*
X58591476Y-46076890D01*
X58470155Y-45847000D01*
X57277000Y-45847000D01*
X57023000Y-45847000D01*
X55829845Y-45847000D01*
X55708524Y-46076890D01*
X54609757Y-46076890D01*
X54528327Y-45880302D01*
X54349699Y-45701673D01*
X54209791Y-45643721D01*
X54237765Y-45638157D01*
X54447809Y-45497809D01*
X54588157Y-45287765D01*
X54637440Y-45040000D01*
X54637440Y-43540000D01*
X54588157Y-43292235D01*
X54504636Y-43167238D01*
X54538292Y-43116868D01*
X54563904Y-43078537D01*
X54608000Y-42856852D01*
X54608000Y-42856848D01*
X54622888Y-42782001D01*
X54608000Y-42707154D01*
X54608000Y-42330000D01*
X55652560Y-42330000D01*
X55652560Y-44030000D01*
X55701843Y-44277765D01*
X55842191Y-44487809D01*
X56052235Y-44628157D01*
X56155708Y-44648739D01*
X55878355Y-44953076D01*
X55708524Y-45363110D01*
X55829845Y-45593000D01*
X57023000Y-45593000D01*
X57023000Y-45573000D01*
X57277000Y-45573000D01*
X57277000Y-45593000D01*
X58470155Y-45593000D01*
X58591476Y-45363110D01*
X58421645Y-44953076D01*
X58144292Y-44648739D01*
X58247765Y-44628157D01*
X58457809Y-44487809D01*
X58598157Y-44277765D01*
X58647440Y-44030000D01*
X58647440Y-42330000D01*
X58598157Y-42082235D01*
X58457809Y-41872191D01*
X58247765Y-41731843D01*
X58000000Y-41682560D01*
X56300000Y-41682560D01*
X56052235Y-41731843D01*
X55842191Y-41872191D01*
X55701843Y-42082235D01*
X55652560Y-42330000D01*
X54608000Y-42330000D01*
X54608000Y-38936848D01*
X54622888Y-38862000D01*
X54608000Y-38787152D01*
X54608000Y-38787148D01*
X54563904Y-38565463D01*
X54563904Y-38565462D01*
X54438329Y-38377527D01*
X54395929Y-38314071D01*
X54332473Y-38271671D01*
X53676331Y-37615530D01*
X53633929Y-37552071D01*
X53382537Y-37384096D01*
X53367440Y-37381093D01*
X53367440Y-36427362D01*
X53474802Y-36320000D01*
X55652560Y-36320000D01*
X55652560Y-36410000D01*
X55701843Y-36657765D01*
X55842191Y-36867809D01*
X56052235Y-37008157D01*
X56097619Y-37017184D01*
X56079375Y-37029375D01*
X55751161Y-37520582D01*
X55635908Y-38100000D01*
X55751161Y-38679418D01*
X56079375Y-39170625D01*
X56570582Y-39498839D01*
X57003744Y-39585000D01*
X57296256Y-39585000D01*
X57729418Y-39498839D01*
X58220625Y-39170625D01*
X58548839Y-38679418D01*
X58664092Y-38100000D01*
X58591209Y-37733592D01*
X58955001Y-37369801D01*
X58955001Y-52142388D01*
X58955681Y-52145804D01*
X58935935Y-52257787D01*
X58840596Y-52422919D01*
X58694524Y-52545488D01*
X58517366Y-52609968D01*
X58492388Y-52605000D01*
X29137612Y-52605000D01*
X29134193Y-52605680D01*
X29022213Y-52585935D01*
X28857081Y-52490596D01*
X28734512Y-52344524D01*
X28670032Y-52167366D01*
X28675000Y-52142388D01*
X28675000Y-46076890D01*
X29038524Y-46076890D01*
X29208355Y-46486924D01*
X29598642Y-46915183D01*
X30123108Y-47161486D01*
X30353000Y-47040819D01*
X30353000Y-45847000D01*
X30607000Y-45847000D01*
X30607000Y-47040819D01*
X30836892Y-47161486D01*
X31361358Y-46915183D01*
X31751645Y-46486924D01*
X31921476Y-46076890D01*
X31800155Y-45847000D01*
X30607000Y-45847000D01*
X30353000Y-45847000D01*
X29159845Y-45847000D01*
X29038524Y-46076890D01*
X28675000Y-46076890D01*
X28675000Y-42330000D01*
X28982560Y-42330000D01*
X28982560Y-44030000D01*
X29031843Y-44277765D01*
X29172191Y-44487809D01*
X29382235Y-44628157D01*
X29485708Y-44648739D01*
X29208355Y-44953076D01*
X29038524Y-45363110D01*
X29159845Y-45593000D01*
X30353000Y-45593000D01*
X30353000Y-45573000D01*
X30607000Y-45573000D01*
X30607000Y-45593000D01*
X31800155Y-45593000D01*
X31921476Y-45363110D01*
X31751645Y-44953076D01*
X31474292Y-44648739D01*
X31577765Y-44628157D01*
X31787809Y-44487809D01*
X31928157Y-44277765D01*
X31977440Y-44030000D01*
X31977440Y-42330000D01*
X31928157Y-42082235D01*
X31787809Y-41872191D01*
X31577765Y-41731843D01*
X31330000Y-41682560D01*
X29630000Y-41682560D01*
X29382235Y-41731843D01*
X29172191Y-41872191D01*
X29031843Y-42082235D01*
X28982560Y-42330000D01*
X28675000Y-42330000D01*
X28675000Y-28225750D01*
X33005000Y-28225750D01*
X33005000Y-28816309D01*
X33101673Y-29049698D01*
X33280301Y-29228327D01*
X33513690Y-29325000D01*
X34004250Y-29325000D01*
X34163000Y-29166250D01*
X34163000Y-28067000D01*
X34417000Y-28067000D01*
X34417000Y-29166250D01*
X34575750Y-29325000D01*
X35066310Y-29325000D01*
X35299699Y-29228327D01*
X35478327Y-29049698D01*
X35572500Y-28822345D01*
X35666673Y-29049698D01*
X35845301Y-29228327D01*
X36078690Y-29325000D01*
X36544250Y-29325000D01*
X36703000Y-29166250D01*
X36703000Y-28067000D01*
X35728750Y-28067000D01*
X35572500Y-28223250D01*
X35416250Y-28067000D01*
X34417000Y-28067000D01*
X34163000Y-28067000D01*
X33163750Y-28067000D01*
X33005000Y-28225750D01*
X28675000Y-28225750D01*
X28675000Y-25871883D01*
X28687590Y-25884472D01*
X28729990Y-25947929D01*
X28981382Y-26115904D01*
X29201631Y-26159714D01*
X29409375Y-26470625D01*
X29900582Y-26798839D01*
X30333744Y-26885000D01*
X30626256Y-26885000D01*
X31059418Y-26798839D01*
X31550625Y-26470625D01*
X31878839Y-25979418D01*
X31994092Y-25400000D01*
X31878839Y-24820582D01*
X31550625Y-24329375D01*
X31252239Y-24130000D01*
X31550625Y-23930625D01*
X31758178Y-23620000D01*
X32994549Y-23620000D01*
X33041843Y-23857765D01*
G36*
X29137612Y-17245000D02*
X36703000Y-17245000D01*
X36703000Y-23114000D01*
X36712667Y-23162601D01*
X36740197Y-23203803D01*
X36781399Y-23231333D01*
X36830000Y-23241000D01*
X53340000Y-23241000D01*
X53388601Y-23231333D01*
X53429803Y-23203803D01*
X53457333Y-23162601D01*
X53467000Y-23114000D01*
X53467000Y-17245000D01*
X58492388Y-17245000D01*
X58495807Y-17244320D01*
X58607787Y-17264065D01*
X58772920Y-17359405D01*
X58895488Y-17505477D01*
X58959969Y-17682633D01*
X58955000Y-17707613D01*
X58955000Y-32607199D01*
X58883330Y-32535529D01*
X58840929Y-32472071D01*
X58589537Y-32304096D01*
X58367852Y-32260000D01*
X58367847Y-32260000D01*
X58293000Y-32245112D01*
X58218153Y-32260000D01*
X54670232Y-32260000D01*
X54715157Y-32192765D01*
X54764440Y-31945000D01*
X54764440Y-30445000D01*
X54715157Y-30197235D01*
X54574809Y-29987191D01*
X54364765Y-29846843D01*
X54355500Y-29845000D01*
X54364765Y-29843157D01*
X54574809Y-29702809D01*
X54715157Y-29492765D01*
X54764440Y-29245000D01*
X54764440Y-27940000D01*
X55635908Y-27940000D01*
X55751161Y-28519418D01*
X56079375Y-29010625D01*
X56377761Y-29210000D01*
X56079375Y-29409375D01*
X55751161Y-29900582D01*
X55635908Y-30480000D01*
X55751161Y-31059418D01*
X56079375Y-31550625D01*
X56570582Y-31878839D01*
X57003744Y-31965000D01*
X57296256Y-31965000D01*
X57729418Y-31878839D01*
X58220625Y-31550625D01*
X58548839Y-31059418D01*
X58664092Y-30480000D01*
X58548839Y-29900582D01*
X58220625Y-29409375D01*
X57922239Y-29210000D01*
X58220625Y-29010625D01*
X58548839Y-28519418D01*
X58664092Y-27940000D01*
X58548839Y-27360582D01*
X58220625Y-26869375D01*
X58198967Y-26854904D01*
X58359698Y-26788327D01*
X58538327Y-26609699D01*
X58635000Y-26376310D01*
X58635000Y-25685750D01*
X58476250Y-25527000D01*
X57277000Y-25527000D01*
X57277000Y-25547000D01*
X57023000Y-25547000D01*
X57023000Y-25527000D01*
X55823750Y-25527000D01*
X55665000Y-25685750D01*
X55665000Y-26376310D01*
X55761673Y-26609699D01*
X55940302Y-26788327D01*
X56101033Y-26854904D01*
X56079375Y-26869375D01*
X55751161Y-27360582D01*
X55635908Y-27940000D01*
X54764440Y-27940000D01*
X54764440Y-27745000D01*
X54715157Y-27497235D01*
X54574809Y-27287191D01*
X54364765Y-27146843D01*
X54117000Y-27097560D01*
X53244362Y-27097560D01*
X53041241Y-26894440D01*
X53758000Y-26894440D01*
X54005765Y-26845157D01*
X54215809Y-26704809D01*
X54356157Y-26494765D01*
X54405440Y-26247000D01*
X54405440Y-25447000D01*
X54356157Y-25199235D01*
X54215809Y-24989191D01*
X54005765Y-24848843D01*
X53758000Y-24799560D01*
X52858000Y-24799560D01*
X52610235Y-24848843D01*
X52400191Y-24989191D01*
X52334837Y-25087000D01*
X52297250Y-25087000D01*
X52234250Y-25024000D01*
X51435000Y-25024000D01*
X51435000Y-25044000D01*
X51181000Y-25044000D01*
X51181000Y-25024000D01*
X51161000Y-25024000D01*
X51161000Y-24770000D01*
X51181000Y-24770000D01*
X51181000Y-24020750D01*
X51435000Y-24020750D01*
X51435000Y-24770000D01*
X52234250Y-24770000D01*
X52393000Y-24611250D01*
X52393000Y-24423690D01*
X55665000Y-24423690D01*
X55665000Y-25114250D01*
X55823750Y-25273000D01*
X57023000Y-25273000D01*
X57023000Y-24073750D01*
X57277000Y-24073750D01*
X57277000Y-25273000D01*
X58476250Y-25273000D01*
X58635000Y-25114250D01*
X58635000Y-24423690D01*
X58538327Y-24190301D01*
X58359698Y-24011673D01*
X58126309Y-23915000D01*
X57435750Y-23915000D01*
X57277000Y-24073750D01*
X57023000Y-24073750D01*
X56864250Y-23915000D01*
X56173691Y-23915000D01*
X55940302Y-24011673D01*
X55761673Y-24190301D01*
X55665000Y-24423690D01*
X52393000Y-24423690D01*
X52393000Y-24370690D01*
X52296327Y-24137301D01*
X52117698Y-23958673D01*
X51884309Y-23862000D01*
X51593750Y-23862000D01*
X51435000Y-24020750D01*
X51181000Y-24020750D01*
X51022250Y-23862000D01*
X50731691Y-23862000D01*
X50498302Y-23958673D01*
X50319673Y-24137301D01*
X50223000Y-24370690D01*
X50223000Y-24611250D01*
X50287480Y-24675730D01*
X50107852Y-24640000D01*
X50107847Y-24640000D01*
X50033000Y-24625112D01*
X49958153Y-24640000D01*
X49624530Y-24640000D01*
X49417765Y-24501843D01*
X49170000Y-24452560D01*
X47670000Y-24452560D01*
X47422235Y-24501843D01*
X47212191Y-24642191D01*
X47071843Y-24852235D01*
X47022560Y-25100000D01*
X47022560Y-25700000D01*
X47071843Y-25947765D01*
X47130132Y-26035000D01*
X47071843Y-26122235D01*
X47022560Y-26370000D01*
X47022560Y-26970000D01*
X47027118Y-26992914D01*
X46814874Y-26905000D01*
X46403126Y-26905000D01*
X46022720Y-27062569D01*
X45731569Y-27353720D01*
X45574000Y-27734126D01*
X45574000Y-28145874D01*
X45731569Y-28526280D01*
X46022720Y-28817431D01*
X46403126Y-28975000D01*
X46814874Y-28975000D01*
X47027118Y-28887086D01*
X47022560Y-28910000D01*
X47022560Y-29510000D01*
X47071843Y-29757765D01*
X47130132Y-29845000D01*
X47071843Y-29932235D01*
X47022560Y-30180000D01*
X47022560Y-30461000D01*
X46620126Y-30461000D01*
X46239720Y-30618569D01*
X45948569Y-30909720D01*
X45865697Y-31109790D01*
X45835431Y-31036720D01*
X45544280Y-30745569D01*
X45163874Y-30588000D01*
X44752126Y-30588000D01*
X44417440Y-30726631D01*
X44417440Y-30180000D01*
X44368157Y-29932235D01*
X44309868Y-29845000D01*
X44368157Y-29757765D01*
X44417440Y-29510000D01*
X44417440Y-28910000D01*
X44368157Y-28662235D01*
X44309868Y-28575000D01*
X44368157Y-28487765D01*
X44417440Y-28240000D01*
X44417440Y-27705000D01*
X44528874Y-27705000D01*
X44909280Y-27547431D01*
X45200431Y-27256280D01*
X45358000Y-26875874D01*
X45358000Y-26464126D01*
X45200431Y-26083720D01*
X44909280Y-25792569D01*
X44812875Y-25752637D01*
X45254184Y-25311329D01*
X45514126Y-25419000D01*
X45925874Y-25419000D01*
X46306280Y-25261431D01*
X46597431Y-24970280D01*
X46755000Y-24589874D01*
X46755000Y-24178126D01*
X46597431Y-23797720D01*
X46306280Y-23506569D01*
X45925874Y-23349000D01*
X45514126Y-23349000D01*
X45133720Y-23506569D01*
X45074499Y-23565790D01*
X45036000Y-23558132D01*
X44956227Y-23574000D01*
X44956226Y-23574000D01*
X44719954Y-23620997D01*
X44452023Y-23800023D01*
X44406834Y-23867653D01*
X43813312Y-24461175D01*
X43770000Y-24452560D01*
X42270000Y-24452560D01*
X42022235Y-24501843D01*
X41890300Y-24590000D01*
X41735773Y-24590000D01*
X41656000Y-24574132D01*
X41576227Y-24590000D01*
X41576226Y-24590000D01*
X41339954Y-24636997D01*
X41072023Y-24816023D01*
X41026834Y-24883653D01*
X40597927Y-25312560D01*
X40405000Y-25312560D01*
X40405000Y-24940126D01*
X40247431Y-24559720D01*
X39956280Y-24268569D01*
X39575874Y-24111000D01*
X39164126Y-24111000D01*
X38783720Y-24268569D01*
X38666289Y-24386000D01*
X38015582Y-24386000D01*
X37912809Y-24232191D01*
X37702765Y-24091843D01*
X37455000Y-24042560D01*
X36205000Y-24042560D01*
X35957235Y-24091843D01*
X35747191Y-24232191D01*
X35606843Y-24442235D01*
X35599331Y-24480000D01*
X35585451Y-24480000D01*
X35538157Y-24242235D01*
X35409709Y-24050000D01*
X35538157Y-23857765D01*
X35587440Y-23610000D01*
X35587440Y-22110000D01*
X35538157Y-21862235D01*
X35397809Y-21652191D01*
X35187765Y-21511843D01*
X35178500Y-21510000D01*
X35187765Y-21508157D01*
X35397809Y-21367809D01*
X35538157Y-21157765D01*
X35587440Y-20910000D01*
X35587440Y-19410000D01*
X35538157Y-19162235D01*
X35397809Y-18952191D01*
X35187765Y-18811843D01*
X34940000Y-18762560D01*
X34938483Y-18762560D01*
X34837929Y-18612071D01*
X34774473Y-18569671D01*
X34245331Y-18040530D01*
X34202929Y-17977071D01*
X33951537Y-17809096D01*
X33729852Y-17765000D01*
X33729847Y-17765000D01*
X33655000Y-17750112D01*
X33580153Y-17765000D01*
X29648846Y-17765000D01*
X29573999Y-17750112D01*
X29499152Y-17765000D01*
X29499148Y-17765000D01*
X29277463Y-17809096D01*
X29026071Y-17977071D01*
X28983671Y-18040527D01*
X28675000Y-18349199D01*
X28675000Y-17707612D01*
X28674320Y-17704193D01*
X28694065Y-17592213D01*
X28789405Y-17427080D01*
X28935477Y-17304512D01*
X29112633Y-17240031D01*
X29137612Y-17245000D01*
X29137612Y-17245000D01*
G37*
X29137612Y-17245000D02*
X36703000Y-17245000D01*
X36703000Y-23114000D01*
X36712667Y-23162601D01*
X36740197Y-23203803D01*
X36781399Y-23231333D01*
X36830000Y-23241000D01*
X53340000Y-23241000D01*
X53388601Y-23231333D01*
X53429803Y-23203803D01*
X53457333Y-23162601D01*
X53467000Y-23114000D01*
X53467000Y-17245000D01*
X58492388Y-17245000D01*
X58495807Y-17244320D01*
X58607787Y-17264065D01*
X58772920Y-17359405D01*
X58895488Y-17505477D01*
X58959969Y-17682633D01*
X58955000Y-17707613D01*
X58955000Y-32607199D01*
X58883330Y-32535529D01*
X58840929Y-32472071D01*
X58589537Y-32304096D01*
X58367852Y-32260000D01*
X58367847Y-32260000D01*
X58293000Y-32245112D01*
X58218153Y-32260000D01*
X54670232Y-32260000D01*
X54715157Y-32192765D01*
X54764440Y-31945000D01*
X54764440Y-30445000D01*
X54715157Y-30197235D01*
X54574809Y-29987191D01*
X54364765Y-29846843D01*
X54355500Y-29845000D01*
X54364765Y-29843157D01*
X54574809Y-29702809D01*
X54715157Y-29492765D01*
X54764440Y-29245000D01*
X54764440Y-27940000D01*
X55635908Y-27940000D01*
X55751161Y-28519418D01*
X56079375Y-29010625D01*
X56377761Y-29210000D01*
X56079375Y-29409375D01*
X55751161Y-29900582D01*
X55635908Y-30480000D01*
X55751161Y-31059418D01*
X56079375Y-31550625D01*
X56570582Y-31878839D01*
X57003744Y-31965000D01*
X57296256Y-31965000D01*
X57729418Y-31878839D01*
X58220625Y-31550625D01*
X58548839Y-31059418D01*
X58664092Y-30480000D01*
X58548839Y-29900582D01*
X58220625Y-29409375D01*
X57922239Y-29210000D01*
X58220625Y-29010625D01*
X58548839Y-28519418D01*
X58664092Y-27940000D01*
X58548839Y-27360582D01*
X58220625Y-26869375D01*
X58198967Y-26854904D01*
X58359698Y-26788327D01*
X58538327Y-26609699D01*
X58635000Y-26376310D01*
X58635000Y-25685750D01*
X58476250Y-25527000D01*
X57277000Y-25527000D01*
X57277000Y-25547000D01*
X57023000Y-25547000D01*
X57023000Y-25527000D01*
X55823750Y-25527000D01*
X55665000Y-25685750D01*
X55665000Y-26376310D01*
X55761673Y-26609699D01*
X55940302Y-26788327D01*
X56101033Y-26854904D01*
X56079375Y-26869375D01*
X55751161Y-27360582D01*
X55635908Y-27940000D01*
X54764440Y-27940000D01*
X54764440Y-27745000D01*
X54715157Y-27497235D01*
X54574809Y-27287191D01*
X54364765Y-27146843D01*
X54117000Y-27097560D01*
X53244362Y-27097560D01*
X53041241Y-26894440D01*
X53758000Y-26894440D01*
X54005765Y-26845157D01*
X54215809Y-26704809D01*
X54356157Y-26494765D01*
X54405440Y-26247000D01*
X54405440Y-25447000D01*
X54356157Y-25199235D01*
X54215809Y-24989191D01*
X54005765Y-24848843D01*
X53758000Y-24799560D01*
X52858000Y-24799560D01*
X52610235Y-24848843D01*
X52400191Y-24989191D01*
X52334837Y-25087000D01*
X52297250Y-25087000D01*
X52234250Y-25024000D01*
X51435000Y-25024000D01*
X51435000Y-25044000D01*
X51181000Y-25044000D01*
X51181000Y-25024000D01*
X51161000Y-25024000D01*
X51161000Y-24770000D01*
X51181000Y-24770000D01*
X51181000Y-24020750D01*
X51435000Y-24020750D01*
X51435000Y-24770000D01*
X52234250Y-24770000D01*
X52393000Y-24611250D01*
X52393000Y-24423690D01*
X55665000Y-24423690D01*
X55665000Y-25114250D01*
X55823750Y-25273000D01*
X57023000Y-25273000D01*
X57023000Y-24073750D01*
X57277000Y-24073750D01*
X57277000Y-25273000D01*
X58476250Y-25273000D01*
X58635000Y-25114250D01*
X58635000Y-24423690D01*
X58538327Y-24190301D01*
X58359698Y-24011673D01*
X58126309Y-23915000D01*
X57435750Y-23915000D01*
X57277000Y-24073750D01*
X57023000Y-24073750D01*
X56864250Y-23915000D01*
X56173691Y-23915000D01*
X55940302Y-24011673D01*
X55761673Y-24190301D01*
X55665000Y-24423690D01*
X52393000Y-24423690D01*
X52393000Y-24370690D01*
X52296327Y-24137301D01*
X52117698Y-23958673D01*
X51884309Y-23862000D01*
X51593750Y-23862000D01*
X51435000Y-24020750D01*
X51181000Y-24020750D01*
X51022250Y-23862000D01*
X50731691Y-23862000D01*
X50498302Y-23958673D01*
X50319673Y-24137301D01*
X50223000Y-24370690D01*
X50223000Y-24611250D01*
X50287480Y-24675730D01*
X50107852Y-24640000D01*
X50107847Y-24640000D01*
X50033000Y-24625112D01*
X49958153Y-24640000D01*
X49624530Y-24640000D01*
X49417765Y-24501843D01*
X49170000Y-24452560D01*
X47670000Y-24452560D01*
X47422235Y-24501843D01*
X47212191Y-24642191D01*
X47071843Y-24852235D01*
X47022560Y-25100000D01*
X47022560Y-25700000D01*
X47071843Y-25947765D01*
X47130132Y-26035000D01*
X47071843Y-26122235D01*
X47022560Y-26370000D01*
X47022560Y-26970000D01*
X47027118Y-26992914D01*
X46814874Y-26905000D01*
X46403126Y-26905000D01*
X46022720Y-27062569D01*
X45731569Y-27353720D01*
X45574000Y-27734126D01*
X45574000Y-28145874D01*
X45731569Y-28526280D01*
X46022720Y-28817431D01*
X46403126Y-28975000D01*
X46814874Y-28975000D01*
X47027118Y-28887086D01*
X47022560Y-28910000D01*
X47022560Y-29510000D01*
X47071843Y-29757765D01*
X47130132Y-29845000D01*
X47071843Y-29932235D01*
X47022560Y-30180000D01*
X47022560Y-30461000D01*
X46620126Y-30461000D01*
X46239720Y-30618569D01*
X45948569Y-30909720D01*
X45865697Y-31109790D01*
X45835431Y-31036720D01*
X45544280Y-30745569D01*
X45163874Y-30588000D01*
X44752126Y-30588000D01*
X44417440Y-30726631D01*
X44417440Y-30180000D01*
X44368157Y-29932235D01*
X44309868Y-29845000D01*
X44368157Y-29757765D01*
X44417440Y-29510000D01*
X44417440Y-28910000D01*
X44368157Y-28662235D01*
X44309868Y-28575000D01*
X44368157Y-28487765D01*
X44417440Y-28240000D01*
X44417440Y-27705000D01*
X44528874Y-27705000D01*
X44909280Y-27547431D01*
X45200431Y-27256280D01*
X45358000Y-26875874D01*
X45358000Y-26464126D01*
X45200431Y-26083720D01*
X44909280Y-25792569D01*
X44812875Y-25752637D01*
X45254184Y-25311329D01*
X45514126Y-25419000D01*
X45925874Y-25419000D01*
X46306280Y-25261431D01*
X46597431Y-24970280D01*
X46755000Y-24589874D01*
X46755000Y-24178126D01*
X46597431Y-23797720D01*
X46306280Y-23506569D01*
X45925874Y-23349000D01*
X45514126Y-23349000D01*
X45133720Y-23506569D01*
X45074499Y-23565790D01*
X45036000Y-23558132D01*
X44956227Y-23574000D01*
X44956226Y-23574000D01*
X44719954Y-23620997D01*
X44452023Y-23800023D01*
X44406834Y-23867653D01*
X43813312Y-24461175D01*
X43770000Y-24452560D01*
X42270000Y-24452560D01*
X42022235Y-24501843D01*
X41890300Y-24590000D01*
X41735773Y-24590000D01*
X41656000Y-24574132D01*
X41576227Y-24590000D01*
X41576226Y-24590000D01*
X41339954Y-24636997D01*
X41072023Y-24816023D01*
X41026834Y-24883653D01*
X40597927Y-25312560D01*
X40405000Y-25312560D01*
X40405000Y-24940126D01*
X40247431Y-24559720D01*
X39956280Y-24268569D01*
X39575874Y-24111000D01*
X39164126Y-24111000D01*
X38783720Y-24268569D01*
X38666289Y-24386000D01*
X38015582Y-24386000D01*
X37912809Y-24232191D01*
X37702765Y-24091843D01*
X37455000Y-24042560D01*
X36205000Y-24042560D01*
X35957235Y-24091843D01*
X35747191Y-24232191D01*
X35606843Y-24442235D01*
X35599331Y-24480000D01*
X35585451Y-24480000D01*
X35538157Y-24242235D01*
X35409709Y-24050000D01*
X35538157Y-23857765D01*
X35587440Y-23610000D01*
X35587440Y-22110000D01*
X35538157Y-21862235D01*
X35397809Y-21652191D01*
X35187765Y-21511843D01*
X35178500Y-21510000D01*
X35187765Y-21508157D01*
X35397809Y-21367809D01*
X35538157Y-21157765D01*
X35587440Y-20910000D01*
X35587440Y-19410000D01*
X35538157Y-19162235D01*
X35397809Y-18952191D01*
X35187765Y-18811843D01*
X34940000Y-18762560D01*
X34938483Y-18762560D01*
X34837929Y-18612071D01*
X34774473Y-18569671D01*
X34245331Y-18040530D01*
X34202929Y-17977071D01*
X33951537Y-17809096D01*
X33729852Y-17765000D01*
X33729847Y-17765000D01*
X33655000Y-17750112D01*
X33580153Y-17765000D01*
X29648846Y-17765000D01*
X29573999Y-17750112D01*
X29499152Y-17765000D01*
X29499148Y-17765000D01*
X29277463Y-17809096D01*
X29026071Y-17977071D01*
X28983671Y-18040527D01*
X28675000Y-18349199D01*
X28675000Y-17707612D01*
X28674320Y-17704193D01*
X28694065Y-17592213D01*
X28789405Y-17427080D01*
X28935477Y-17304512D01*
X29112633Y-17240031D01*
X29137612Y-17245000D01*
G36*
X40767000Y-29083000D02*
X40787000Y-29083000D01*
X40787000Y-29337000D01*
X40767000Y-29337000D01*
X40767000Y-29357000D01*
X40513000Y-29357000D01*
X40513000Y-29337000D01*
X40493000Y-29337000D01*
X40493000Y-29083000D01*
X40513000Y-29083000D01*
X40513000Y-29063000D01*
X40767000Y-29063000D01*
X40767000Y-29083000D01*
X40767000Y-29083000D01*
G37*
X40767000Y-29083000D02*
X40787000Y-29083000D01*
X40787000Y-29337000D01*
X40767000Y-29337000D01*
X40767000Y-29357000D01*
X40513000Y-29357000D01*
X40513000Y-29337000D01*
X40493000Y-29337000D01*
X40493000Y-29083000D01*
X40513000Y-29083000D01*
X40513000Y-29063000D01*
X40767000Y-29063000D01*
X40767000Y-29083000D01*
G36*
X32992560Y-19410000D02*
X32992560Y-20910000D01*
X33041843Y-21157765D01*
X33182191Y-21367809D01*
X33392235Y-21508157D01*
X33401500Y-21510000D01*
X33392235Y-21511843D01*
X33182191Y-21652191D01*
X33041843Y-21862235D01*
X32994549Y-22100000D01*
X31758178Y-22100000D01*
X31550625Y-21789375D01*
X31528967Y-21774904D01*
X31689698Y-21708327D01*
X31868327Y-21529699D01*
X31965000Y-21296310D01*
X31965000Y-20605750D01*
X31806250Y-20447000D01*
X30607000Y-20447000D01*
X30607000Y-20467000D01*
X30353000Y-20467000D01*
X30353000Y-20447000D01*
X30333000Y-20447000D01*
X30333000Y-20193000D01*
X30353000Y-20193000D01*
X30353000Y-20173000D01*
X30607000Y-20173000D01*
X30607000Y-20193000D01*
X31806250Y-20193000D01*
X31965000Y-20034250D01*
X31965000Y-19343690D01*
X31940690Y-19285000D01*
X33017424Y-19285000D01*
X32992560Y-19410000D01*
X32992560Y-19410000D01*
G37*
X32992560Y-19410000D02*
X32992560Y-20910000D01*
X33041843Y-21157765D01*
X33182191Y-21367809D01*
X33392235Y-21508157D01*
X33401500Y-21510000D01*
X33392235Y-21511843D01*
X33182191Y-21652191D01*
X33041843Y-21862235D01*
X32994549Y-22100000D01*
X31758178Y-22100000D01*
X31550625Y-21789375D01*
X31528967Y-21774904D01*
X31689698Y-21708327D01*
X31868327Y-21529699D01*
X31965000Y-21296310D01*
X31965000Y-20605750D01*
X31806250Y-20447000D01*
X30607000Y-20447000D01*
X30607000Y-20467000D01*
X30353000Y-20467000D01*
X30353000Y-20447000D01*
X30333000Y-20447000D01*
X30333000Y-20193000D01*
X30353000Y-20193000D01*
X30353000Y-20173000D01*
X30607000Y-20173000D01*
X30607000Y-20193000D01*
X31806250Y-20193000D01*
X31965000Y-20034250D01*
X31965000Y-19343690D01*
X31940690Y-19285000D01*
X33017424Y-19285000D01*
X32992560Y-19410000D01*
G04 #@! TD*
M02*
