G04 #@! TF.GenerationSoftware,KiCad,Pcbnew,(5.0.1-3-g963ef8bb5)*
G04 #@! TF.CreationDate,2019-01-23T22:51:25-05:00*
G04 #@! TF.ProjectId,WaterSpill,57617465725370696C6C2E6B69636164,rev?*
G04 #@! TF.SameCoordinates,Original*
G04 #@! TF.FileFunction,Paste,Top*
G04 #@! TF.FilePolarity,Positive*
%FSLAX46Y46*%
G04 Gerber Fmt 4.6, Leading zero omitted, Abs format (unit mm)*
G04 Created by KiCad (PCBNEW (5.0.1-3-g963ef8bb5)) date Wednesday, January 23, 2019 at 10:51:25 pm*
%MOMM*%
%LPD*%
G01*
G04 APERTURE LIST*
%ADD10R,1.250000X1.500000*%
%ADD11R,1.000000X1.000000*%
%ADD12R,1.500000X1.300000*%
%ADD13R,2.180000X1.600000*%
%ADD14R,2.500000X1.100000*%
%ADD15R,1.100000X2.500000*%
G04 APERTURE END LIST*
D10*
G04 #@! TO.C,C1*
X33655000Y-28214000D03*
X33655000Y-30714000D03*
G04 #@! TD*
D11*
G04 #@! TO.C,D1*
X55392000Y-19939000D03*
X57892000Y-19939000D03*
G04 #@! TD*
D12*
G04 #@! TO.C,R1*
X35560000Y-44450000D03*
X38260000Y-44450000D03*
G04 #@! TD*
G04 #@! TO.C,R2*
X38260000Y-46990000D03*
X35560000Y-46990000D03*
G04 #@! TD*
G04 #@! TO.C,R3*
X43340000Y-44450000D03*
X40640000Y-44450000D03*
G04 #@! TD*
G04 #@! TO.C,R4*
X43340000Y-46990000D03*
X40640000Y-46990000D03*
G04 #@! TD*
G04 #@! TO.C,R5*
X53500000Y-44450000D03*
X50800000Y-44450000D03*
G04 #@! TD*
G04 #@! TO.C,R6*
X50720000Y-46990000D03*
X53420000Y-46990000D03*
G04 #@! TD*
D13*
G04 #@! TO.C,SW1*
X46210000Y-50800000D03*
X55390000Y-50800000D03*
G04 #@! TD*
G04 #@! TO.C,SW2*
X33510000Y-50800000D03*
X42690000Y-50800000D03*
G04 #@! TD*
D14*
G04 #@! TO.C,U1*
X37400000Y-25400000D03*
X37400000Y-27400000D03*
X37400000Y-29400000D03*
X37400000Y-31400000D03*
X37400000Y-33400000D03*
X37400000Y-35400000D03*
X37400000Y-37400000D03*
X37400000Y-39400000D03*
X52800000Y-39400000D03*
X52800000Y-37400000D03*
X52800000Y-35400000D03*
X52800000Y-33400000D03*
X52800000Y-31400000D03*
X52800000Y-29400000D03*
X52800000Y-27400000D03*
X52800000Y-25400000D03*
D15*
X40090000Y-41100000D03*
X42090000Y-41100000D03*
X44090000Y-41100000D03*
X46090000Y-41100000D03*
X48090000Y-41100000D03*
X50090000Y-41100000D03*
G04 #@! TD*
M02*
