G04 #@! TF.GenerationSoftware,KiCad,Pcbnew,(5.0.1-3-g963ef8bb5)*
G04 #@! TF.CreationDate,2019-01-23T22:51:25-05:00*
G04 #@! TF.ProjectId,WaterSpill,57617465725370696C6C2E6B69636164,rev?*
G04 #@! TF.SameCoordinates,Original*
G04 #@! TF.FileFunction,Soldermask,Bot*
G04 #@! TF.FilePolarity,Negative*
%FSLAX46Y46*%
G04 Gerber Fmt 4.6, Leading zero omitted, Abs format (unit mm)*
G04 Created by KiCad (PCBNEW (5.0.1-3-g963ef8bb5)) date Wednesday, January 23, 2019 at 10:51:25 pm*
%MOMM*%
%LPD*%
G01*
G04 APERTURE LIST*
%ADD10C,0.100000*%
G04 APERTURE END LIST*
D10*
G36*
X54041000Y-47791000D02*
X52639000Y-47791000D01*
X52639000Y-46189000D01*
X54041000Y-46189000D01*
X54041000Y-47791000D01*
X54041000Y-47791000D01*
G37*
G36*
X50311000Y-47666000D02*
X48709000Y-47666000D01*
X48709000Y-46314000D01*
X50311000Y-46314000D01*
X50311000Y-47666000D01*
X50311000Y-47666000D01*
G37*
G36*
X47811000Y-47666000D02*
X46209000Y-47666000D01*
X46209000Y-46314000D01*
X47811000Y-46314000D01*
X47811000Y-47666000D01*
X47811000Y-47666000D01*
G37*
G36*
X30590442Y-44825518D02*
X30656627Y-44832037D01*
X30769853Y-44866384D01*
X30826467Y-44883557D01*
X30965087Y-44957652D01*
X30982991Y-44967222D01*
X31018729Y-44996552D01*
X31120186Y-45079814D01*
X31203448Y-45181271D01*
X31232778Y-45217009D01*
X31232779Y-45217011D01*
X31316443Y-45373533D01*
X31316443Y-45373534D01*
X31367963Y-45543373D01*
X31385359Y-45720000D01*
X31367963Y-45896627D01*
X31333616Y-46009853D01*
X31316443Y-46066467D01*
X31250947Y-46189000D01*
X31232778Y-46222991D01*
X31203448Y-46258729D01*
X31120186Y-46360186D01*
X31018729Y-46443448D01*
X30982991Y-46472778D01*
X30982989Y-46472779D01*
X30826467Y-46556443D01*
X30769853Y-46573616D01*
X30656627Y-46607963D01*
X30590442Y-46614482D01*
X30524260Y-46621000D01*
X30435740Y-46621000D01*
X30369558Y-46614482D01*
X30303373Y-46607963D01*
X30190147Y-46573616D01*
X30133533Y-46556443D01*
X29977011Y-46472779D01*
X29977009Y-46472778D01*
X29941271Y-46443448D01*
X29839814Y-46360186D01*
X29756552Y-46258729D01*
X29727222Y-46222991D01*
X29709053Y-46189000D01*
X29643557Y-46066467D01*
X29626384Y-46009853D01*
X29592037Y-45896627D01*
X29574641Y-45720000D01*
X29592037Y-45543373D01*
X29643557Y-45373534D01*
X29643557Y-45373533D01*
X29727221Y-45217011D01*
X29727222Y-45217009D01*
X29756552Y-45181271D01*
X29839814Y-45079814D01*
X29941271Y-44996552D01*
X29977009Y-44967222D01*
X29994913Y-44957652D01*
X30133533Y-44883557D01*
X30190147Y-44866384D01*
X30303373Y-44832037D01*
X30369558Y-44825518D01*
X30435740Y-44819000D01*
X30524260Y-44819000D01*
X30590442Y-44825518D01*
X30590442Y-44825518D01*
G37*
G36*
X57260442Y-44825518D02*
X57326627Y-44832037D01*
X57439853Y-44866384D01*
X57496467Y-44883557D01*
X57635087Y-44957652D01*
X57652991Y-44967222D01*
X57688729Y-44996552D01*
X57790186Y-45079814D01*
X57873448Y-45181271D01*
X57902778Y-45217009D01*
X57902779Y-45217011D01*
X57986443Y-45373533D01*
X57986443Y-45373534D01*
X58037963Y-45543373D01*
X58055359Y-45720000D01*
X58037963Y-45896627D01*
X58003616Y-46009853D01*
X57986443Y-46066467D01*
X57920947Y-46189000D01*
X57902778Y-46222991D01*
X57873448Y-46258729D01*
X57790186Y-46360186D01*
X57688729Y-46443448D01*
X57652991Y-46472778D01*
X57652989Y-46472779D01*
X57496467Y-46556443D01*
X57439853Y-46573616D01*
X57326627Y-46607963D01*
X57260442Y-46614482D01*
X57194260Y-46621000D01*
X57105740Y-46621000D01*
X57039558Y-46614482D01*
X56973373Y-46607963D01*
X56860147Y-46573616D01*
X56803533Y-46556443D01*
X56647011Y-46472779D01*
X56647009Y-46472778D01*
X56611271Y-46443448D01*
X56509814Y-46360186D01*
X56426552Y-46258729D01*
X56397222Y-46222991D01*
X56379053Y-46189000D01*
X56313557Y-46066467D01*
X56296384Y-46009853D01*
X56262037Y-45896627D01*
X56244641Y-45720000D01*
X56262037Y-45543373D01*
X56313557Y-45373534D01*
X56313557Y-45373533D01*
X56397221Y-45217011D01*
X56397222Y-45217009D01*
X56426552Y-45181271D01*
X56509814Y-45079814D01*
X56611271Y-44996552D01*
X56647009Y-44967222D01*
X56664913Y-44957652D01*
X56803533Y-44883557D01*
X56860147Y-44866384D01*
X56973373Y-44832037D01*
X57039558Y-44825518D01*
X57105740Y-44819000D01*
X57194260Y-44819000D01*
X57260442Y-44825518D01*
X57260442Y-44825518D01*
G37*
G36*
X54041000Y-45091000D02*
X52639000Y-45091000D01*
X52639000Y-43489000D01*
X54041000Y-43489000D01*
X54041000Y-45091000D01*
X54041000Y-45091000D01*
G37*
G36*
X31381000Y-44081000D02*
X29579000Y-44081000D01*
X29579000Y-42279000D01*
X31381000Y-42279000D01*
X31381000Y-44081000D01*
X31381000Y-44081000D01*
G37*
G36*
X58051000Y-44081000D02*
X56249000Y-44081000D01*
X56249000Y-42279000D01*
X58051000Y-42279000D01*
X58051000Y-44081000D01*
X58051000Y-44081000D01*
G37*
G36*
X52771000Y-40251000D02*
X51369000Y-40251000D01*
X51369000Y-38649000D01*
X52771000Y-38649000D01*
X52771000Y-40251000D01*
X52771000Y-40251000D01*
G37*
G36*
X57260442Y-37205518D02*
X57326627Y-37212037D01*
X57439853Y-37246384D01*
X57496467Y-37263557D01*
X57525358Y-37279000D01*
X57652991Y-37347222D01*
X57688729Y-37376552D01*
X57790186Y-37459814D01*
X57865019Y-37551000D01*
X57902778Y-37597009D01*
X57902779Y-37597011D01*
X57986443Y-37753533D01*
X57986443Y-37753534D01*
X58037963Y-37923373D01*
X58055359Y-38100000D01*
X58037963Y-38276627D01*
X58003616Y-38389853D01*
X57986443Y-38446467D01*
X57912348Y-38585087D01*
X57902778Y-38602991D01*
X57873448Y-38638729D01*
X57790186Y-38740186D01*
X57688729Y-38823448D01*
X57652991Y-38852778D01*
X57652989Y-38852779D01*
X57496467Y-38936443D01*
X57439853Y-38953616D01*
X57326627Y-38987963D01*
X57260443Y-38994481D01*
X57194260Y-39001000D01*
X57105740Y-39001000D01*
X57039557Y-38994481D01*
X56973373Y-38987963D01*
X56860147Y-38953616D01*
X56803533Y-38936443D01*
X56647011Y-38852779D01*
X56647009Y-38852778D01*
X56611271Y-38823448D01*
X56509814Y-38740186D01*
X56426552Y-38638729D01*
X56397222Y-38602991D01*
X56387652Y-38585087D01*
X56313557Y-38446467D01*
X56296384Y-38389853D01*
X56262037Y-38276627D01*
X56244641Y-38100000D01*
X56262037Y-37923373D01*
X56313557Y-37753534D01*
X56313557Y-37753533D01*
X56397221Y-37597011D01*
X56397222Y-37597009D01*
X56434981Y-37551000D01*
X56509814Y-37459814D01*
X56611271Y-37376552D01*
X56647009Y-37347222D01*
X56774642Y-37279000D01*
X56803533Y-37263557D01*
X56860147Y-37246384D01*
X56973373Y-37212037D01*
X57039558Y-37205518D01*
X57105740Y-37199000D01*
X57194260Y-37199000D01*
X57260442Y-37205518D01*
X57260442Y-37205518D01*
G37*
G36*
X47666000Y-38881000D02*
X46314000Y-38881000D01*
X46314000Y-37279000D01*
X47666000Y-37279000D01*
X47666000Y-38881000D01*
X47666000Y-38881000D01*
G37*
G36*
X30590442Y-35935518D02*
X30656627Y-35942037D01*
X30769853Y-35976384D01*
X30826467Y-35993557D01*
X30965087Y-36067652D01*
X30982991Y-36077222D01*
X31018729Y-36106552D01*
X31120186Y-36189814D01*
X31203448Y-36291271D01*
X31232778Y-36327009D01*
X31232779Y-36327011D01*
X31316443Y-36483533D01*
X31316443Y-36483534D01*
X31367963Y-36653373D01*
X31385359Y-36830000D01*
X31367963Y-37006627D01*
X31333616Y-37119853D01*
X31316443Y-37176467D01*
X31297430Y-37212037D01*
X31232778Y-37332991D01*
X31203448Y-37368729D01*
X31120186Y-37470186D01*
X31021712Y-37551000D01*
X30982991Y-37582778D01*
X30982989Y-37582779D01*
X30826467Y-37666443D01*
X30769853Y-37683616D01*
X30656627Y-37717963D01*
X30590443Y-37724481D01*
X30524260Y-37731000D01*
X30435740Y-37731000D01*
X30369557Y-37724481D01*
X30303373Y-37717963D01*
X30190147Y-37683616D01*
X30133533Y-37666443D01*
X29977011Y-37582779D01*
X29977009Y-37582778D01*
X29938288Y-37551000D01*
X29839814Y-37470186D01*
X29756552Y-37368729D01*
X29727222Y-37332991D01*
X29662570Y-37212037D01*
X29643557Y-37176467D01*
X29626384Y-37119853D01*
X29592037Y-37006627D01*
X29574641Y-36830000D01*
X29592037Y-36653373D01*
X29643557Y-36483534D01*
X29643557Y-36483533D01*
X29727221Y-36327011D01*
X29727222Y-36327009D01*
X29756552Y-36291271D01*
X29839814Y-36189814D01*
X29941271Y-36106552D01*
X29977009Y-36077222D01*
X29994913Y-36067652D01*
X30133533Y-35993557D01*
X30190147Y-35976384D01*
X30303373Y-35942037D01*
X30369558Y-35935518D01*
X30435740Y-35929000D01*
X30524260Y-35929000D01*
X30590442Y-35935518D01*
X30590442Y-35935518D01*
G37*
G36*
X52771000Y-37551000D02*
X51369000Y-37551000D01*
X51369000Y-35949000D01*
X52771000Y-35949000D01*
X52771000Y-37551000D01*
X52771000Y-37551000D01*
G37*
G36*
X58051000Y-36461000D02*
X56249000Y-36461000D01*
X56249000Y-34659000D01*
X58051000Y-34659000D01*
X58051000Y-36461000D01*
X58051000Y-36461000D01*
G37*
G36*
X47666000Y-36381000D02*
X46314000Y-36381000D01*
X46314000Y-34779000D01*
X47666000Y-34779000D01*
X47666000Y-36381000D01*
X47666000Y-36381000D01*
G37*
G36*
X30590442Y-33395518D02*
X30656627Y-33402037D01*
X30769853Y-33436384D01*
X30826467Y-33453557D01*
X30965087Y-33527652D01*
X30982991Y-33537222D01*
X31018729Y-33566552D01*
X31120186Y-33649814D01*
X31203448Y-33751271D01*
X31232778Y-33787009D01*
X31232779Y-33787011D01*
X31316443Y-33943533D01*
X31316443Y-33943534D01*
X31367963Y-34113373D01*
X31385359Y-34290000D01*
X31367963Y-34466627D01*
X31333616Y-34579853D01*
X31316443Y-34636467D01*
X31242348Y-34775087D01*
X31232778Y-34792991D01*
X31203448Y-34828729D01*
X31120186Y-34930186D01*
X31018729Y-35013448D01*
X30982991Y-35042778D01*
X30982989Y-35042779D01*
X30826467Y-35126443D01*
X30769853Y-35143616D01*
X30656627Y-35177963D01*
X30590442Y-35184482D01*
X30524260Y-35191000D01*
X30435740Y-35191000D01*
X30369558Y-35184482D01*
X30303373Y-35177963D01*
X30190147Y-35143616D01*
X30133533Y-35126443D01*
X29977011Y-35042779D01*
X29977009Y-35042778D01*
X29941271Y-35013448D01*
X29839814Y-34930186D01*
X29756552Y-34828729D01*
X29727222Y-34792991D01*
X29717652Y-34775087D01*
X29643557Y-34636467D01*
X29626384Y-34579853D01*
X29592037Y-34466627D01*
X29574641Y-34290000D01*
X29592037Y-34113373D01*
X29643557Y-33943534D01*
X29643557Y-33943533D01*
X29727221Y-33787011D01*
X29727222Y-33787009D01*
X29756552Y-33751271D01*
X29839814Y-33649814D01*
X29941271Y-33566552D01*
X29977009Y-33537222D01*
X29994913Y-33527652D01*
X30133533Y-33453557D01*
X30190147Y-33436384D01*
X30303373Y-33402037D01*
X30369558Y-33395518D01*
X30435740Y-33389000D01*
X30524260Y-33389000D01*
X30590442Y-33395518D01*
X30590442Y-33395518D01*
G37*
G36*
X49221000Y-33371000D02*
X47619000Y-33371000D01*
X47619000Y-32669000D01*
X49221000Y-32669000D01*
X49221000Y-33371000D01*
X49221000Y-33371000D01*
G37*
G36*
X43821000Y-33371000D02*
X42219000Y-33371000D01*
X42219000Y-32669000D01*
X43821000Y-32669000D01*
X43821000Y-33371000D01*
X43821000Y-33371000D01*
G37*
G36*
X31381000Y-32651000D02*
X29579000Y-32651000D01*
X29579000Y-30849000D01*
X31381000Y-30849000D01*
X31381000Y-32651000D01*
X31381000Y-32651000D01*
G37*
G36*
X51349000Y-32404000D02*
X49997000Y-32404000D01*
X49997000Y-30802000D01*
X51349000Y-30802000D01*
X51349000Y-32404000D01*
X51349000Y-32404000D01*
G37*
G36*
X49221000Y-32101000D02*
X47619000Y-32101000D01*
X47619000Y-31399000D01*
X49221000Y-31399000D01*
X49221000Y-32101000D01*
X49221000Y-32101000D01*
G37*
G36*
X43821000Y-32101000D02*
X42219000Y-32101000D01*
X42219000Y-31399000D01*
X43821000Y-31399000D01*
X43821000Y-32101000D01*
X43821000Y-32101000D01*
G37*
G36*
X54168000Y-31996000D02*
X52766000Y-31996000D01*
X52766000Y-30394000D01*
X54168000Y-30394000D01*
X54168000Y-31996000D01*
X54168000Y-31996000D01*
G37*
G36*
X57260443Y-29585519D02*
X57326627Y-29592037D01*
X57439853Y-29626384D01*
X57496467Y-29643557D01*
X57635087Y-29717652D01*
X57652991Y-29727222D01*
X57688729Y-29756552D01*
X57790186Y-29839814D01*
X57842861Y-29904000D01*
X57902778Y-29977009D01*
X57902779Y-29977011D01*
X57986443Y-30133533D01*
X57986443Y-30133534D01*
X58037963Y-30303373D01*
X58055359Y-30480000D01*
X58037963Y-30656627D01*
X58003616Y-30769853D01*
X57986443Y-30826467D01*
X57912348Y-30965087D01*
X57902778Y-30982991D01*
X57873448Y-31018729D01*
X57790186Y-31120186D01*
X57688729Y-31203448D01*
X57652991Y-31232778D01*
X57652989Y-31232779D01*
X57496467Y-31316443D01*
X57439853Y-31333616D01*
X57326627Y-31367963D01*
X57260443Y-31374481D01*
X57194260Y-31381000D01*
X57105740Y-31381000D01*
X57039557Y-31374481D01*
X56973373Y-31367963D01*
X56860147Y-31333616D01*
X56803533Y-31316443D01*
X56647011Y-31232779D01*
X56647009Y-31232778D01*
X56611271Y-31203448D01*
X56509814Y-31120186D01*
X56426552Y-31018729D01*
X56397222Y-30982991D01*
X56387652Y-30965087D01*
X56313557Y-30826467D01*
X56296384Y-30769853D01*
X56262037Y-30656627D01*
X56244641Y-30480000D01*
X56262037Y-30303373D01*
X56313557Y-30133534D01*
X56313557Y-30133533D01*
X56397221Y-29977011D01*
X56397222Y-29977009D01*
X56457139Y-29904000D01*
X56509814Y-29839814D01*
X56611271Y-29756552D01*
X56647009Y-29727222D01*
X56664913Y-29717652D01*
X56803533Y-29643557D01*
X56860147Y-29626384D01*
X56973373Y-29592037D01*
X57039557Y-29585519D01*
X57105740Y-29579000D01*
X57194260Y-29579000D01*
X57260443Y-29585519D01*
X57260443Y-29585519D01*
G37*
G36*
X49221000Y-30831000D02*
X47619000Y-30831000D01*
X47619000Y-30129000D01*
X49221000Y-30129000D01*
X49221000Y-30831000D01*
X49221000Y-30831000D01*
G37*
G36*
X43821000Y-30831000D02*
X42219000Y-30831000D01*
X42219000Y-30129000D01*
X43821000Y-30129000D01*
X43821000Y-30831000D01*
X43821000Y-30831000D01*
G37*
G36*
X41316000Y-30011000D02*
X39964000Y-30011000D01*
X39964000Y-28409000D01*
X41316000Y-28409000D01*
X41316000Y-30011000D01*
X41316000Y-30011000D01*
G37*
G36*
X51349000Y-29904000D02*
X49997000Y-29904000D01*
X49997000Y-28302000D01*
X51349000Y-28302000D01*
X51349000Y-29904000D01*
X51349000Y-29904000D01*
G37*
G36*
X49221000Y-29561000D02*
X47619000Y-29561000D01*
X47619000Y-28859000D01*
X49221000Y-28859000D01*
X49221000Y-29561000D01*
X49221000Y-29561000D01*
G37*
G36*
X43821000Y-29561000D02*
X42219000Y-29561000D01*
X42219000Y-28859000D01*
X43821000Y-28859000D01*
X43821000Y-29561000D01*
X43821000Y-29561000D01*
G37*
G36*
X54168000Y-29296000D02*
X52766000Y-29296000D01*
X52766000Y-27694000D01*
X54168000Y-27694000D01*
X54168000Y-29296000D01*
X54168000Y-29296000D01*
G37*
G36*
X57260443Y-27045519D02*
X57326627Y-27052037D01*
X57439853Y-27086384D01*
X57496467Y-27103557D01*
X57562775Y-27139000D01*
X57652991Y-27187222D01*
X57688729Y-27216552D01*
X57790186Y-27299814D01*
X57873448Y-27401271D01*
X57902778Y-27437009D01*
X57902779Y-27437011D01*
X57986443Y-27593533D01*
X57986443Y-27593534D01*
X58037963Y-27763373D01*
X58055359Y-27940000D01*
X58037963Y-28116627D01*
X58003616Y-28229853D01*
X57986443Y-28286467D01*
X57984020Y-28291000D01*
X57902778Y-28442991D01*
X57873448Y-28478729D01*
X57790186Y-28580186D01*
X57688729Y-28663448D01*
X57652991Y-28692778D01*
X57652989Y-28692779D01*
X57496467Y-28776443D01*
X57439853Y-28793616D01*
X57326627Y-28827963D01*
X57260442Y-28834482D01*
X57194260Y-28841000D01*
X57105740Y-28841000D01*
X57039558Y-28834482D01*
X56973373Y-28827963D01*
X56860147Y-28793616D01*
X56803533Y-28776443D01*
X56647011Y-28692779D01*
X56647009Y-28692778D01*
X56611271Y-28663448D01*
X56509814Y-28580186D01*
X56426552Y-28478729D01*
X56397222Y-28442991D01*
X56315980Y-28291000D01*
X56313557Y-28286467D01*
X56296384Y-28229853D01*
X56262037Y-28116627D01*
X56244641Y-27940000D01*
X56262037Y-27763373D01*
X56313557Y-27593534D01*
X56313557Y-27593533D01*
X56397221Y-27437011D01*
X56397222Y-27437009D01*
X56426552Y-27401271D01*
X56509814Y-27299814D01*
X56611271Y-27216552D01*
X56647009Y-27187222D01*
X56737225Y-27139000D01*
X56803533Y-27103557D01*
X56860147Y-27086384D01*
X56973373Y-27052037D01*
X57039557Y-27045519D01*
X57105740Y-27039000D01*
X57194260Y-27039000D01*
X57260443Y-27045519D01*
X57260443Y-27045519D01*
G37*
G36*
X37506000Y-28741000D02*
X36154000Y-28741000D01*
X36154000Y-27139000D01*
X37506000Y-27139000D01*
X37506000Y-28741000D01*
X37506000Y-28741000D01*
G37*
G36*
X34991000Y-28741000D02*
X33589000Y-28741000D01*
X33589000Y-27139000D01*
X34991000Y-27139000D01*
X34991000Y-28741000D01*
X34991000Y-28741000D01*
G37*
G36*
X43821000Y-28291000D02*
X42219000Y-28291000D01*
X42219000Y-27589000D01*
X43821000Y-27589000D01*
X43821000Y-28291000D01*
X43821000Y-28291000D01*
G37*
G36*
X49221000Y-28291000D02*
X47619000Y-28291000D01*
X47619000Y-27589000D01*
X49221000Y-27589000D01*
X49221000Y-28291000D01*
X49221000Y-28291000D01*
G37*
G36*
X41316000Y-27511000D02*
X39964000Y-27511000D01*
X39964000Y-25909000D01*
X41316000Y-25909000D01*
X41316000Y-27511000D01*
X41316000Y-27511000D01*
G37*
G36*
X51809000Y-27248000D02*
X50807000Y-27248000D01*
X50807000Y-26346000D01*
X51809000Y-26346000D01*
X51809000Y-27248000D01*
X51809000Y-27248000D01*
G37*
G36*
X49221000Y-27021000D02*
X47619000Y-27021000D01*
X47619000Y-26319000D01*
X49221000Y-26319000D01*
X49221000Y-27021000D01*
X49221000Y-27021000D01*
G37*
G36*
X43821000Y-27021000D02*
X42219000Y-27021000D01*
X42219000Y-26319000D01*
X43821000Y-26319000D01*
X43821000Y-27021000D01*
X43821000Y-27021000D01*
G37*
G36*
X58051000Y-26301000D02*
X56249000Y-26301000D01*
X56249000Y-24499000D01*
X58051000Y-24499000D01*
X58051000Y-26301000D01*
X58051000Y-26301000D01*
G37*
G36*
X30590442Y-24505518D02*
X30656627Y-24512037D01*
X30769853Y-24546384D01*
X30826467Y-24563557D01*
X30965087Y-24637652D01*
X30982991Y-24647222D01*
X31018729Y-24676552D01*
X31120186Y-24759814D01*
X31203448Y-24861271D01*
X31232778Y-24897009D01*
X31232779Y-24897011D01*
X31316443Y-25053533D01*
X31316443Y-25053534D01*
X31367963Y-25223373D01*
X31385359Y-25400000D01*
X31367963Y-25576627D01*
X31333616Y-25689853D01*
X31316443Y-25746467D01*
X31314020Y-25751000D01*
X31232778Y-25902991D01*
X31203448Y-25938729D01*
X31120186Y-26040186D01*
X31018729Y-26123448D01*
X30982991Y-26152778D01*
X30982989Y-26152779D01*
X30826467Y-26236443D01*
X30811444Y-26241000D01*
X30656627Y-26287963D01*
X30590443Y-26294481D01*
X30524260Y-26301000D01*
X30435740Y-26301000D01*
X30369557Y-26294481D01*
X30303373Y-26287963D01*
X30148556Y-26241000D01*
X30133533Y-26236443D01*
X29977011Y-26152779D01*
X29977009Y-26152778D01*
X29941271Y-26123448D01*
X29839814Y-26040186D01*
X29756552Y-25938729D01*
X29727222Y-25902991D01*
X29645980Y-25751000D01*
X29643557Y-25746467D01*
X29626384Y-25689853D01*
X29592037Y-25576627D01*
X29574641Y-25400000D01*
X29592037Y-25223373D01*
X29643557Y-25053534D01*
X29643557Y-25053533D01*
X29727221Y-24897011D01*
X29727222Y-24897009D01*
X29756552Y-24861271D01*
X29839814Y-24759814D01*
X29941271Y-24676552D01*
X29977009Y-24647222D01*
X29994913Y-24637652D01*
X30133533Y-24563557D01*
X30190147Y-24546384D01*
X30303373Y-24512037D01*
X30369557Y-24505519D01*
X30435740Y-24499000D01*
X30524260Y-24499000D01*
X30590442Y-24505518D01*
X30590442Y-24505518D01*
G37*
G36*
X53809000Y-26298000D02*
X52807000Y-26298000D01*
X52807000Y-25396000D01*
X53809000Y-25396000D01*
X53809000Y-26298000D01*
X53809000Y-26298000D01*
G37*
G36*
X37506000Y-26241000D02*
X36154000Y-26241000D01*
X36154000Y-24639000D01*
X37506000Y-24639000D01*
X37506000Y-26241000D01*
X37506000Y-26241000D01*
G37*
G36*
X34991000Y-26041000D02*
X33589000Y-26041000D01*
X33589000Y-24439000D01*
X34991000Y-24439000D01*
X34991000Y-26041000D01*
X34991000Y-26041000D01*
G37*
G36*
X43821000Y-25751000D02*
X42219000Y-25751000D01*
X42219000Y-25049000D01*
X43821000Y-25049000D01*
X43821000Y-25751000D01*
X43821000Y-25751000D01*
G37*
G36*
X49221000Y-25751000D02*
X47619000Y-25751000D01*
X47619000Y-25049000D01*
X49221000Y-25049000D01*
X49221000Y-25751000D01*
X49221000Y-25751000D01*
G37*
G36*
X51809000Y-25348000D02*
X50807000Y-25348000D01*
X50807000Y-24446000D01*
X51809000Y-24446000D01*
X51809000Y-25348000D01*
X51809000Y-25348000D01*
G37*
G36*
X30590443Y-21965519D02*
X30656627Y-21972037D01*
X30769853Y-22006384D01*
X30826467Y-22023557D01*
X30892775Y-22059000D01*
X30982991Y-22107222D01*
X31018729Y-22136552D01*
X31120186Y-22219814D01*
X31203448Y-22321271D01*
X31232778Y-22357009D01*
X31232779Y-22357011D01*
X31316443Y-22513533D01*
X31316443Y-22513534D01*
X31367963Y-22683373D01*
X31385359Y-22860000D01*
X31367963Y-23036627D01*
X31333616Y-23149853D01*
X31316443Y-23206467D01*
X31242348Y-23345087D01*
X31232778Y-23362991D01*
X31203448Y-23398729D01*
X31120186Y-23500186D01*
X31018729Y-23583448D01*
X30982991Y-23612778D01*
X30982989Y-23612779D01*
X30826467Y-23696443D01*
X30769853Y-23713616D01*
X30656627Y-23747963D01*
X30590442Y-23754482D01*
X30524260Y-23761000D01*
X30435740Y-23761000D01*
X30369558Y-23754482D01*
X30303373Y-23747963D01*
X30190147Y-23713616D01*
X30133533Y-23696443D01*
X29977011Y-23612779D01*
X29977009Y-23612778D01*
X29941271Y-23583448D01*
X29839814Y-23500186D01*
X29756552Y-23398729D01*
X29727222Y-23362991D01*
X29717652Y-23345087D01*
X29643557Y-23206467D01*
X29626384Y-23149853D01*
X29592037Y-23036627D01*
X29574641Y-22860000D01*
X29592037Y-22683373D01*
X29643557Y-22513534D01*
X29643557Y-22513533D01*
X29727221Y-22357011D01*
X29727222Y-22357009D01*
X29756552Y-22321271D01*
X29839814Y-22219814D01*
X29941271Y-22136552D01*
X29977009Y-22107222D01*
X30067225Y-22059000D01*
X30133533Y-22023557D01*
X30190147Y-22006384D01*
X30303373Y-21972037D01*
X30369557Y-21965519D01*
X30435740Y-21959000D01*
X30524260Y-21959000D01*
X30590443Y-21965519D01*
X30590443Y-21965519D01*
G37*
G36*
X34991000Y-23661000D02*
X33589000Y-23661000D01*
X33589000Y-22059000D01*
X34991000Y-22059000D01*
X34991000Y-23661000D01*
X34991000Y-23661000D01*
G37*
G36*
X31381000Y-21221000D02*
X29579000Y-21221000D01*
X29579000Y-19419000D01*
X31381000Y-19419000D01*
X31381000Y-21221000D01*
X31381000Y-21221000D01*
G37*
G36*
X34991000Y-20961000D02*
X33589000Y-20961000D01*
X33589000Y-19359000D01*
X34991000Y-19359000D01*
X34991000Y-20961000D01*
X34991000Y-20961000D01*
G37*
M02*
