M48
INCH,TZ
T1C0.0157
T2C0.0394
%
G90
G05
T1
X12500Y-11500
X13200Y-16500
X13250Y-12900
X14150Y-7150
X15500Y-9900
X15750Y-12350
X15800Y-20000
X16950Y-15200
X17450Y-10500
X17700Y-12450
X17750Y-15000
X18000Y-9600
X18350Y-11000
X18435Y-12400
X18500Y-17700
X20500Y-16650
X21750Y-12350
X21750Y-15500
T2
X22500Y-17000
X22500Y-18000
X12000Y-17000
X12000Y-18000
X12000Y-12500
X12000Y-13500
X12000Y-14500
X22500Y-10000
X22500Y-11000
X22500Y-12000
X12000Y-8000
X12000Y-9000
X12000Y-10000
X22500Y-14000
X22500Y-15000
T0
M30
