G04 #@! TF.GenerationSoftware,KiCad,Pcbnew,(5.0.1-3-g963ef8bb5)*
G04 #@! TF.CreationDate,2019-01-23T22:51:25-05:00*
G04 #@! TF.ProjectId,WaterSpill,57617465725370696C6C2E6B69636164,rev?*
G04 #@! TF.SameCoordinates,Original*
G04 #@! TF.FileFunction,Copper,L1,Top,Signal*
G04 #@! TF.FilePolarity,Positive*
%FSLAX46Y46*%
G04 Gerber Fmt 4.6, Leading zero omitted, Abs format (unit mm)*
G04 Created by KiCad (PCBNEW (5.0.1-3-g963ef8bb5)) date Wednesday, January 23, 2019 at 10:51:25 pm*
%MOMM*%
%LPD*%
G01*
G04 APERTURE LIST*
G04 #@! TA.AperFunction,ComponentPad*
%ADD10O,1.700000X1.700000*%
G04 #@! TD*
G04 #@! TA.AperFunction,ComponentPad*
%ADD11R,1.700000X1.700000*%
G04 #@! TD*
G04 #@! TA.AperFunction,SMDPad,CuDef*
%ADD12R,1.250000X1.500000*%
G04 #@! TD*
G04 #@! TA.AperFunction,SMDPad,CuDef*
%ADD13R,1.000000X1.000000*%
G04 #@! TD*
G04 #@! TA.AperFunction,SMDPad,CuDef*
%ADD14R,1.500000X1.300000*%
G04 #@! TD*
G04 #@! TA.AperFunction,SMDPad,CuDef*
%ADD15R,2.180000X1.600000*%
G04 #@! TD*
G04 #@! TA.AperFunction,SMDPad,CuDef*
%ADD16R,2.500000X1.100000*%
G04 #@! TD*
G04 #@! TA.AperFunction,SMDPad,CuDef*
%ADD17R,1.100000X2.500000*%
G04 #@! TD*
G04 #@! TA.AperFunction,ViaPad*
%ADD18C,0.800000*%
G04 #@! TD*
G04 #@! TA.AperFunction,Conductor*
%ADD19C,0.350000*%
G04 #@! TD*
G04 #@! TA.AperFunction,Conductor*
%ADD20C,0.450000*%
G04 #@! TD*
G04 #@! TA.AperFunction,Conductor*
%ADD21C,0.250000*%
G04 #@! TD*
G04 #@! TA.AperFunction,Conductor*
%ADD22C,0.254000*%
G04 #@! TD*
G04 APERTURE END LIST*
D10*
G04 #@! TO.P,BT1,2*
G04 #@! TO.N,GND*
X30480000Y-45720000D03*
D11*
G04 #@! TO.P,BT1,1*
G04 #@! TO.N,VCC*
X30480000Y-43180000D03*
G04 #@! TD*
D12*
G04 #@! TO.P,C1,2*
G04 #@! TO.N,GND*
X33655000Y-28214000D03*
G04 #@! TO.P,C1,1*
G04 #@! TO.N,Net-(C1-Pad1)*
X33655000Y-30714000D03*
G04 #@! TD*
D13*
G04 #@! TO.P,D1,2*
G04 #@! TO.N,RXD*
X55392000Y-19939000D03*
G04 #@! TO.P,D1,1*
G04 #@! TO.N,Net-(D1-Pad1)*
X57892000Y-19939000D03*
G04 #@! TD*
D10*
G04 #@! TO.P,J1,3*
G04 #@! TO.N,TXD*
X57150000Y-30480000D03*
G04 #@! TO.P,J1,2*
G04 #@! TO.N,Net-(D1-Pad1)*
X57150000Y-27940000D03*
D11*
G04 #@! TO.P,J1,1*
G04 #@! TO.N,GND*
X57150000Y-25400000D03*
G04 #@! TD*
D10*
G04 #@! TO.P,J2,2*
G04 #@! TO.N,GND*
X57150000Y-45720000D03*
D11*
G04 #@! TO.P,J2,1*
G04 #@! TO.N,Net-(J2-Pad1)*
X57150000Y-43180000D03*
G04 #@! TD*
D10*
G04 #@! TO.P,J3,3*
G04 #@! TO.N,Net-(J3-Pad3)*
X30480000Y-25400000D03*
G04 #@! TO.P,J3,2*
G04 #@! TO.N,ADC*
X30480000Y-22860000D03*
D11*
G04 #@! TO.P,J3,1*
G04 #@! TO.N,GND*
X30480000Y-20320000D03*
G04 #@! TD*
G04 #@! TO.P,J4,1*
G04 #@! TO.N,RESET*
X30480000Y-31750000D03*
D10*
G04 #@! TO.P,J4,2*
G04 #@! TO.N,GPIO_16*
X30480000Y-34290000D03*
G04 #@! TO.P,J4,3*
G04 #@! TO.N,Net-(J4-Pad3)*
X30480000Y-36830000D03*
G04 #@! TD*
D11*
G04 #@! TO.P,J5,1*
G04 #@! TO.N,Net-(J5-Pad1)*
X57150000Y-35560000D03*
D10*
G04 #@! TO.P,J5,2*
G04 #@! TO.N,Net-(J2-Pad1)*
X57150000Y-38100000D03*
G04 #@! TD*
D14*
G04 #@! TO.P,R1,2*
G04 #@! TO.N,Net-(C1-Pad1)*
X35560000Y-44450000D03*
G04 #@! TO.P,R1,1*
G04 #@! TO.N,VCC*
X38260000Y-44450000D03*
G04 #@! TD*
G04 #@! TO.P,R2,1*
G04 #@! TO.N,VCC*
X38260000Y-46990000D03*
G04 #@! TO.P,R2,2*
G04 #@! TO.N,RESET*
X35560000Y-46990000D03*
G04 #@! TD*
G04 #@! TO.P,R3,2*
G04 #@! TO.N,GPIO_16*
X43340000Y-44450000D03*
G04 #@! TO.P,R3,1*
G04 #@! TO.N,VCC*
X40640000Y-44450000D03*
G04 #@! TD*
G04 #@! TO.P,R4,2*
G04 #@! TO.N,GPIO_0*
X43340000Y-46990000D03*
G04 #@! TO.P,R4,1*
G04 #@! TO.N,VCC*
X40640000Y-46990000D03*
G04 #@! TD*
G04 #@! TO.P,R5,2*
G04 #@! TO.N,Net-(R5-Pad2)*
X53500000Y-44450000D03*
G04 #@! TO.P,R5,1*
G04 #@! TO.N,VCC*
X50800000Y-44450000D03*
G04 #@! TD*
G04 #@! TO.P,R6,1*
G04 #@! TO.N,Net-(R6-Pad1)*
X50720000Y-46990000D03*
G04 #@! TO.P,R6,2*
G04 #@! TO.N,GND*
X53420000Y-46990000D03*
G04 #@! TD*
D15*
G04 #@! TO.P,SW1,2*
G04 #@! TO.N,GND*
X46210000Y-50800000D03*
G04 #@! TO.P,SW1,1*
G04 #@! TO.N,GPIO_0*
X55390000Y-50800000D03*
G04 #@! TD*
G04 #@! TO.P,SW2,1*
G04 #@! TO.N,RESET*
X33510000Y-50800000D03*
G04 #@! TO.P,SW2,2*
G04 #@! TO.N,GND*
X42690000Y-50800000D03*
G04 #@! TD*
D16*
G04 #@! TO.P,U1,1*
G04 #@! TO.N,RESET*
X37400000Y-25400000D03*
G04 #@! TO.P,U1,2*
G04 #@! TO.N,ADC*
X37400000Y-27400000D03*
G04 #@! TO.P,U1,3*
G04 #@! TO.N,Net-(C1-Pad1)*
X37400000Y-29400000D03*
G04 #@! TO.P,U1,4*
G04 #@! TO.N,GPIO_16*
X37400000Y-31400000D03*
G04 #@! TO.P,U1,5*
G04 #@! TO.N,GPIO_14*
X37400000Y-33400000D03*
G04 #@! TO.P,U1,6*
G04 #@! TO.N,Net-(U1-Pad6)*
X37400000Y-35400000D03*
G04 #@! TO.P,U1,7*
G04 #@! TO.N,Net-(U1-Pad7)*
X37400000Y-37400000D03*
G04 #@! TO.P,U1,8*
G04 #@! TO.N,VCC*
X37400000Y-39400000D03*
G04 #@! TO.P,U1,9*
G04 #@! TO.N,GND*
X52800000Y-39400000D03*
G04 #@! TO.P,U1,10*
G04 #@! TO.N,Net-(R6-Pad1)*
X52800000Y-37400000D03*
G04 #@! TO.P,U1,11*
G04 #@! TO.N,Net-(R5-Pad2)*
X52800000Y-35400000D03*
G04 #@! TO.P,U1,12*
G04 #@! TO.N,GPIO_0*
X52800000Y-33400000D03*
G04 #@! TO.P,U1,13*
G04 #@! TO.N,Net-(U1-Pad13)*
X52800000Y-31400000D03*
G04 #@! TO.P,U1,14*
G04 #@! TO.N,Net-(U1-Pad14)*
X52800000Y-29400000D03*
G04 #@! TO.P,U1,15*
G04 #@! TO.N,RXD*
X52800000Y-27400000D03*
G04 #@! TO.P,U1,16*
G04 #@! TO.N,TXD*
X52800000Y-25400000D03*
D17*
G04 #@! TO.P,U1,17*
G04 #@! TO.N,Net-(U1-Pad17)*
X40090000Y-41100000D03*
G04 #@! TO.P,U1,18*
G04 #@! TO.N,Net-(U1-Pad18)*
X42090000Y-41100000D03*
G04 #@! TO.P,U1,19*
G04 #@! TO.N,Net-(U1-Pad19)*
X44090000Y-41100000D03*
G04 #@! TO.P,U1,20*
G04 #@! TO.N,Net-(U1-Pad20)*
X46090000Y-41100000D03*
G04 #@! TO.P,U1,21*
G04 #@! TO.N,Net-(U1-Pad21)*
X48090000Y-41100000D03*
G04 #@! TO.P,U1,22*
G04 #@! TO.N,Net-(U1-Pad22)*
X50090000Y-41100000D03*
G04 #@! TD*
D18*
G04 #@! TO.N,GND*
X40132000Y-50800000D03*
X35941000Y-18161000D03*
X31750000Y-29210000D03*
X55245000Y-31369000D03*
X55245000Y-39370000D03*
G04 #@! TO.N,VCC*
X45085000Y-38100000D03*
X46990000Y-44958000D03*
X52070000Y-42291000D03*
X45720000Y-24384000D03*
G04 #@! TO.N,Net-(C1-Pad1)*
X33655000Y-32766000D03*
X33528000Y-41910000D03*
G04 #@! TO.N,GPIO_14*
X46609000Y-27940000D03*
G04 #@! TO.N,ADC*
X39370000Y-25146000D03*
G04 #@! TO.N,RESET*
X44958000Y-31623000D03*
G04 #@! TO.N,GPIO_16*
X43053000Y-38608000D03*
X40005000Y-31369000D03*
G04 #@! TO.N,Net-(U2-Pad13)*
X44323000Y-26670000D03*
X46826000Y-31496000D03*
G04 #@! TD*
D19*
G04 #@! TO.N,GND*
X44030000Y-50800000D02*
X46210000Y-50800000D01*
X42690000Y-50800000D02*
X44030000Y-50800000D01*
X55880000Y-46990000D02*
X57150000Y-45720000D01*
X53420000Y-46990000D02*
X55880000Y-46990000D01*
X42690000Y-50800000D02*
X40132000Y-50800000D01*
X52100000Y-39400000D02*
X55088000Y-39400000D01*
X30480000Y-19220000D02*
X31496000Y-18204000D01*
X30480000Y-20320000D02*
X30480000Y-19220000D01*
X35898000Y-18204000D02*
X35941000Y-18161000D01*
X31496000Y-18204000D02*
X35898000Y-18204000D01*
X32746000Y-28214000D02*
X31750000Y-29210000D01*
X33655000Y-28214000D02*
X32746000Y-28214000D01*
D20*
X55245000Y-31369000D02*
X55245000Y-38735000D01*
X55245000Y-38735000D02*
X55245000Y-39370000D01*
D19*
G04 #@! TO.N,VCC*
X45085000Y-38100000D02*
X44685001Y-37700001D01*
D21*
G04 #@! TO.N,Net-(C1-Pad1)*
X33655000Y-30589000D02*
X33655000Y-30714000D01*
X34844000Y-29400000D02*
X33655000Y-30589000D01*
X38100000Y-29400000D02*
X34844000Y-29400000D01*
X33655000Y-30714000D02*
X33655000Y-32766000D01*
X35560000Y-43942000D02*
X35560000Y-44450000D01*
X33528000Y-41910000D02*
X35560000Y-43942000D01*
G04 #@! TO.N,GPIO_14*
X43054000Y-33400000D02*
X38100000Y-33400000D01*
X45467000Y-33400000D02*
X43054000Y-33400000D01*
X46609000Y-28505685D02*
X46101000Y-29013685D01*
X46609000Y-27940000D02*
X46609000Y-28505685D01*
X46101000Y-32766000D02*
X45467000Y-33400000D01*
X46101000Y-29013685D02*
X46101000Y-32766000D01*
G04 #@! TO.N,ADC*
X38100000Y-27400000D02*
X38640000Y-27400000D01*
X38640000Y-27400000D02*
X39370000Y-26670000D01*
X39370000Y-26670000D02*
X39370000Y-25146000D01*
G04 #@! TO.N,RXD*
X50419000Y-24384000D02*
X51054000Y-23749000D01*
X55392000Y-21951000D02*
X55392000Y-19939000D01*
X51054000Y-23749000D02*
X53594000Y-23749000D01*
X50641000Y-27400000D02*
X50419000Y-27178000D01*
X53594000Y-23749000D02*
X55392000Y-21951000D01*
X50419000Y-27178000D02*
X50419000Y-24384000D01*
X52100000Y-27400000D02*
X50641000Y-27400000D01*
G04 #@! TO.N,Net-(D1-Pad1)*
X58801000Y-26289000D02*
X57150000Y-27940000D01*
X58801000Y-26289000D02*
X58801000Y-22352000D01*
X57892000Y-21443000D02*
X57892000Y-19939000D01*
X58801000Y-22352000D02*
X57892000Y-21443000D01*
G04 #@! TO.N,TXD*
X53185002Y-25400000D02*
X52100000Y-25400000D01*
X54737000Y-25400000D02*
X52100000Y-25400000D01*
X55245000Y-25908000D02*
X54737000Y-25400000D01*
X55245000Y-28575000D02*
X55245000Y-25908000D01*
X57150000Y-30480000D02*
X55245000Y-28575000D01*
G04 #@! TO.N,Net-(J2-Pad1)*
X57150000Y-43180000D02*
X57150000Y-38100000D01*
G04 #@! TO.N,RESET*
X28956000Y-47586000D02*
X28956000Y-32174000D01*
X29380000Y-31750000D02*
X30480000Y-31750000D01*
X32170000Y-50800000D02*
X28956000Y-47586000D01*
X28956000Y-32174000D02*
X29380000Y-31750000D01*
X33510000Y-50800000D02*
X32170000Y-50800000D01*
X35460000Y-46990000D02*
X35560000Y-46990000D01*
X33510000Y-48940000D02*
X35460000Y-46990000D01*
X33510000Y-50800000D02*
X33510000Y-48940000D01*
X33528000Y-25400000D02*
X38100000Y-25400000D01*
X30480000Y-28448000D02*
X33528000Y-25400000D01*
X30480000Y-31750000D02*
X30480000Y-28448000D01*
X38100000Y-24765000D02*
X38100000Y-25400000D01*
X40259000Y-24384000D02*
X38481000Y-24384000D01*
X38481000Y-24384000D02*
X38100000Y-24765000D01*
X44958000Y-29083000D02*
X40259000Y-24384000D01*
X44958000Y-31623000D02*
X44958000Y-29083000D01*
G04 #@! TO.N,GPIO_16*
X38131000Y-31369000D02*
X38100000Y-31400000D01*
X40005000Y-31369000D02*
X38131000Y-31369000D01*
X33782000Y-34290000D02*
X36672000Y-31400000D01*
X36672000Y-31400000D02*
X38100000Y-31400000D01*
X30480000Y-34290000D02*
X33782000Y-34290000D01*
X43053000Y-42799000D02*
X43340000Y-43086000D01*
X43340000Y-43086000D02*
X43340000Y-44450000D01*
X43053000Y-38608000D02*
X43053000Y-42799000D01*
G04 #@! TO.N,GPIO_0*
X43340000Y-48166000D02*
X43340000Y-46990000D01*
X43942000Y-48768000D02*
X43340000Y-48166000D01*
X48641000Y-48768000D02*
X43942000Y-48768000D01*
X50673000Y-50800000D02*
X48641000Y-48768000D01*
X55390000Y-50800000D02*
X50673000Y-50800000D01*
X52100000Y-33400000D02*
X48769000Y-33400000D01*
X48769000Y-33400000D02*
X47117000Y-35052000D01*
X47117000Y-35052000D02*
X47117000Y-42799000D01*
X47117000Y-42799000D02*
X45593000Y-44323000D01*
X43440000Y-46990000D02*
X43340000Y-46990000D01*
X45593000Y-44837000D02*
X43440000Y-46990000D01*
X45593000Y-44323000D02*
X45593000Y-44837000D01*
G04 #@! TO.N,Net-(R5-Pad2)*
X51054000Y-40513000D02*
X51689000Y-41148000D01*
X51308000Y-38354000D02*
X51054000Y-38608000D01*
X51054000Y-38608000D02*
X51054000Y-40513000D01*
X54610000Y-35814000D02*
X54610000Y-38100000D01*
X54356000Y-38354000D02*
X51308000Y-38354000D01*
X52705000Y-41148000D02*
X53500000Y-41943000D01*
X54610000Y-38100000D02*
X54356000Y-38354000D01*
X53500000Y-41943000D02*
X53500000Y-44450000D01*
X51689000Y-41148000D02*
X52705000Y-41148000D01*
X54196000Y-35400000D02*
X54610000Y-35814000D01*
X52100000Y-35400000D02*
X54196000Y-35400000D01*
G04 #@! TO.N,Net-(R6-Pad1)*
X52100000Y-37400000D02*
X50103000Y-37400000D01*
X50103000Y-37400000D02*
X49149000Y-38354000D01*
X50620000Y-46990000D02*
X50720000Y-46990000D01*
X49149000Y-45519000D02*
X50620000Y-46990000D01*
X49149000Y-38354000D02*
X49149000Y-45519000D01*
G04 #@! TO.N,Net-(U2-Pad13)*
X44323000Y-26670000D02*
X46736000Y-26670000D01*
X46736000Y-26670000D02*
X47625000Y-27559000D01*
X47625000Y-27559000D02*
X47625000Y-28956000D01*
X46826000Y-29755000D02*
X46826000Y-31496000D01*
X47625000Y-28956000D02*
X46826000Y-29755000D01*
G04 #@! TD*
D22*
G04 #@! TO.N,VCC*
G36*
X58955001Y-52142388D02*
X58955681Y-52145804D01*
X58935935Y-52257787D01*
X58840596Y-52422919D01*
X58694524Y-52545488D01*
X58517366Y-52609968D01*
X58492388Y-52605000D01*
X29137612Y-52605000D01*
X29134193Y-52605680D01*
X29022213Y-52585935D01*
X28857081Y-52490596D01*
X28734512Y-52344524D01*
X28670032Y-52167366D01*
X28675000Y-52142388D01*
X28675000Y-48379801D01*
X31579673Y-51284476D01*
X31622071Y-51347929D01*
X31685524Y-51390327D01*
X31685526Y-51390329D01*
X31772560Y-51448483D01*
X31772560Y-51600000D01*
X31821843Y-51847765D01*
X31962191Y-52057809D01*
X32172235Y-52198157D01*
X32420000Y-52247440D01*
X34600000Y-52247440D01*
X34847765Y-52198157D01*
X35057809Y-52057809D01*
X35198157Y-51847765D01*
X35247440Y-51600000D01*
X35247440Y-50000000D01*
X35198157Y-49752235D01*
X35057809Y-49542191D01*
X34847765Y-49401843D01*
X34600000Y-49352560D01*
X34270000Y-49352560D01*
X34270000Y-49254801D01*
X35237362Y-48287440D01*
X36310000Y-48287440D01*
X36557765Y-48238157D01*
X36767809Y-48097809D01*
X36908157Y-47887765D01*
X36913721Y-47859791D01*
X36971673Y-47999699D01*
X37150302Y-48178327D01*
X37383691Y-48275000D01*
X37974250Y-48275000D01*
X38133000Y-48116250D01*
X38133000Y-47117000D01*
X38387000Y-47117000D01*
X38387000Y-48116250D01*
X38545750Y-48275000D01*
X39136309Y-48275000D01*
X39369698Y-48178327D01*
X39450000Y-48098025D01*
X39530302Y-48178327D01*
X39763691Y-48275000D01*
X40354250Y-48275000D01*
X40513000Y-48116250D01*
X40513000Y-47117000D01*
X38387000Y-47117000D01*
X38133000Y-47117000D01*
X38113000Y-47117000D01*
X38113000Y-46863000D01*
X38133000Y-46863000D01*
X38133000Y-45863750D01*
X37989250Y-45720000D01*
X38133000Y-45576250D01*
X38133000Y-44577000D01*
X38387000Y-44577000D01*
X38387000Y-45576250D01*
X38530750Y-45720000D01*
X38387000Y-45863750D01*
X38387000Y-46863000D01*
X40513000Y-46863000D01*
X40513000Y-45863750D01*
X40369250Y-45720000D01*
X40513000Y-45576250D01*
X40513000Y-44577000D01*
X38387000Y-44577000D01*
X38133000Y-44577000D01*
X38113000Y-44577000D01*
X38113000Y-44323000D01*
X38133000Y-44323000D01*
X38133000Y-43323750D01*
X38387000Y-43323750D01*
X38387000Y-44323000D01*
X40513000Y-44323000D01*
X40513000Y-43323750D01*
X40354250Y-43165000D01*
X39763691Y-43165000D01*
X39530302Y-43261673D01*
X39450000Y-43341975D01*
X39369698Y-43261673D01*
X39136309Y-43165000D01*
X38545750Y-43165000D01*
X38387000Y-43323750D01*
X38133000Y-43323750D01*
X37974250Y-43165000D01*
X37383691Y-43165000D01*
X37150302Y-43261673D01*
X36971673Y-43440301D01*
X36913721Y-43580209D01*
X36908157Y-43552235D01*
X36767809Y-43342191D01*
X36557765Y-43201843D01*
X36310000Y-43152560D01*
X35845362Y-43152560D01*
X34563000Y-41870199D01*
X34563000Y-41704126D01*
X34405431Y-41323720D01*
X34114280Y-41032569D01*
X33733874Y-40875000D01*
X33322126Y-40875000D01*
X32941720Y-41032569D01*
X32650569Y-41323720D01*
X32493000Y-41704126D01*
X32493000Y-42115874D01*
X32650569Y-42496280D01*
X32941720Y-42787431D01*
X33322126Y-42945000D01*
X33488199Y-42945000D01*
X34192530Y-43649331D01*
X34162560Y-43800000D01*
X34162560Y-45100000D01*
X34211843Y-45347765D01*
X34352191Y-45557809D01*
X34562235Y-45698157D01*
X34672048Y-45720000D01*
X34562235Y-45741843D01*
X34352191Y-45882191D01*
X34211843Y-46092235D01*
X34162560Y-46340000D01*
X34162560Y-47212638D01*
X33025528Y-48349671D01*
X32962072Y-48392071D01*
X32919672Y-48455527D01*
X32919671Y-48455528D01*
X32794097Y-48643463D01*
X32735112Y-48940000D01*
X32750001Y-49014852D01*
X32750001Y-49352560D01*
X32420000Y-49352560D01*
X32172235Y-49401843D01*
X31977059Y-49532256D01*
X29716000Y-47271199D01*
X29716000Y-46995505D01*
X29900582Y-47118839D01*
X30333744Y-47205000D01*
X30626256Y-47205000D01*
X31059418Y-47118839D01*
X31550625Y-46790625D01*
X31878839Y-46299418D01*
X31994092Y-45720000D01*
X31878839Y-45140582D01*
X31550625Y-44649375D01*
X31528967Y-44634904D01*
X31689698Y-44568327D01*
X31868327Y-44389699D01*
X31965000Y-44156310D01*
X31965000Y-43465750D01*
X31806250Y-43307000D01*
X30607000Y-43307000D01*
X30607000Y-43327000D01*
X30353000Y-43327000D01*
X30353000Y-43307000D01*
X30333000Y-43307000D01*
X30333000Y-43053000D01*
X30353000Y-43053000D01*
X30353000Y-41853750D01*
X30607000Y-41853750D01*
X30607000Y-43053000D01*
X31806250Y-43053000D01*
X31965000Y-42894250D01*
X31965000Y-42203690D01*
X31868327Y-41970301D01*
X31689698Y-41791673D01*
X31456309Y-41695000D01*
X30765750Y-41695000D01*
X30607000Y-41853750D01*
X30353000Y-41853750D01*
X30194250Y-41695000D01*
X29716000Y-41695000D01*
X29716000Y-39685750D01*
X35515000Y-39685750D01*
X35515000Y-40076310D01*
X35611673Y-40309699D01*
X35790302Y-40488327D01*
X36023691Y-40585000D01*
X37114250Y-40585000D01*
X37273000Y-40426250D01*
X37273000Y-39527000D01*
X35673750Y-39527000D01*
X35515000Y-39685750D01*
X29716000Y-39685750D01*
X29716000Y-38105505D01*
X29900582Y-38228839D01*
X30333744Y-38315000D01*
X30626256Y-38315000D01*
X31059418Y-38228839D01*
X31550625Y-37900625D01*
X31878839Y-37409418D01*
X31994092Y-36830000D01*
X31878839Y-36250582D01*
X31550625Y-35759375D01*
X31252239Y-35560000D01*
X31550625Y-35360625D01*
X31758178Y-35050000D01*
X33707153Y-35050000D01*
X33782000Y-35064888D01*
X33856847Y-35050000D01*
X33856852Y-35050000D01*
X34078537Y-35005904D01*
X34329929Y-34837929D01*
X34372331Y-34774470D01*
X35502560Y-33644241D01*
X35502560Y-33950000D01*
X35551843Y-34197765D01*
X35686973Y-34400000D01*
X35551843Y-34602235D01*
X35502560Y-34850000D01*
X35502560Y-35950000D01*
X35551843Y-36197765D01*
X35686973Y-36400000D01*
X35551843Y-36602235D01*
X35502560Y-36850000D01*
X35502560Y-37950000D01*
X35551843Y-38197765D01*
X35692191Y-38407809D01*
X35693375Y-38408600D01*
X35611673Y-38490301D01*
X35515000Y-38723690D01*
X35515000Y-39114250D01*
X35673750Y-39273000D01*
X37273000Y-39273000D01*
X37273000Y-39253000D01*
X37527000Y-39253000D01*
X37527000Y-39273000D01*
X37547000Y-39273000D01*
X37547000Y-39527000D01*
X37527000Y-39527000D01*
X37527000Y-40426250D01*
X37685750Y-40585000D01*
X38776309Y-40585000D01*
X38892560Y-40536847D01*
X38892560Y-42350000D01*
X38941843Y-42597765D01*
X39082191Y-42807809D01*
X39292235Y-42948157D01*
X39540000Y-42997440D01*
X40640000Y-42997440D01*
X40887765Y-42948157D01*
X41090000Y-42813027D01*
X41292235Y-42948157D01*
X41540000Y-42997440D01*
X42317584Y-42997440D01*
X42337097Y-43095537D01*
X42400398Y-43190274D01*
X42342235Y-43201843D01*
X42132191Y-43342191D01*
X41991843Y-43552235D01*
X41986279Y-43580209D01*
X41928327Y-43440301D01*
X41749698Y-43261673D01*
X41516309Y-43165000D01*
X40925750Y-43165000D01*
X40767000Y-43323750D01*
X40767000Y-44323000D01*
X40787000Y-44323000D01*
X40787000Y-44577000D01*
X40767000Y-44577000D01*
X40767000Y-45576250D01*
X40910750Y-45720000D01*
X40767000Y-45863750D01*
X40767000Y-46863000D01*
X40787000Y-46863000D01*
X40787000Y-47117000D01*
X40767000Y-47117000D01*
X40767000Y-48116250D01*
X40925750Y-48275000D01*
X41516309Y-48275000D01*
X41749698Y-48178327D01*
X41928327Y-47999699D01*
X41986279Y-47859791D01*
X41991843Y-47887765D01*
X42132191Y-48097809D01*
X42342235Y-48238157D01*
X42589237Y-48287288D01*
X42624096Y-48462536D01*
X42792071Y-48713929D01*
X42855530Y-48756331D01*
X43351670Y-49252472D01*
X43394071Y-49315929D01*
X43448893Y-49352560D01*
X41600000Y-49352560D01*
X41352235Y-49401843D01*
X41142191Y-49542191D01*
X41001843Y-49752235D01*
X40954549Y-49990000D01*
X40785711Y-49990000D01*
X40718280Y-49922569D01*
X40337874Y-49765000D01*
X39926126Y-49765000D01*
X39545720Y-49922569D01*
X39254569Y-50213720D01*
X39097000Y-50594126D01*
X39097000Y-51005874D01*
X39254569Y-51386280D01*
X39545720Y-51677431D01*
X39926126Y-51835000D01*
X40337874Y-51835000D01*
X40718280Y-51677431D01*
X40785711Y-51610000D01*
X40954549Y-51610000D01*
X41001843Y-51847765D01*
X41142191Y-52057809D01*
X41352235Y-52198157D01*
X41600000Y-52247440D01*
X43780000Y-52247440D01*
X44027765Y-52198157D01*
X44237809Y-52057809D01*
X44378157Y-51847765D01*
X44425451Y-51610000D01*
X44474549Y-51610000D01*
X44521843Y-51847765D01*
X44662191Y-52057809D01*
X44872235Y-52198157D01*
X45120000Y-52247440D01*
X47300000Y-52247440D01*
X47547765Y-52198157D01*
X47757809Y-52057809D01*
X47898157Y-51847765D01*
X47947440Y-51600000D01*
X47947440Y-50000000D01*
X47898157Y-49752235D01*
X47757809Y-49542191D01*
X47736571Y-49528000D01*
X48326199Y-49528000D01*
X50082671Y-51284473D01*
X50125071Y-51347929D01*
X50376463Y-51515904D01*
X50598148Y-51560000D01*
X50598153Y-51560000D01*
X50673000Y-51574888D01*
X50747847Y-51560000D01*
X53652560Y-51560000D01*
X53652560Y-51600000D01*
X53701843Y-51847765D01*
X53842191Y-52057809D01*
X54052235Y-52198157D01*
X54300000Y-52247440D01*
X56480000Y-52247440D01*
X56727765Y-52198157D01*
X56937809Y-52057809D01*
X57078157Y-51847765D01*
X57127440Y-51600000D01*
X57127440Y-50000000D01*
X57078157Y-49752235D01*
X56937809Y-49542191D01*
X56727765Y-49401843D01*
X56480000Y-49352560D01*
X54300000Y-49352560D01*
X54052235Y-49401843D01*
X53842191Y-49542191D01*
X53701843Y-49752235D01*
X53652560Y-50000000D01*
X53652560Y-50040000D01*
X50987802Y-50040000D01*
X49231331Y-48283530D01*
X49188929Y-48220071D01*
X48937537Y-48052096D01*
X48715852Y-48008000D01*
X48715847Y-48008000D01*
X48641000Y-47993112D01*
X48566153Y-48008000D01*
X44607818Y-48008000D01*
X44688157Y-47887765D01*
X44737440Y-47640000D01*
X44737440Y-46767361D01*
X46077473Y-45427329D01*
X46140929Y-45384929D01*
X46246915Y-45226310D01*
X46308904Y-45133538D01*
X46335878Y-44997929D01*
X46353000Y-44911852D01*
X46353000Y-44911848D01*
X46367888Y-44837000D01*
X46353000Y-44762152D01*
X46353000Y-44637801D01*
X47601476Y-43389327D01*
X47664929Y-43346929D01*
X47707327Y-43283476D01*
X47707329Y-43283474D01*
X47832903Y-43095538D01*
X47832904Y-43095537D01*
X47852417Y-42997440D01*
X48389001Y-42997440D01*
X48389001Y-45444148D01*
X48374112Y-45519000D01*
X48389001Y-45593852D01*
X48433097Y-45815537D01*
X48601072Y-46066929D01*
X48664528Y-46109329D01*
X49322560Y-46767361D01*
X49322560Y-47640000D01*
X49371843Y-47887765D01*
X49512191Y-48097809D01*
X49722235Y-48238157D01*
X49970000Y-48287440D01*
X51470000Y-48287440D01*
X51717765Y-48238157D01*
X51927809Y-48097809D01*
X52068157Y-47887765D01*
X52070000Y-47878500D01*
X52071843Y-47887765D01*
X52212191Y-48097809D01*
X52422235Y-48238157D01*
X52670000Y-48287440D01*
X54170000Y-48287440D01*
X54417765Y-48238157D01*
X54627809Y-48097809D01*
X54768157Y-47887765D01*
X54785614Y-47800000D01*
X55800227Y-47800000D01*
X55880000Y-47815868D01*
X55959773Y-47800000D01*
X55959774Y-47800000D01*
X56196046Y-47753003D01*
X56463977Y-47573977D01*
X56509168Y-47506344D01*
X56842571Y-47172941D01*
X57003744Y-47205000D01*
X57296256Y-47205000D01*
X57729418Y-47118839D01*
X58220625Y-46790625D01*
X58548839Y-46299418D01*
X58664092Y-45720000D01*
X58548839Y-45140582D01*
X58220625Y-44649375D01*
X58202381Y-44637184D01*
X58247765Y-44628157D01*
X58457809Y-44487809D01*
X58598157Y-44277765D01*
X58647440Y-44030000D01*
X58647440Y-42330000D01*
X58598157Y-42082235D01*
X58457809Y-41872191D01*
X58247765Y-41731843D01*
X58000000Y-41682560D01*
X57910000Y-41682560D01*
X57910000Y-39378178D01*
X58220625Y-39170625D01*
X58548839Y-38679418D01*
X58664092Y-38100000D01*
X58548839Y-37520582D01*
X58220625Y-37029375D01*
X58202381Y-37017184D01*
X58247765Y-37008157D01*
X58457809Y-36867809D01*
X58598157Y-36657765D01*
X58647440Y-36410000D01*
X58647440Y-34710000D01*
X58598157Y-34462235D01*
X58457809Y-34252191D01*
X58247765Y-34111843D01*
X58000000Y-34062560D01*
X56300000Y-34062560D01*
X56105000Y-34101348D01*
X56105000Y-31972711D01*
X56122431Y-31955280D01*
X56244377Y-31660876D01*
X56570582Y-31878839D01*
X57003744Y-31965000D01*
X57296256Y-31965000D01*
X57729418Y-31878839D01*
X58220625Y-31550625D01*
X58548839Y-31059418D01*
X58664092Y-30480000D01*
X58548839Y-29900582D01*
X58220625Y-29409375D01*
X57922239Y-29210000D01*
X58220625Y-29010625D01*
X58548839Y-28519418D01*
X58664092Y-27940000D01*
X58591209Y-27573592D01*
X58955000Y-27209801D01*
X58955001Y-52142388D01*
X58955001Y-52142388D01*
G37*
X58955001Y-52142388D02*
X58955681Y-52145804D01*
X58935935Y-52257787D01*
X58840596Y-52422919D01*
X58694524Y-52545488D01*
X58517366Y-52609968D01*
X58492388Y-52605000D01*
X29137612Y-52605000D01*
X29134193Y-52605680D01*
X29022213Y-52585935D01*
X28857081Y-52490596D01*
X28734512Y-52344524D01*
X28670032Y-52167366D01*
X28675000Y-52142388D01*
X28675000Y-48379801D01*
X31579673Y-51284476D01*
X31622071Y-51347929D01*
X31685524Y-51390327D01*
X31685526Y-51390329D01*
X31772560Y-51448483D01*
X31772560Y-51600000D01*
X31821843Y-51847765D01*
X31962191Y-52057809D01*
X32172235Y-52198157D01*
X32420000Y-52247440D01*
X34600000Y-52247440D01*
X34847765Y-52198157D01*
X35057809Y-52057809D01*
X35198157Y-51847765D01*
X35247440Y-51600000D01*
X35247440Y-50000000D01*
X35198157Y-49752235D01*
X35057809Y-49542191D01*
X34847765Y-49401843D01*
X34600000Y-49352560D01*
X34270000Y-49352560D01*
X34270000Y-49254801D01*
X35237362Y-48287440D01*
X36310000Y-48287440D01*
X36557765Y-48238157D01*
X36767809Y-48097809D01*
X36908157Y-47887765D01*
X36913721Y-47859791D01*
X36971673Y-47999699D01*
X37150302Y-48178327D01*
X37383691Y-48275000D01*
X37974250Y-48275000D01*
X38133000Y-48116250D01*
X38133000Y-47117000D01*
X38387000Y-47117000D01*
X38387000Y-48116250D01*
X38545750Y-48275000D01*
X39136309Y-48275000D01*
X39369698Y-48178327D01*
X39450000Y-48098025D01*
X39530302Y-48178327D01*
X39763691Y-48275000D01*
X40354250Y-48275000D01*
X40513000Y-48116250D01*
X40513000Y-47117000D01*
X38387000Y-47117000D01*
X38133000Y-47117000D01*
X38113000Y-47117000D01*
X38113000Y-46863000D01*
X38133000Y-46863000D01*
X38133000Y-45863750D01*
X37989250Y-45720000D01*
X38133000Y-45576250D01*
X38133000Y-44577000D01*
X38387000Y-44577000D01*
X38387000Y-45576250D01*
X38530750Y-45720000D01*
X38387000Y-45863750D01*
X38387000Y-46863000D01*
X40513000Y-46863000D01*
X40513000Y-45863750D01*
X40369250Y-45720000D01*
X40513000Y-45576250D01*
X40513000Y-44577000D01*
X38387000Y-44577000D01*
X38133000Y-44577000D01*
X38113000Y-44577000D01*
X38113000Y-44323000D01*
X38133000Y-44323000D01*
X38133000Y-43323750D01*
X38387000Y-43323750D01*
X38387000Y-44323000D01*
X40513000Y-44323000D01*
X40513000Y-43323750D01*
X40354250Y-43165000D01*
X39763691Y-43165000D01*
X39530302Y-43261673D01*
X39450000Y-43341975D01*
X39369698Y-43261673D01*
X39136309Y-43165000D01*
X38545750Y-43165000D01*
X38387000Y-43323750D01*
X38133000Y-43323750D01*
X37974250Y-43165000D01*
X37383691Y-43165000D01*
X37150302Y-43261673D01*
X36971673Y-43440301D01*
X36913721Y-43580209D01*
X36908157Y-43552235D01*
X36767809Y-43342191D01*
X36557765Y-43201843D01*
X36310000Y-43152560D01*
X35845362Y-43152560D01*
X34563000Y-41870199D01*
X34563000Y-41704126D01*
X34405431Y-41323720D01*
X34114280Y-41032569D01*
X33733874Y-40875000D01*
X33322126Y-40875000D01*
X32941720Y-41032569D01*
X32650569Y-41323720D01*
X32493000Y-41704126D01*
X32493000Y-42115874D01*
X32650569Y-42496280D01*
X32941720Y-42787431D01*
X33322126Y-42945000D01*
X33488199Y-42945000D01*
X34192530Y-43649331D01*
X34162560Y-43800000D01*
X34162560Y-45100000D01*
X34211843Y-45347765D01*
X34352191Y-45557809D01*
X34562235Y-45698157D01*
X34672048Y-45720000D01*
X34562235Y-45741843D01*
X34352191Y-45882191D01*
X34211843Y-46092235D01*
X34162560Y-46340000D01*
X34162560Y-47212638D01*
X33025528Y-48349671D01*
X32962072Y-48392071D01*
X32919672Y-48455527D01*
X32919671Y-48455528D01*
X32794097Y-48643463D01*
X32735112Y-48940000D01*
X32750001Y-49014852D01*
X32750001Y-49352560D01*
X32420000Y-49352560D01*
X32172235Y-49401843D01*
X31977059Y-49532256D01*
X29716000Y-47271199D01*
X29716000Y-46995505D01*
X29900582Y-47118839D01*
X30333744Y-47205000D01*
X30626256Y-47205000D01*
X31059418Y-47118839D01*
X31550625Y-46790625D01*
X31878839Y-46299418D01*
X31994092Y-45720000D01*
X31878839Y-45140582D01*
X31550625Y-44649375D01*
X31528967Y-44634904D01*
X31689698Y-44568327D01*
X31868327Y-44389699D01*
X31965000Y-44156310D01*
X31965000Y-43465750D01*
X31806250Y-43307000D01*
X30607000Y-43307000D01*
X30607000Y-43327000D01*
X30353000Y-43327000D01*
X30353000Y-43307000D01*
X30333000Y-43307000D01*
X30333000Y-43053000D01*
X30353000Y-43053000D01*
X30353000Y-41853750D01*
X30607000Y-41853750D01*
X30607000Y-43053000D01*
X31806250Y-43053000D01*
X31965000Y-42894250D01*
X31965000Y-42203690D01*
X31868327Y-41970301D01*
X31689698Y-41791673D01*
X31456309Y-41695000D01*
X30765750Y-41695000D01*
X30607000Y-41853750D01*
X30353000Y-41853750D01*
X30194250Y-41695000D01*
X29716000Y-41695000D01*
X29716000Y-39685750D01*
X35515000Y-39685750D01*
X35515000Y-40076310D01*
X35611673Y-40309699D01*
X35790302Y-40488327D01*
X36023691Y-40585000D01*
X37114250Y-40585000D01*
X37273000Y-40426250D01*
X37273000Y-39527000D01*
X35673750Y-39527000D01*
X35515000Y-39685750D01*
X29716000Y-39685750D01*
X29716000Y-38105505D01*
X29900582Y-38228839D01*
X30333744Y-38315000D01*
X30626256Y-38315000D01*
X31059418Y-38228839D01*
X31550625Y-37900625D01*
X31878839Y-37409418D01*
X31994092Y-36830000D01*
X31878839Y-36250582D01*
X31550625Y-35759375D01*
X31252239Y-35560000D01*
X31550625Y-35360625D01*
X31758178Y-35050000D01*
X33707153Y-35050000D01*
X33782000Y-35064888D01*
X33856847Y-35050000D01*
X33856852Y-35050000D01*
X34078537Y-35005904D01*
X34329929Y-34837929D01*
X34372331Y-34774470D01*
X35502560Y-33644241D01*
X35502560Y-33950000D01*
X35551843Y-34197765D01*
X35686973Y-34400000D01*
X35551843Y-34602235D01*
X35502560Y-34850000D01*
X35502560Y-35950000D01*
X35551843Y-36197765D01*
X35686973Y-36400000D01*
X35551843Y-36602235D01*
X35502560Y-36850000D01*
X35502560Y-37950000D01*
X35551843Y-38197765D01*
X35692191Y-38407809D01*
X35693375Y-38408600D01*
X35611673Y-38490301D01*
X35515000Y-38723690D01*
X35515000Y-39114250D01*
X35673750Y-39273000D01*
X37273000Y-39273000D01*
X37273000Y-39253000D01*
X37527000Y-39253000D01*
X37527000Y-39273000D01*
X37547000Y-39273000D01*
X37547000Y-39527000D01*
X37527000Y-39527000D01*
X37527000Y-40426250D01*
X37685750Y-40585000D01*
X38776309Y-40585000D01*
X38892560Y-40536847D01*
X38892560Y-42350000D01*
X38941843Y-42597765D01*
X39082191Y-42807809D01*
X39292235Y-42948157D01*
X39540000Y-42997440D01*
X40640000Y-42997440D01*
X40887765Y-42948157D01*
X41090000Y-42813027D01*
X41292235Y-42948157D01*
X41540000Y-42997440D01*
X42317584Y-42997440D01*
X42337097Y-43095537D01*
X42400398Y-43190274D01*
X42342235Y-43201843D01*
X42132191Y-43342191D01*
X41991843Y-43552235D01*
X41986279Y-43580209D01*
X41928327Y-43440301D01*
X41749698Y-43261673D01*
X41516309Y-43165000D01*
X40925750Y-43165000D01*
X40767000Y-43323750D01*
X40767000Y-44323000D01*
X40787000Y-44323000D01*
X40787000Y-44577000D01*
X40767000Y-44577000D01*
X40767000Y-45576250D01*
X40910750Y-45720000D01*
X40767000Y-45863750D01*
X40767000Y-46863000D01*
X40787000Y-46863000D01*
X40787000Y-47117000D01*
X40767000Y-47117000D01*
X40767000Y-48116250D01*
X40925750Y-48275000D01*
X41516309Y-48275000D01*
X41749698Y-48178327D01*
X41928327Y-47999699D01*
X41986279Y-47859791D01*
X41991843Y-47887765D01*
X42132191Y-48097809D01*
X42342235Y-48238157D01*
X42589237Y-48287288D01*
X42624096Y-48462536D01*
X42792071Y-48713929D01*
X42855530Y-48756331D01*
X43351670Y-49252472D01*
X43394071Y-49315929D01*
X43448893Y-49352560D01*
X41600000Y-49352560D01*
X41352235Y-49401843D01*
X41142191Y-49542191D01*
X41001843Y-49752235D01*
X40954549Y-49990000D01*
X40785711Y-49990000D01*
X40718280Y-49922569D01*
X40337874Y-49765000D01*
X39926126Y-49765000D01*
X39545720Y-49922569D01*
X39254569Y-50213720D01*
X39097000Y-50594126D01*
X39097000Y-51005874D01*
X39254569Y-51386280D01*
X39545720Y-51677431D01*
X39926126Y-51835000D01*
X40337874Y-51835000D01*
X40718280Y-51677431D01*
X40785711Y-51610000D01*
X40954549Y-51610000D01*
X41001843Y-51847765D01*
X41142191Y-52057809D01*
X41352235Y-52198157D01*
X41600000Y-52247440D01*
X43780000Y-52247440D01*
X44027765Y-52198157D01*
X44237809Y-52057809D01*
X44378157Y-51847765D01*
X44425451Y-51610000D01*
X44474549Y-51610000D01*
X44521843Y-51847765D01*
X44662191Y-52057809D01*
X44872235Y-52198157D01*
X45120000Y-52247440D01*
X47300000Y-52247440D01*
X47547765Y-52198157D01*
X47757809Y-52057809D01*
X47898157Y-51847765D01*
X47947440Y-51600000D01*
X47947440Y-50000000D01*
X47898157Y-49752235D01*
X47757809Y-49542191D01*
X47736571Y-49528000D01*
X48326199Y-49528000D01*
X50082671Y-51284473D01*
X50125071Y-51347929D01*
X50376463Y-51515904D01*
X50598148Y-51560000D01*
X50598153Y-51560000D01*
X50673000Y-51574888D01*
X50747847Y-51560000D01*
X53652560Y-51560000D01*
X53652560Y-51600000D01*
X53701843Y-51847765D01*
X53842191Y-52057809D01*
X54052235Y-52198157D01*
X54300000Y-52247440D01*
X56480000Y-52247440D01*
X56727765Y-52198157D01*
X56937809Y-52057809D01*
X57078157Y-51847765D01*
X57127440Y-51600000D01*
X57127440Y-50000000D01*
X57078157Y-49752235D01*
X56937809Y-49542191D01*
X56727765Y-49401843D01*
X56480000Y-49352560D01*
X54300000Y-49352560D01*
X54052235Y-49401843D01*
X53842191Y-49542191D01*
X53701843Y-49752235D01*
X53652560Y-50000000D01*
X53652560Y-50040000D01*
X50987802Y-50040000D01*
X49231331Y-48283530D01*
X49188929Y-48220071D01*
X48937537Y-48052096D01*
X48715852Y-48008000D01*
X48715847Y-48008000D01*
X48641000Y-47993112D01*
X48566153Y-48008000D01*
X44607818Y-48008000D01*
X44688157Y-47887765D01*
X44737440Y-47640000D01*
X44737440Y-46767361D01*
X46077473Y-45427329D01*
X46140929Y-45384929D01*
X46246915Y-45226310D01*
X46308904Y-45133538D01*
X46335878Y-44997929D01*
X46353000Y-44911852D01*
X46353000Y-44911848D01*
X46367888Y-44837000D01*
X46353000Y-44762152D01*
X46353000Y-44637801D01*
X47601476Y-43389327D01*
X47664929Y-43346929D01*
X47707327Y-43283476D01*
X47707329Y-43283474D01*
X47832903Y-43095538D01*
X47832904Y-43095537D01*
X47852417Y-42997440D01*
X48389001Y-42997440D01*
X48389001Y-45444148D01*
X48374112Y-45519000D01*
X48389001Y-45593852D01*
X48433097Y-45815537D01*
X48601072Y-46066929D01*
X48664528Y-46109329D01*
X49322560Y-46767361D01*
X49322560Y-47640000D01*
X49371843Y-47887765D01*
X49512191Y-48097809D01*
X49722235Y-48238157D01*
X49970000Y-48287440D01*
X51470000Y-48287440D01*
X51717765Y-48238157D01*
X51927809Y-48097809D01*
X52068157Y-47887765D01*
X52070000Y-47878500D01*
X52071843Y-47887765D01*
X52212191Y-48097809D01*
X52422235Y-48238157D01*
X52670000Y-48287440D01*
X54170000Y-48287440D01*
X54417765Y-48238157D01*
X54627809Y-48097809D01*
X54768157Y-47887765D01*
X54785614Y-47800000D01*
X55800227Y-47800000D01*
X55880000Y-47815868D01*
X55959773Y-47800000D01*
X55959774Y-47800000D01*
X56196046Y-47753003D01*
X56463977Y-47573977D01*
X56509168Y-47506344D01*
X56842571Y-47172941D01*
X57003744Y-47205000D01*
X57296256Y-47205000D01*
X57729418Y-47118839D01*
X58220625Y-46790625D01*
X58548839Y-46299418D01*
X58664092Y-45720000D01*
X58548839Y-45140582D01*
X58220625Y-44649375D01*
X58202381Y-44637184D01*
X58247765Y-44628157D01*
X58457809Y-44487809D01*
X58598157Y-44277765D01*
X58647440Y-44030000D01*
X58647440Y-42330000D01*
X58598157Y-42082235D01*
X58457809Y-41872191D01*
X58247765Y-41731843D01*
X58000000Y-41682560D01*
X57910000Y-41682560D01*
X57910000Y-39378178D01*
X58220625Y-39170625D01*
X58548839Y-38679418D01*
X58664092Y-38100000D01*
X58548839Y-37520582D01*
X58220625Y-37029375D01*
X58202381Y-37017184D01*
X58247765Y-37008157D01*
X58457809Y-36867809D01*
X58598157Y-36657765D01*
X58647440Y-36410000D01*
X58647440Y-34710000D01*
X58598157Y-34462235D01*
X58457809Y-34252191D01*
X58247765Y-34111843D01*
X58000000Y-34062560D01*
X56300000Y-34062560D01*
X56105000Y-34101348D01*
X56105000Y-31972711D01*
X56122431Y-31955280D01*
X56244377Y-31660876D01*
X56570582Y-31878839D01*
X57003744Y-31965000D01*
X57296256Y-31965000D01*
X57729418Y-31878839D01*
X58220625Y-31550625D01*
X58548839Y-31059418D01*
X58664092Y-30480000D01*
X58548839Y-29900582D01*
X58220625Y-29409375D01*
X57922239Y-29210000D01*
X58220625Y-29010625D01*
X58548839Y-28519418D01*
X58664092Y-27940000D01*
X58591209Y-27573592D01*
X58955000Y-27209801D01*
X58955001Y-52142388D01*
G36*
X51392463Y-41863904D02*
X51614148Y-41908000D01*
X51614152Y-41908000D01*
X51689000Y-41922888D01*
X51763848Y-41908000D01*
X52390199Y-41908000D01*
X52740000Y-42257802D01*
X52740000Y-43154549D01*
X52502235Y-43201843D01*
X52292191Y-43342191D01*
X52151843Y-43552235D01*
X52146279Y-43580209D01*
X52088327Y-43440301D01*
X51909698Y-43261673D01*
X51676309Y-43165000D01*
X51085750Y-43165000D01*
X50927000Y-43323750D01*
X50927000Y-44323000D01*
X50947000Y-44323000D01*
X50947000Y-44577000D01*
X50927000Y-44577000D01*
X50927000Y-44597000D01*
X50673000Y-44597000D01*
X50673000Y-44577000D01*
X50653000Y-44577000D01*
X50653000Y-44323000D01*
X50673000Y-44323000D01*
X50673000Y-43323750D01*
X50514250Y-43165000D01*
X49923691Y-43165000D01*
X49909000Y-43171085D01*
X49909000Y-42997440D01*
X50640000Y-42997440D01*
X50887765Y-42948157D01*
X51097809Y-42807809D01*
X51238157Y-42597765D01*
X51287440Y-42350000D01*
X51287440Y-41793730D01*
X51392463Y-41863904D01*
X51392463Y-41863904D01*
G37*
X51392463Y-41863904D02*
X51614148Y-41908000D01*
X51614152Y-41908000D01*
X51689000Y-41922888D01*
X51763848Y-41908000D01*
X52390199Y-41908000D01*
X52740000Y-42257802D01*
X52740000Y-43154549D01*
X52502235Y-43201843D01*
X52292191Y-43342191D01*
X52151843Y-43552235D01*
X52146279Y-43580209D01*
X52088327Y-43440301D01*
X51909698Y-43261673D01*
X51676309Y-43165000D01*
X51085750Y-43165000D01*
X50927000Y-43323750D01*
X50927000Y-44323000D01*
X50947000Y-44323000D01*
X50947000Y-44577000D01*
X50927000Y-44577000D01*
X50927000Y-44597000D01*
X50673000Y-44597000D01*
X50673000Y-44577000D01*
X50653000Y-44577000D01*
X50653000Y-44323000D01*
X50673000Y-44323000D01*
X50673000Y-43323750D01*
X50514250Y-43165000D01*
X49923691Y-43165000D01*
X49909000Y-43171085D01*
X49909000Y-42997440D01*
X50640000Y-42997440D01*
X50887765Y-42948157D01*
X51097809Y-42807809D01*
X51238157Y-42597765D01*
X51287440Y-42350000D01*
X51287440Y-41793730D01*
X51392463Y-41863904D01*
G36*
X36703000Y-23114000D02*
X36712667Y-23162601D01*
X36740197Y-23203803D01*
X36781399Y-23231333D01*
X36830000Y-23241000D01*
X50479391Y-23241000D01*
X50463671Y-23264527D01*
X49934528Y-23793671D01*
X49871072Y-23836071D01*
X49828672Y-23899527D01*
X49828671Y-23899528D01*
X49703097Y-24087463D01*
X49644112Y-24384000D01*
X49659001Y-24458852D01*
X49659000Y-27103153D01*
X49644112Y-27178000D01*
X49659000Y-27252847D01*
X49659000Y-27252851D01*
X49703096Y-27474536D01*
X49871071Y-27725929D01*
X49934529Y-27768330D01*
X50050670Y-27884472D01*
X50093071Y-27947929D01*
X50344463Y-28115904D01*
X50566148Y-28160000D01*
X50566152Y-28160000D01*
X50640999Y-28174888D01*
X50715846Y-28160000D01*
X50944331Y-28160000D01*
X50951843Y-28197765D01*
X51086973Y-28400000D01*
X50951843Y-28602235D01*
X50902560Y-28850000D01*
X50902560Y-29950000D01*
X50951843Y-30197765D01*
X51086973Y-30400000D01*
X50951843Y-30602235D01*
X50902560Y-30850000D01*
X50902560Y-31950000D01*
X50951843Y-32197765D01*
X51086973Y-32400000D01*
X50951843Y-32602235D01*
X50944331Y-32640000D01*
X48843848Y-32640000D01*
X48769000Y-32625112D01*
X48694152Y-32640000D01*
X48694148Y-32640000D01*
X48520605Y-32674520D01*
X48472462Y-32684096D01*
X48291518Y-32805000D01*
X48221071Y-32852071D01*
X48178671Y-32915527D01*
X46632530Y-34461669D01*
X46569071Y-34504071D01*
X46401096Y-34755464D01*
X46357000Y-34977149D01*
X46357000Y-34977153D01*
X46342112Y-35052000D01*
X46357000Y-35126847D01*
X46357001Y-39202560D01*
X45540000Y-39202560D01*
X45292235Y-39251843D01*
X45090000Y-39386973D01*
X44887765Y-39251843D01*
X44640000Y-39202560D01*
X43922151Y-39202560D01*
X43930431Y-39194280D01*
X44088000Y-38813874D01*
X44088000Y-38402126D01*
X43930431Y-38021720D01*
X43639280Y-37730569D01*
X43258874Y-37573000D01*
X42847126Y-37573000D01*
X42466720Y-37730569D01*
X42175569Y-38021720D01*
X42018000Y-38402126D01*
X42018000Y-38813874D01*
X42175569Y-39194280D01*
X42183849Y-39202560D01*
X41540000Y-39202560D01*
X41292235Y-39251843D01*
X41090000Y-39386973D01*
X40887765Y-39251843D01*
X40640000Y-39202560D01*
X39540000Y-39202560D01*
X39292235Y-39251843D01*
X39260575Y-39272998D01*
X39126252Y-39272998D01*
X39285000Y-39114250D01*
X39285000Y-38723690D01*
X39188327Y-38490301D01*
X39106625Y-38408600D01*
X39107809Y-38407809D01*
X39248157Y-38197765D01*
X39297440Y-37950000D01*
X39297440Y-36850000D01*
X39248157Y-36602235D01*
X39113027Y-36400000D01*
X39248157Y-36197765D01*
X39297440Y-35950000D01*
X39297440Y-34850000D01*
X39248157Y-34602235D01*
X39113027Y-34400000D01*
X39248157Y-34197765D01*
X39255669Y-34160000D01*
X45392153Y-34160000D01*
X45467000Y-34174888D01*
X45541847Y-34160000D01*
X45541852Y-34160000D01*
X45763537Y-34115904D01*
X46014929Y-33947929D01*
X46057330Y-33884471D01*
X46585475Y-33356328D01*
X46648929Y-33313929D01*
X46691327Y-33250476D01*
X46691329Y-33250474D01*
X46816903Y-33062538D01*
X46816904Y-33062537D01*
X46861000Y-32840852D01*
X46861000Y-32840848D01*
X46875888Y-32766001D01*
X46861000Y-32691154D01*
X46861000Y-32531000D01*
X47031874Y-32531000D01*
X47412280Y-32373431D01*
X47703431Y-32082280D01*
X47861000Y-31701874D01*
X47861000Y-31290126D01*
X47703431Y-30909720D01*
X47586000Y-30792289D01*
X47586000Y-30069801D01*
X48109473Y-29546329D01*
X48172929Y-29503929D01*
X48340904Y-29252537D01*
X48385000Y-29030852D01*
X48385000Y-29030848D01*
X48399888Y-28956000D01*
X48385000Y-28881152D01*
X48385000Y-27633847D01*
X48399888Y-27559000D01*
X48385000Y-27484153D01*
X48385000Y-27484148D01*
X48340904Y-27262463D01*
X48172929Y-27011071D01*
X48109473Y-26968671D01*
X47326331Y-26185530D01*
X47283929Y-26122071D01*
X47032537Y-25954096D01*
X46810852Y-25910000D01*
X46810847Y-25910000D01*
X46736000Y-25895112D01*
X46661153Y-25910000D01*
X45026711Y-25910000D01*
X44909280Y-25792569D01*
X44528874Y-25635000D01*
X44117126Y-25635000D01*
X43736720Y-25792569D01*
X43445569Y-26083720D01*
X43324883Y-26375082D01*
X40849331Y-23899530D01*
X40806929Y-23836071D01*
X40555537Y-23668096D01*
X40333852Y-23624000D01*
X40333847Y-23624000D01*
X40259000Y-23609112D01*
X40184153Y-23624000D01*
X38555846Y-23624000D01*
X38480999Y-23609112D01*
X38406152Y-23624000D01*
X38406148Y-23624000D01*
X38184463Y-23668096D01*
X37933071Y-23836071D01*
X37890671Y-23899528D01*
X37615529Y-24174669D01*
X37573788Y-24202560D01*
X36150000Y-24202560D01*
X35902235Y-24251843D01*
X35692191Y-24392191D01*
X35551843Y-24602235D01*
X35544331Y-24640000D01*
X33602847Y-24640000D01*
X33528000Y-24625112D01*
X33453153Y-24640000D01*
X33453148Y-24640000D01*
X33231463Y-24684096D01*
X32980071Y-24852071D01*
X32937671Y-24915527D01*
X31880095Y-25973103D01*
X31994092Y-25400000D01*
X31878839Y-24820582D01*
X31550625Y-24329375D01*
X31252239Y-24130000D01*
X31550625Y-23930625D01*
X31878839Y-23439418D01*
X31994092Y-22860000D01*
X31878839Y-22280582D01*
X31550625Y-21789375D01*
X31532381Y-21777184D01*
X31577765Y-21768157D01*
X31787809Y-21627809D01*
X31928157Y-21417765D01*
X31977440Y-21170000D01*
X31977440Y-19470000D01*
X31928157Y-19222235D01*
X31806039Y-19039474D01*
X31831513Y-19014000D01*
X35330289Y-19014000D01*
X35354720Y-19038431D01*
X35735126Y-19196000D01*
X36146874Y-19196000D01*
X36527280Y-19038431D01*
X36703000Y-18862711D01*
X36703000Y-23114000D01*
X36703000Y-23114000D01*
G37*
X36703000Y-23114000D02*
X36712667Y-23162601D01*
X36740197Y-23203803D01*
X36781399Y-23231333D01*
X36830000Y-23241000D01*
X50479391Y-23241000D01*
X50463671Y-23264527D01*
X49934528Y-23793671D01*
X49871072Y-23836071D01*
X49828672Y-23899527D01*
X49828671Y-23899528D01*
X49703097Y-24087463D01*
X49644112Y-24384000D01*
X49659001Y-24458852D01*
X49659000Y-27103153D01*
X49644112Y-27178000D01*
X49659000Y-27252847D01*
X49659000Y-27252851D01*
X49703096Y-27474536D01*
X49871071Y-27725929D01*
X49934529Y-27768330D01*
X50050670Y-27884472D01*
X50093071Y-27947929D01*
X50344463Y-28115904D01*
X50566148Y-28160000D01*
X50566152Y-28160000D01*
X50640999Y-28174888D01*
X50715846Y-28160000D01*
X50944331Y-28160000D01*
X50951843Y-28197765D01*
X51086973Y-28400000D01*
X50951843Y-28602235D01*
X50902560Y-28850000D01*
X50902560Y-29950000D01*
X50951843Y-30197765D01*
X51086973Y-30400000D01*
X50951843Y-30602235D01*
X50902560Y-30850000D01*
X50902560Y-31950000D01*
X50951843Y-32197765D01*
X51086973Y-32400000D01*
X50951843Y-32602235D01*
X50944331Y-32640000D01*
X48843848Y-32640000D01*
X48769000Y-32625112D01*
X48694152Y-32640000D01*
X48694148Y-32640000D01*
X48520605Y-32674520D01*
X48472462Y-32684096D01*
X48291518Y-32805000D01*
X48221071Y-32852071D01*
X48178671Y-32915527D01*
X46632530Y-34461669D01*
X46569071Y-34504071D01*
X46401096Y-34755464D01*
X46357000Y-34977149D01*
X46357000Y-34977153D01*
X46342112Y-35052000D01*
X46357000Y-35126847D01*
X46357001Y-39202560D01*
X45540000Y-39202560D01*
X45292235Y-39251843D01*
X45090000Y-39386973D01*
X44887765Y-39251843D01*
X44640000Y-39202560D01*
X43922151Y-39202560D01*
X43930431Y-39194280D01*
X44088000Y-38813874D01*
X44088000Y-38402126D01*
X43930431Y-38021720D01*
X43639280Y-37730569D01*
X43258874Y-37573000D01*
X42847126Y-37573000D01*
X42466720Y-37730569D01*
X42175569Y-38021720D01*
X42018000Y-38402126D01*
X42018000Y-38813874D01*
X42175569Y-39194280D01*
X42183849Y-39202560D01*
X41540000Y-39202560D01*
X41292235Y-39251843D01*
X41090000Y-39386973D01*
X40887765Y-39251843D01*
X40640000Y-39202560D01*
X39540000Y-39202560D01*
X39292235Y-39251843D01*
X39260575Y-39272998D01*
X39126252Y-39272998D01*
X39285000Y-39114250D01*
X39285000Y-38723690D01*
X39188327Y-38490301D01*
X39106625Y-38408600D01*
X39107809Y-38407809D01*
X39248157Y-38197765D01*
X39297440Y-37950000D01*
X39297440Y-36850000D01*
X39248157Y-36602235D01*
X39113027Y-36400000D01*
X39248157Y-36197765D01*
X39297440Y-35950000D01*
X39297440Y-34850000D01*
X39248157Y-34602235D01*
X39113027Y-34400000D01*
X39248157Y-34197765D01*
X39255669Y-34160000D01*
X45392153Y-34160000D01*
X45467000Y-34174888D01*
X45541847Y-34160000D01*
X45541852Y-34160000D01*
X45763537Y-34115904D01*
X46014929Y-33947929D01*
X46057330Y-33884471D01*
X46585475Y-33356328D01*
X46648929Y-33313929D01*
X46691327Y-33250476D01*
X46691329Y-33250474D01*
X46816903Y-33062538D01*
X46816904Y-33062537D01*
X46861000Y-32840852D01*
X46861000Y-32840848D01*
X46875888Y-32766001D01*
X46861000Y-32691154D01*
X46861000Y-32531000D01*
X47031874Y-32531000D01*
X47412280Y-32373431D01*
X47703431Y-32082280D01*
X47861000Y-31701874D01*
X47861000Y-31290126D01*
X47703431Y-30909720D01*
X47586000Y-30792289D01*
X47586000Y-30069801D01*
X48109473Y-29546329D01*
X48172929Y-29503929D01*
X48340904Y-29252537D01*
X48385000Y-29030852D01*
X48385000Y-29030848D01*
X48399888Y-28956000D01*
X48385000Y-28881152D01*
X48385000Y-27633847D01*
X48399888Y-27559000D01*
X48385000Y-27484153D01*
X48385000Y-27484148D01*
X48340904Y-27262463D01*
X48172929Y-27011071D01*
X48109473Y-26968671D01*
X47326331Y-26185530D01*
X47283929Y-26122071D01*
X47032537Y-25954096D01*
X46810852Y-25910000D01*
X46810847Y-25910000D01*
X46736000Y-25895112D01*
X46661153Y-25910000D01*
X45026711Y-25910000D01*
X44909280Y-25792569D01*
X44528874Y-25635000D01*
X44117126Y-25635000D01*
X43736720Y-25792569D01*
X43445569Y-26083720D01*
X43324883Y-26375082D01*
X40849331Y-23899530D01*
X40806929Y-23836071D01*
X40555537Y-23668096D01*
X40333852Y-23624000D01*
X40333847Y-23624000D01*
X40259000Y-23609112D01*
X40184153Y-23624000D01*
X38555846Y-23624000D01*
X38480999Y-23609112D01*
X38406152Y-23624000D01*
X38406148Y-23624000D01*
X38184463Y-23668096D01*
X37933071Y-23836071D01*
X37890671Y-23899528D01*
X37615529Y-24174669D01*
X37573788Y-24202560D01*
X36150000Y-24202560D01*
X35902235Y-24251843D01*
X35692191Y-24392191D01*
X35551843Y-24602235D01*
X35544331Y-24640000D01*
X33602847Y-24640000D01*
X33528000Y-24625112D01*
X33453153Y-24640000D01*
X33453148Y-24640000D01*
X33231463Y-24684096D01*
X32980071Y-24852071D01*
X32937671Y-24915527D01*
X31880095Y-25973103D01*
X31994092Y-25400000D01*
X31878839Y-24820582D01*
X31550625Y-24329375D01*
X31252239Y-24130000D01*
X31550625Y-23930625D01*
X31878839Y-23439418D01*
X31994092Y-22860000D01*
X31878839Y-22280582D01*
X31550625Y-21789375D01*
X31532381Y-21777184D01*
X31577765Y-21768157D01*
X31787809Y-21627809D01*
X31928157Y-21417765D01*
X31977440Y-21170000D01*
X31977440Y-19470000D01*
X31928157Y-19222235D01*
X31806039Y-19039474D01*
X31831513Y-19014000D01*
X35330289Y-19014000D01*
X35354720Y-19038431D01*
X35735126Y-19196000D01*
X36146874Y-19196000D01*
X36527280Y-19038431D01*
X36703000Y-18862711D01*
X36703000Y-23114000D01*
G04 #@! TD*
M02*
